<?xml version="1.0" encoding="UTF-8"?>
<svg xmlns="http://www.w3.org/2000/svg" xmlns:xlink="http://www.w3.org/1999/xlink" width="280.72pt" height="269.23pt" viewBox="0 0 280.72 269.23">
<defs>
<g>
<g id="glyph-0-0">
<path d="M 4.40625 -3.625 C 4.078125 -3.5625 3.984375 -3.28125 3.984375 -3.140625 C 3.984375 -2.96875 4.109375 -2.8125 4.328125 -2.8125 C 4.578125 -2.8125 4.828125 -3.03125 4.828125 -3.34375 C 4.828125 -3.765625 4.375 -3.96875 3.953125 -3.96875 C 3.421875 -3.96875 3.109375 -3.484375 3 -3.296875 C 2.828125 -3.734375 2.4375 -3.96875 2 -3.96875 C 1.046875 -3.96875 0.515625 -2.8125 0.515625 -2.578125 C 0.515625 -2.5 0.578125 -2.46875 0.640625 -2.46875 C 0.71875 -2.46875 0.75 -2.515625 0.765625 -2.578125 C 1.046875 -3.46875 1.640625 -3.734375 1.984375 -3.734375 C 2.25 -3.734375 2.46875 -3.5625 2.46875 -3.140625 C 2.46875 -2.828125 2.09375 -1.390625 1.96875 -0.953125 C 1.90625 -0.6875 1.625 -0.125 1.140625 -0.125 C 0.953125 -0.125 0.765625 -0.1875 0.6875 -0.234375 C 0.921875 -0.28125 1.109375 -0.5 1.109375 -0.71875 C 1.109375 -0.953125 0.9375 -1.046875 0.765625 -1.046875 C 0.5 -1.046875 0.265625 -0.828125 0.265625 -0.515625 C 0.265625 -0.078125 0.75 0.09375 1.125 0.09375 C 1.65625 0.09375 1.953125 -0.328125 2.09375 -0.578125 C 2.3125 0.015625 2.84375 0.09375 3.078125 0.09375 C 4.046875 0.09375 4.5625 -1.0625 4.5625 -1.28125 C 4.5625 -1.328125 4.53125 -1.390625 4.453125 -1.390625 C 4.34375 -1.390625 4.34375 -1.359375 4.296875 -1.21875 C 4.09375 -0.578125 3.578125 -0.125 3.109375 -0.125 C 2.859375 -0.125 2.609375 -0.28125 2.609375 -0.71875 C 2.609375 -0.921875 2.734375 -1.40625 2.8125 -1.75 C 2.859375 -1.90625 3.09375 -2.875 3.109375 -2.9375 C 3.21875 -3.265625 3.484375 -3.734375 3.953125 -3.734375 C 4.109375 -3.734375 4.28125 -3.71875 4.40625 -3.625 Z M 4.40625 -3.625 "/>
</g>
<g id="glyph-0-1">
<path d="M 4.5 -3.453125 C 4.515625 -3.5 4.53125 -3.546875 4.53125 -3.609375 C 4.53125 -3.71875 4.453125 -3.859375 4.25 -3.859375 C 4.140625 -3.859375 3.96875 -3.796875 3.90625 -3.625 C 3.890625 -3.59375 3.796875 -3.21875 3.75 -3.015625 L 3.296875 -1.234375 C 3.234375 -0.96875 3.234375 -0.953125 3.203125 -0.875 C 3.203125 -0.828125 2.828125 -0.125 2.171875 -0.125 C 1.625 -0.125 1.625 -0.6875 1.625 -0.859375 C 1.625 -1.265625 1.734375 -1.703125 2.125 -2.703125 C 2.203125 -2.921875 2.25 -3.046875 2.25 -3.203125 C 2.25 -3.65625 1.921875 -3.96875 1.484375 -3.96875 C 0.625 -3.96875 0.265625 -2.6875 0.265625 -2.578125 C 0.265625 -2.5 0.328125 -2.46875 0.390625 -2.46875 C 0.484375 -2.46875 0.5 -2.53125 0.53125 -2.640625 C 0.71875 -3.3125 1.078125 -3.734375 1.453125 -3.734375 C 1.671875 -3.734375 1.671875 -3.5625 1.671875 -3.4375 C 1.671875 -3.296875 1.625 -3.125 1.546875 -2.921875 C 1.125 -1.796875 1.015625 -1.421875 1.015625 -1 C 1.015625 0 1.828125 0.09375 2.15625 0.09375 C 2.59375 0.09375 2.90625 -0.140625 3.0625 -0.296875 C 2.953125 0.15625 2.859375 0.5625 2.5 1.015625 C 2.234375 1.375 1.875 1.609375 1.484375 1.609375 C 1.234375 1.609375 0.9375 1.53125 0.8125 1.28125 C 1.28125 1.28125 1.34375 0.875 1.34375 0.796875 C 1.34375 0.59375 1.203125 0.46875 1 0.46875 C 0.796875 0.46875 0.5 0.640625 0.5 1.046875 C 0.5 1.515625 0.921875 1.84375 1.484375 1.84375 C 2.390625 1.84375 3.375 1.0625 3.625 0.015625 Z M 4.5 -3.453125 "/>
</g>
<g id="glyph-0-2">
<path d="M 1.765625 -0.484375 C 1.765625 -0.75 1.546875 -0.96875 1.28125 -0.96875 C 1 -0.96875 0.796875 -0.75 0.796875 -0.484375 C 0.796875 -0.21875 1 0 1.28125 0 C 1.546875 0 1.765625 -0.21875 1.765625 -0.484375 Z M 1.765625 -0.484375 "/>
</g>
<g id="glyph-1-0">
<path d="M 4.25 -2.875 C 4.25 -3.46875 4.21875 -4.25 3.90625 -4.921875 C 3.5 -5.765625 2.828125 -5.96875 2.3125 -5.96875 C 1.765625 -5.96875 1.078125 -5.765625 0.6875 -4.890625 C 0.40625 -4.28125 0.359375 -3.546875 0.359375 -2.875 C 0.359375 -2.28125 0.375 -1.421875 0.765625 -0.703125 C 1.1875 0.046875 1.890625 0.203125 2.296875 0.203125 C 2.875 0.203125 3.546875 -0.046875 3.921875 -0.875 C 4.1875 -1.484375 4.25 -2.15625 4.25 -2.875 Z M 2.3125 -0.03125 C 2.03125 -0.03125 1.390625 -0.15625 1.21875 -1.171875 C 1.125 -1.6875 1.125 -2.46875 1.125 -2.984375 C 1.125 -3.59375 1.125 -4.296875 1.234375 -4.796875 C 1.421875 -5.59375 1.984375 -5.75 2.296875 -5.75 C 2.640625 -5.75 3.203125 -5.5625 3.375 -4.734375 C 3.46875 -4.25 3.46875 -3.546875 3.46875 -2.984375 C 3.46875 -2.421875 3.46875 -1.671875 3.375 -1.140625 C 3.1875 -0.109375 2.53125 -0.03125 2.3125 -0.03125 Z M 2.3125 -0.03125 "/>
</g>
<g id="glyph-1-1">
<path d="M 0.9375 -3.09375 C 0.9375 -2.9375 0.9375 -2.828125 1.0625 -2.828125 C 1.125 -2.828125 1.15625 -2.875 1.203125 -2.953125 C 1.484375 -3.328125 1.90625 -3.546875 2.375 -3.546875 C 3.34375 -3.546875 3.34375 -2.15625 3.34375 -1.84375 C 3.34375 -1.5625 3.34375 -1 3.078125 -0.59375 C 2.84375 -0.21875 2.46875 -0.046875 2.109375 -0.046875 C 1.59375 -0.046875 0.984375 -0.390625 0.765625 -1.046875 C 0.78125 -1.046875 0.828125 -1.03125 0.890625 -1.03125 C 1.078125 -1.03125 1.34375 -1.140625 1.34375 -1.46875 C 1.34375 -1.75 1.140625 -1.90625 0.890625 -1.90625 C 0.703125 -1.90625 0.453125 -1.796875 0.453125 -1.4375 C 0.453125 -0.625 1.140625 0.203125 2.140625 0.203125 C 3.21875 0.203125 4.140625 -0.6875 4.140625 -1.796875 C 4.140625 -2.875 3.375 -3.765625 2.390625 -3.765625 C 1.96875 -3.765625 1.53125 -3.625 1.203125 -3.296875 L 1.203125 -5.0625 C 1.484375 -4.984375 1.765625 -4.9375 2.03125 -4.9375 C 3.140625 -4.9375 3.78125 -5.734375 3.78125 -5.859375 C 3.78125 -5.9375 3.734375 -5.96875 3.6875 -5.96875 C 3.671875 -5.96875 3.65625 -5.96875 3.5625 -5.921875 C 3.140625 -5.765625 2.734375 -5.6875 2.359375 -5.6875 C 1.96875 -5.6875 1.5625 -5.765625 1.15625 -5.921875 C 1.0625 -5.96875 1.046875 -5.96875 1.046875 -5.96875 C 0.9375 -5.96875 0.9375 -5.890625 0.9375 -5.734375 Z M 0.9375 -3.09375 "/>
</g>
<g id="glyph-1-2">
<path d="M 1.203125 -2.96875 C 1.203125 -3.890625 1.296875 -4.390625 1.546875 -4.859375 C 1.71875 -5.234375 2.15625 -5.75 2.828125 -5.75 C 3 -5.75 3.421875 -5.71875 3.625 -5.390625 C 3.296875 -5.390625 3.140625 -5.21875 3.140625 -4.984375 C 3.140625 -4.75 3.3125 -4.5625 3.5625 -4.5625 C 3.8125 -4.5625 3.984375 -4.734375 3.984375 -5 C 3.984375 -5.5 3.625 -5.96875 2.8125 -5.96875 C 1.65625 -5.96875 0.390625 -4.828125 0.390625 -2.828125 C 0.390625 -0.40625 1.484375 0.203125 2.328125 0.203125 C 3.3125 0.203125 4.21875 -0.640625 4.21875 -1.828125 C 4.21875 -2.953125 3.390625 -3.828125 2.375 -3.828125 C 1.84375 -3.828125 1.453125 -3.5 1.203125 -2.96875 Z M 2.3125 -0.046875 C 1.796875 -0.046875 1.5 -0.46875 1.40625 -0.734375 C 1.234375 -1.140625 1.21875 -1.890625 1.21875 -2.03125 C 1.21875 -2.625 1.5 -3.59375 2.359375 -3.59375 C 2.5 -3.59375 2.9375 -3.59375 3.234375 -3.046875 C 3.40625 -2.703125 3.40625 -2.265625 3.40625 -1.828125 C 3.40625 -1.40625 3.40625 -0.953125 3.234375 -0.625 C 2.953125 -0.109375 2.5625 -0.046875 2.3125 -0.046875 Z M 2.3125 -0.046875 "/>
</g>
<g id="glyph-1-3">
<path d="M 4.390625 -5.46875 C 4.46875 -5.5625 4.46875 -5.59375 4.46875 -5.78125 L 2.25 -5.78125 C 1.109375 -5.78125 1.078125 -5.890625 1.0625 -6.0625 L 0.8125 -6.0625 L 0.515625 -4.1875 L 0.765625 -4.1875 C 0.796875 -4.390625 0.875 -4.890625 0.984375 -5 C 1.046875 -5.0625 1.765625 -5.0625 1.890625 -5.0625 L 3.765625 -5.0625 L 2.90625 -3.890625 C 1.734375 -2.28125 1.625 -0.8125 1.625 -0.3125 C 1.625 -0.203125 1.625 0.203125 2.046875 0.203125 C 2.46875 0.203125 2.46875 -0.203125 2.46875 -0.3125 L 2.46875 -0.75 C 2.46875 -2.078125 2.65625 -3.109375 3.140625 -3.765625 Z M 4.390625 -5.46875 "/>
</g>
<g id="glyph-1-4">
<path d="M 1.546875 -4.078125 C 1.28125 -4.25 1.0625 -4.484375 1.0625 -4.8125 C 1.0625 -5.40625 1.6875 -5.75 2.28125 -5.75 C 2.984375 -5.75 3.53125 -5.265625 3.53125 -4.640625 C 3.53125 -4.015625 3 -3.59375 2.640625 -3.390625 Z M 2.859375 -3.25 C 3.3125 -3.46875 3.96875 -3.90625 3.96875 -4.640625 C 3.96875 -5.484375 3.125 -5.96875 2.3125 -5.96875 C 1.375 -5.96875 0.640625 -5.296875 0.640625 -4.46875 C 0.640625 -4.140625 0.765625 -3.8125 0.984375 -3.546875 C 1.125 -3.375 1.1875 -3.34375 1.703125 -3.015625 C 0.921875 -2.640625 0.390625 -2.09375 0.390625 -1.359375 C 0.390625 -0.40625 1.328125 0.203125 2.296875 0.203125 C 3.34375 0.203125 4.21875 -0.53125 4.21875 -1.5 C 4.21875 -2.375 3.546875 -2.8125 3.328125 -2.953125 C 3.234375 -3.015625 2.96875 -3.1875 2.859375 -3.25 Z M 1.953125 -2.859375 L 3.078125 -2.15625 C 3.28125 -2.03125 3.734375 -1.734375 3.734375 -1.1875 C 3.734375 -0.484375 3.015625 -0.046875 2.3125 -0.046875 C 1.53125 -0.046875 0.875 -0.609375 0.875 -1.359375 C 0.875 -2 1.3125 -2.53125 1.953125 -2.859375 Z M 1.953125 -2.859375 "/>
</g>
<g id="glyph-1-5">
<path d="M 3.40625 -2.828125 L 3.40625 -2.625 C 3.40625 -0.4375 2.40625 -0.046875 1.890625 -0.046875 C 1.6875 -0.046875 1.234375 -0.09375 1 -0.390625 L 1.03125 -0.390625 C 1.109375 -0.375 1.453125 -0.4375 1.453125 -0.796875 C 1.453125 -1.03125 1.296875 -1.203125 1.046875 -1.203125 C 0.796875 -1.203125 0.625 -1.046875 0.625 -0.78125 C 0.625 -0.1875 1.09375 0.203125 1.90625 0.203125 C 3.0625 0.203125 4.21875 -0.984375 4.21875 -2.953125 C 4.21875 -5.375 3.140625 -5.96875 2.328125 -5.96875 C 1.296875 -5.96875 0.390625 -5.140625 0.390625 -3.96875 C 0.390625 -2.828125 1.203125 -1.96875 2.21875 -1.96875 C 2.875 -1.96875 3.234375 -2.4375 3.40625 -2.828125 Z M 2.25 -2.1875 C 2.09375 -2.1875 1.65625 -2.1875 1.375 -2.75 C 1.203125 -3.078125 1.203125 -3.53125 1.203125 -3.953125 C 1.203125 -4.390625 1.203125 -4.828125 1.390625 -5.171875 C 1.65625 -5.625 2.015625 -5.75 2.328125 -5.75 C 2.9375 -5.75 3.1875 -5.125 3.21875 -5.046875 C 3.34375 -4.703125 3.375 -4.15625 3.375 -3.78125 C 3.375 -3.125 3.078125 -2.1875 2.25 -2.1875 Z M 2.25 -2.1875 "/>
</g>
<g id="glyph-1-6">
<path d="M 2.71875 -5.734375 C 2.71875 -5.953125 2.71875 -5.96875 2.5 -5.96875 C 1.9375 -5.40625 1.109375 -5.40625 0.828125 -5.40625 L 0.828125 -5.125 C 1 -5.125 1.546875 -5.125 2.03125 -5.359375 L 2.03125 -0.71875 C 2.03125 -0.390625 2.015625 -0.28125 1.171875 -0.28125 L 0.890625 -0.28125 L 0.890625 0 C 1.203125 -0.03125 2.015625 -0.03125 2.375 -0.03125 C 2.75 -0.03125 3.546875 -0.03125 3.875 0 L 3.875 -0.28125 L 3.59375 -0.28125 C 2.75 -0.28125 2.71875 -0.390625 2.71875 -0.71875 Z M 2.71875 -5.734375 "/>
</g>
<g id="glyph-1-7">
<path d="M 6.34375 -2.96875 C 6.46875 -2.96875 6.640625 -2.96875 6.640625 -3.15625 C 6.640625 -3.359375 6.453125 -3.359375 6.3125 -3.359375 L 0.84375 -3.359375 C 0.703125 -3.359375 0.515625 -3.359375 0.515625 -3.15625 C 0.515625 -2.96875 0.6875 -2.96875 0.8125 -2.96875 Z M 6.3125 -1.140625 C 6.453125 -1.140625 6.640625 -1.140625 6.640625 -1.34375 C 6.640625 -1.53125 6.46875 -1.53125 6.34375 -1.53125 L 0.8125 -1.53125 C 0.6875 -1.53125 0.515625 -1.53125 0.515625 -1.34375 C 0.515625 -1.140625 0.703125 -1.140625 0.84375 -1.140625 Z M 6.3125 -1.140625 "/>
</g>
<g id="glyph-2-0">
<path d="M 3.828125 -1.0625 C 3.828125 -1.171875 3.734375 -1.171875 3.703125 -1.171875 C 3.609375 -1.171875 3.609375 -1.15625 3.546875 -1 C 3.34375 -0.390625 2.84375 -0.15625 2.390625 -0.15625 C 1.8125 -0.15625 1.078125 -0.625 1.078125 -1.953125 C 1.078125 -3.34375 1.796875 -3.765625 2.328125 -3.765625 C 2.453125 -3.765625 2.9375 -3.75 3.265625 -3.53125 C 3.078125 -3.484375 2.890625 -3.359375 2.890625 -3.109375 C 2.890625 -2.875 3.078125 -2.6875 3.3125 -2.6875 C 3.546875 -2.6875 3.734375 -2.84375 3.734375 -3.125 C 3.734375 -3.671875 3.109375 -4.015625 2.3125 -4.015625 C 1.171875 -4.015625 0.3125 -3.0625 0.3125 -1.9375 C 0.3125 -0.78125 1.234375 0.09375 2.296875 0.09375 C 3.546875 0.09375 3.828125 -0.984375 3.828125 -1.0625 Z M 3.828125 -1.0625 "/>
</g>
<g id="glyph-2-1">
<path d="M 4.34375 -1.90625 C 4.34375 -3.078125 3.40625 -4.015625 2.3125 -4.015625 C 1.171875 -4.015625 0.265625 -3.0625 0.265625 -1.90625 C 0.265625 -0.796875 1.1875 0.09375 2.296875 0.09375 C 3.4375 0.09375 4.34375 -0.8125 4.34375 -1.90625 Z M 3.5625 -1.984375 C 3.5625 -1.65625 3.5625 -1.140625 3.34375 -0.75 C 3.09375 -0.328125 2.6875 -0.15625 2.3125 -0.15625 C 1.859375 -0.15625 1.484375 -0.375 1.28125 -0.71875 C 1.046875 -1.109375 1.03125 -1.578125 1.03125 -1.984375 C 1.03125 -2.328125 1.03125 -2.828125 1.25 -3.203125 C 1.53125 -3.65625 1.96875 -3.796875 2.296875 -3.796875 C 2.8125 -3.796875 3.171875 -3.5 3.359375 -3.203125 C 3.5625 -2.828125 3.5625 -2.375 3.5625 -1.984375 Z M 3.5625 -1.984375 "/>
</g>
<g id="glyph-2-2">
<path d="M 3.3125 -1.140625 C 3.3125 -1.546875 3.140625 -1.796875 2.9375 -2 C 2.640625 -2.296875 2.3125 -2.359375 1.65625 -2.484375 C 1.421875 -2.53125 0.765625 -2.640625 0.765625 -3.15625 C 0.765625 -3.4375 0.96875 -3.828125 1.78125 -3.828125 C 2.75 -3.828125 2.8125 -3.078125 2.828125 -2.859375 C 2.84375 -2.75 2.84375 -2.6875 2.953125 -2.6875 C 3.078125 -2.6875 3.078125 -2.75 3.078125 -2.921875 L 3.078125 -3.78125 C 3.078125 -3.9375 3.078125 -4.015625 2.984375 -4.015625 C 2.9375 -4.015625 2.921875 -4.015625 2.796875 -3.90625 C 2.78125 -3.890625 2.703125 -3.8125 2.640625 -3.765625 C 2.375 -3.96875 2.09375 -4.015625 1.78125 -4.015625 C 0.59375 -4.015625 0.3125 -3.359375 0.3125 -2.90625 C 0.3125 -2.625 0.4375 -2.390625 0.640625 -2.1875 C 0.9375 -1.90625 1.28125 -1.84375 1.734375 -1.765625 C 2.203125 -1.671875 2.34375 -1.65625 2.546875 -1.5 C 2.640625 -1.421875 2.859375 -1.25 2.859375 -0.921875 C 2.859375 -0.125 1.953125 -0.125 1.828125 -0.125 C 0.921875 -0.125 0.6875 -0.890625 0.578125 -1.375 C 0.546875 -1.46875 0.53125 -1.515625 0.4375 -1.515625 C 0.3125 -1.515625 0.3125 -1.4375 0.3125 -1.28125 L 0.3125 -0.140625 C 0.3125 0.015625 0.3125 0.09375 0.40625 0.09375 C 0.46875 0.09375 0.46875 0.09375 0.640625 -0.078125 C 0.671875 -0.140625 0.765625 -0.25 0.8125 -0.296875 C 1.1875 0.078125 1.609375 0.09375 1.828125 0.09375 C 2.9375 0.09375 3.3125 -0.546875 3.3125 -1.140625 Z M 3.3125 -1.140625 "/>
</g>
<g id="glyph-3-0">
<path d="M 2.140625 -3.78125 C 2.140625 -3.953125 2.109375 -3.953125 1.9375 -3.953125 C 1.546875 -3.578125 0.9375 -3.578125 0.71875 -3.578125 L 0.71875 -3.34375 C 0.875 -3.34375 1.265625 -3.34375 1.625 -3.515625 L 1.625 -0.5 C 1.625 -0.3125 1.625 -0.234375 1.015625 -0.234375 L 0.75 -0.234375 L 0.75 0 C 1.078125 -0.03125 1.546875 -0.03125 1.875 -0.03125 C 2.21875 -0.03125 2.671875 -0.03125 3 0 L 3 -0.234375 L 2.75 -0.234375 C 2.140625 -0.234375 2.140625 -0.3125 2.140625 -0.5 Z M 2.140625 -3.78125 "/>
</g>
<g id="glyph-3-1">
<path d="M 3.203125 -1.109375 L 2.984375 -1.109375 C 2.96875 -1.03125 2.90625 -0.640625 2.828125 -0.578125 C 2.78125 -0.53125 2.296875 -0.53125 2.21875 -0.53125 L 1.09375 -0.53125 L 1.859375 -1.15625 C 2.0625 -1.3125 2.59375 -1.703125 2.78125 -1.875 C 2.953125 -2.046875 3.203125 -2.359375 3.203125 -2.78125 C 3.203125 -3.53125 2.53125 -3.953125 1.734375 -3.953125 C 0.96875 -3.953125 0.421875 -3.453125 0.421875 -2.890625 C 0.421875 -2.59375 0.6875 -2.546875 0.75 -2.546875 C 0.90625 -2.546875 1.078125 -2.65625 1.078125 -2.875 C 1.078125 -3 1 -3.203125 0.734375 -3.203125 C 0.875 -3.5 1.234375 -3.734375 1.640625 -3.734375 C 2.265625 -3.734375 2.59375 -3.265625 2.59375 -2.78125 C 2.59375 -2.359375 2.328125 -1.921875 1.90625 -1.546875 L 0.5 -0.25 C 0.4375 -0.1875 0.421875 -0.1875 0.421875 0 L 3.015625 0 Z M 3.203125 -1.109375 "/>
</g>
<g id="glyph-3-2">
<path d="M 1.75 -1.96875 C 2.25 -1.96875 2.59375 -1.640625 2.59375 -1.03125 C 2.59375 -0.375 2.203125 -0.09375 1.765625 -0.09375 C 1.609375 -0.09375 1 -0.125 0.71875 -0.46875 C 0.953125 -0.5 1.046875 -0.65625 1.046875 -0.8125 C 1.046875 -1.015625 0.90625 -1.15625 0.71875 -1.15625 C 0.546875 -1.15625 0.375 -1.046875 0.375 -0.796875 C 0.375 -0.203125 1.03125 0.125 1.78125 0.125 C 2.671875 0.125 3.25 -0.4375 3.25 -1.03125 C 3.25 -1.46875 2.921875 -1.921875 2.21875 -2.09375 C 2.6875 -2.25 3.0625 -2.640625 3.0625 -3.125 C 3.0625 -3.609375 2.5 -3.953125 1.796875 -3.953125 C 1.09375 -3.953125 0.5625 -3.640625 0.5625 -3.15625 C 0.5625 -2.890625 0.765625 -2.828125 0.875 -2.828125 C 1.03125 -2.828125 1.203125 -2.921875 1.203125 -3.140625 C 1.203125 -3.328125 1.0625 -3.421875 0.90625 -3.453125 C 1.1875 -3.765625 1.71875 -3.765625 1.78125 -3.765625 C 2.078125 -3.765625 2.46875 -3.625 2.46875 -3.125 C 2.46875 -2.796875 2.28125 -2.21875 1.6875 -2.1875 C 1.578125 -2.1875 1.421875 -2.171875 1.359375 -2.171875 C 1.296875 -2.171875 1.234375 -2.15625 1.234375 -2.078125 C 1.234375 -1.96875 1.296875 -1.96875 1.40625 -1.96875 Z M 1.75 -1.96875 "/>
</g>
<g id="glyph-3-3">
<path d="M 3.359375 -0.96875 L 3.359375 -1.203125 L 2.65625 -1.203125 L 2.65625 -3.84375 C 2.65625 -3.984375 2.65625 -4.015625 2.515625 -4.015625 C 2.40625 -4.015625 2.390625 -4 2.34375 -3.921875 L 0.28125 -1.203125 L 0.28125 -0.96875 L 2.125 -0.96875 L 2.125 -0.5 C 2.125 -0.296875 2.125 -0.234375 1.625 -0.234375 L 1.453125 -0.234375 L 1.453125 0 C 1.578125 0 2.125 -0.03125 2.390625 -0.03125 C 2.65625 -0.03125 3.21875 0 3.328125 0 L 3.328125 -0.234375 L 3.15625 -0.234375 C 2.65625 -0.234375 2.65625 -0.296875 2.65625 -0.5 L 2.65625 -0.96875 Z M 2.171875 -3.375 L 2.171875 -1.203125 L 0.53125 -1.203125 Z M 2.171875 -3.375 "/>
</g>
</g>
</defs>
<path fill="none" stroke-width="0.3985" stroke-linecap="butt" stroke-linejoin="miter" stroke="rgb(0%, 0%, 0%)" stroke-opacity="1" stroke-miterlimit="10" d="M 0.000730082 -0.00177446 L 229.099398 -0.00177446 " transform="matrix(0.997148, 0, 0, -0.997148, 24.968022, 249.252137)"/>
<path fill-rule="nonzero" fill="rgb(0%, 0%, 0%)" fill-opacity="1" stroke-width="0.3985" stroke-linecap="butt" stroke-linejoin="miter" stroke="rgb(0%, 0%, 0%)" stroke-opacity="1" stroke-miterlimit="10" d="M 4.214656 -0.00177446 L 0.641967 1.345819 L 1.817194 -0.00177446 L 0.641967 -1.34545 Z M 4.214656 -0.00177446 " transform="matrix(0.997148, 0, 0, -0.997148, 251.699708, 249.252137)"/>
<g fill="rgb(0%, 0%, 0%)" fill-opacity="1">
<use xlink:href="#glyph-0-0" x="260.156381" y="251.18461"/>
</g>
<path fill="none" stroke-width="0.3985" stroke-linecap="butt" stroke-linejoin="miter" stroke="rgb(0%, 0%, 0%)" stroke-opacity="1" stroke-miterlimit="10" d="M 0.000730082 -0.00177446 L 0.000730082 229.096894 " transform="matrix(0.997148, 0, 0, -0.997148, 24.968022, 249.252137)"/>
<path fill-rule="nonzero" fill="rgb(0%, 0%, 0%)" fill-opacity="1" stroke-width="0.3985" stroke-linecap="butt" stroke-linejoin="miter" stroke="rgb(0%, 0%, 0%)" stroke-opacity="1" stroke-miterlimit="10" d="M 4.216069 -0.000730082 L 0.64338 1.346863 L 1.818606 -0.000730082 L 0.64338 -1.344406 Z M 4.216069 -0.000730082 " transform="matrix(0, -0.997148, -0.997148, 0, 24.968022, 22.520451)"/>
<g fill="rgb(0%, 0%, 0%)" fill-opacity="1">
<use xlink:href="#glyph-0-1" x="22.535978" y="12.318768"/>
</g>
<path fill="none" stroke-width="0.3985" stroke-linecap="butt" stroke-linejoin="miter" stroke="rgb(0%, 0%, 0%)" stroke-opacity="1" stroke-miterlimit="10" d="M -2.208696 18.425778 L 2.210156 18.425778 " transform="matrix(0.997148, 0, 0, -0.997148, 24.968022, 249.252137)"/>
<g fill="rgb(0%, 0%, 0%)" fill-opacity="1">
<use xlink:href="#glyph-1-0" x="8.717499" y="233.769418"/>
</g>
<g fill="rgb(0%, 0%, 0%)" fill-opacity="1">
<use xlink:href="#glyph-0-2" x="13.329309" y="233.769418"/>
</g>
<g fill="rgb(0%, 0%, 0%)" fill-opacity="1">
<use xlink:href="#glyph-1-1" x="15.890982" y="233.769418"/>
</g>
<path fill="none" stroke-width="0.3985" stroke-linecap="butt" stroke-linejoin="miter" stroke="rgb(0%, 0%, 0%)" stroke-opacity="1" stroke-miterlimit="10" d="M -2.208696 55.280883 L 2.210156 55.280883 " transform="matrix(0.997148, 0, 0, -0.997148, 24.968022, 249.252137)"/>
<g fill="rgb(0%, 0%, 0%)" fill-opacity="1">
<use xlink:href="#glyph-1-0" x="8.717499" y="197.021517"/>
</g>
<g fill="rgb(0%, 0%, 0%)" fill-opacity="1">
<use xlink:href="#glyph-0-2" x="13.329309" y="197.021517"/>
</g>
<g fill="rgb(0%, 0%, 0%)" fill-opacity="1">
<use xlink:href="#glyph-1-2" x="15.890982" y="197.021517"/>
</g>
<path fill="none" stroke-width="0.3985" stroke-linecap="butt" stroke-linejoin="miter" stroke="rgb(0%, 0%, 0%)" stroke-opacity="1" stroke-miterlimit="10" d="M -2.208696 92.128154 L 2.210156 92.128154 " transform="matrix(0.997148, 0, 0, -0.997148, 24.968022, 249.252137)"/>
<g fill="rgb(0%, 0%, 0%)" fill-opacity="1">
<use xlink:href="#glyph-1-0" x="8.717499" y="160.279599"/>
</g>
<g fill="rgb(0%, 0%, 0%)" fill-opacity="1">
<use xlink:href="#glyph-0-2" x="13.329309" y="160.279599"/>
</g>
<g fill="rgb(0%, 0%, 0%)" fill-opacity="1">
<use xlink:href="#glyph-1-3" x="15.890982" y="160.279599"/>
</g>
<path fill="none" stroke-width="0.3985" stroke-linecap="butt" stroke-linejoin="miter" stroke="rgb(0%, 0%, 0%)" stroke-opacity="1" stroke-miterlimit="10" d="M -2.208696 128.979342 L 2.210156 128.979342 " transform="matrix(0.997148, 0, 0, -0.997148, 24.968022, 249.252137)"/>
<g fill="rgb(0%, 0%, 0%)" fill-opacity="1">
<use xlink:href="#glyph-1-0" x="8.717499" y="123.531698"/>
</g>
<g fill="rgb(0%, 0%, 0%)" fill-opacity="1">
<use xlink:href="#glyph-0-2" x="13.329309" y="123.531698"/>
</g>
<g fill="rgb(0%, 0%, 0%)" fill-opacity="1">
<use xlink:href="#glyph-1-4" x="15.890982" y="123.531698"/>
</g>
<path fill="none" stroke-width="0.3985" stroke-linecap="butt" stroke-linejoin="miter" stroke="rgb(0%, 0%, 0%)" stroke-opacity="1" stroke-miterlimit="10" d="M -2.208696 165.826612 L 2.210156 165.826612 " transform="matrix(0.997148, 0, 0, -0.997148, 24.968022, 249.252137)"/>
<g fill="rgb(0%, 0%, 0%)" fill-opacity="1">
<use xlink:href="#glyph-1-0" x="8.717499" y="86.788783"/>
</g>
<g fill="rgb(0%, 0%, 0%)" fill-opacity="1">
<use xlink:href="#glyph-0-2" x="13.329309" y="86.788783"/>
</g>
<g fill="rgb(0%, 0%, 0%)" fill-opacity="1">
<use xlink:href="#glyph-1-5" x="15.890982" y="86.788783"/>
</g>
<path fill="none" stroke-width="0.3985" stroke-linecap="butt" stroke-linejoin="miter" stroke="rgb(0%, 0%, 0%)" stroke-opacity="1" stroke-miterlimit="10" d="M -2.208696 202.681718 L 2.210156 202.681718 " transform="matrix(0.997148, 0, 0, -0.997148, 24.968022, 249.252137)"/>
<g fill="rgb(0%, 0%, 0%)" fill-opacity="1">
<use xlink:href="#glyph-1-6" x="8.717499" y="50.040883"/>
</g>
<g fill="rgb(0%, 0%, 0%)" fill-opacity="1">
<use xlink:href="#glyph-0-2" x="13.329309" y="50.040883"/>
</g>
<g fill="rgb(0%, 0%, 0%)" fill-opacity="1">
<use xlink:href="#glyph-1-0" x="15.890982" y="50.040883"/>
</g>
<path fill="none" stroke-width="0.79701" stroke-linecap="butt" stroke-linejoin="miter" stroke="rgb(0%, 0%, 0%)" stroke-opacity="1" stroke-miterlimit="10" d="M 0.000730082 -0.00177446 L 221.107857 221.10927 " transform="matrix(0.997148, 0, 0, -0.997148, 24.968022, 249.252137)"/>
<g fill="rgb(0%, 0%, 0%)" fill-opacity="1">
<use xlink:href="#glyph-0-1" x="249.332338" y="23.142811"/>
</g>
<g fill="rgb(0%, 0%, 0%)" fill-opacity="1">
<use xlink:href="#glyph-1-7" x="256.759098" y="23.142811"/>
</g>
<g fill="rgb(0%, 0%, 0%)" fill-opacity="1">
<use xlink:href="#glyph-0-0" x="266.495252" y="23.142811"/>
</g>
<path fill="none" stroke-width="0.79701" stroke-linecap="butt" stroke-linejoin="miter" stroke="rgb(0%, 0%, 69.999695%)" stroke-opacity="1" stroke-miterlimit="10" d="M 0.000730082 165.979392 L 3.745785 164.330157 L 7.490841 162.661335 L 11.235896 160.93767 L 14.980951 159.198334 L 18.726007 157.41199 L 22.471062 155.594306 L 26.216117 153.757035 L 29.961173 151.861003 L 33.702311 149.961054 L 37.447366 148.010177 L 41.192421 146.027962 L 44.937477 144.022242 L 48.682532 141.969513 L 52.427587 139.912866 L 56.172643 137.789624 L 59.917698 135.658546 L 63.662753 133.488294 L 67.407809 131.290621 L 71.152864 129.065525 L 74.89792 126.797338 L 78.642975 124.517398 L 82.38803 122.182615 L 86.133086 119.836079 L 89.878141 117.454287 L 93.623196 115.041155 L 97.368252 112.616271 L 101.113307 110.132625 L 104.858362 107.645062 L 108.603418 105.114408 L 112.348473 102.568083 L 116.093528 99.994337 L 119.838584 97.377499 L 123.583639 94.752827 L 127.328694 92.081145 L 131.07375 89.401628 L 134.818805 86.682937 L 138.559943 83.94466 L 142.304998 81.17896 L 146.050054 78.385838 L 149.795109 75.573129 L 153.540164 72.721246 L 157.28522 69.861528 L 161.030275 66.97047 L 164.77533 64.051991 L 168.520386 61.12176 L 172.265441 58.152354 L 176.010496 55.167278 L 179.755552 52.158698 L 183.500607 49.126614 L 187.245662 46.078859 L 190.990718 42.999766 L 194.735773 39.912837 L 198.480828 36.786735 L 202.225884 33.652797 L 205.970939 30.495355 L 209.715994 27.310491 L 213.46105 24.12171 L 217.206105 20.893754 L 220.95116 17.657963 " transform="matrix(0.997148, 0, 0, -0.997148, 24.968022, 249.252137)"/>
<g fill="rgb(0%, 0%, 69.999695%)" fill-opacity="1">
<use xlink:href="#glyph-0-1" x="36.007449" y="80.297349"/>
</g>
<g fill="rgb(0%, 0%, 69.999695%)" fill-opacity="1">
<use xlink:href="#glyph-1-7" x="43.434209" y="80.297349"/>
</g>
<g fill="rgb(0%, 0%, 69.999695%)" fill-opacity="1">
<use xlink:href="#glyph-2-0" x="53.170363" y="80.297349"/>
<use xlink:href="#glyph-2-1" x="57.271633" y="80.297349"/>
<use xlink:href="#glyph-2-2" x="61.884441" y="80.297349"/>
</g>
<g fill="rgb(0%, 0%, 69.999695%)" fill-opacity="1">
<use xlink:href="#glyph-0-0" x="67.055651" y="80.297349"/>
</g>
<path fill="none" stroke-width="0.3985" stroke-linecap="butt" stroke-linejoin="miter" stroke="rgb(75%, 0%, 0%)" stroke-opacity="1" stroke-miterlimit="10" d="M 202.680305 202.681718 L 202.680305 33.276725 L 33.275312 33.276725 L 33.275312 150.184347 L 150.182934 150.184347 L 150.182934 75.287157 L 75.285744 75.287157 L 75.285744 126.577962 L 126.580467 126.577962 L 126.580467 92.633501 L 92.632088 92.633501 L 92.632088 115.699282 L 115.697869 115.699282 L 115.697869 100.276392 L 100.274979 100.276392 L 100.274979 110.712403 L 110.710991 110.712403 L 110.710991 103.700218 L 103.698805 103.700218 " transform="matrix(0.997148, 0, 0, -0.997148, 24.968022, 249.252137)"/>
<path fill="none" stroke-width="0.3985" stroke-linecap="butt" stroke-linejoin="miter" stroke="rgb(0%, 0%, 0%)" stroke-opacity="1" stroke-dasharray="0.3985 0.99628" stroke-miterlimit="10" d="M 202.680305 202.681718 L 202.680305 -0.00177446 " transform="matrix(0.997148, 0, 0, -0.997148, 24.968022, 249.252137)"/>
<path fill="none" stroke-width="0.3985" stroke-linecap="butt" stroke-linejoin="miter" stroke="rgb(0%, 0%, 0%)" stroke-opacity="1" stroke-miterlimit="10" d="M 202.680305 2.211569 L 202.680305 -2.2112 " transform="matrix(0.997148, 0, 0, -0.997148, 24.968022, 249.252137)"/>
<g fill="rgb(0%, 0%, 0%)" fill-opacity="1">
<use xlink:href="#glyph-0-0" x="222.387401" y="259.008234"/>
</g>
<g fill="rgb(0%, 0%, 0%)" fill-opacity="1">
<use xlink:href="#glyph-3-0" x="227.615449" y="260.005382"/>
</g>
<path fill="none" stroke-width="0.3985" stroke-linecap="butt" stroke-linejoin="miter" stroke="rgb(0%, 0%, 0%)" stroke-opacity="1" stroke-dasharray="0.3985 0.99628" stroke-miterlimit="10" d="M 33.275312 33.276725 L 33.275312 -0.00177446 " transform="matrix(0.997148, 0, 0, -0.997148, 24.968022, 249.252137)"/>
<path fill="none" stroke-width="0.3985" stroke-linecap="butt" stroke-linejoin="miter" stroke="rgb(0%, 0%, 0%)" stroke-opacity="1" stroke-miterlimit="10" d="M 33.275312 2.211569 L 33.275312 -2.2112 " transform="matrix(0.997148, 0, 0, -0.997148, 24.968022, 249.252137)"/>
<g fill="rgb(0%, 0%, 0%)" fill-opacity="1">
<use xlink:href="#glyph-0-0" x="53.466516" y="259.008234"/>
</g>
<g fill="rgb(0%, 0%, 0%)" fill-opacity="1">
<use xlink:href="#glyph-3-1" x="58.694564" y="260.005382"/>
</g>
<path fill="none" stroke-width="0.3985" stroke-linecap="butt" stroke-linejoin="miter" stroke="rgb(0%, 0%, 0%)" stroke-opacity="1" stroke-dasharray="0.3985 0.99628" stroke-miterlimit="10" d="M 150.182934 150.184347 L 150.182934 -0.00177446 " transform="matrix(0.997148, 0, 0, -0.997148, 24.968022, 249.252137)"/>
<path fill="none" stroke-width="0.3985" stroke-linecap="butt" stroke-linejoin="miter" stroke="rgb(0%, 0%, 0%)" stroke-opacity="1" stroke-miterlimit="10" d="M 150.182934 2.211569 L 150.182934 -2.2112 " transform="matrix(0.997148, 0, 0, -0.997148, 24.968022, 249.252137)"/>
<g fill="rgb(0%, 0%, 0%)" fill-opacity="1">
<use xlink:href="#glyph-0-0" x="170.041112" y="259.008234"/>
</g>
<g fill="rgb(0%, 0%, 0%)" fill-opacity="1">
<use xlink:href="#glyph-3-2" x="175.26916" y="260.005382"/>
</g>
<path fill="none" stroke-width="0.3985" stroke-linecap="butt" stroke-linejoin="miter" stroke="rgb(0%, 0%, 0%)" stroke-opacity="1" stroke-dasharray="0.3985 0.99628" stroke-miterlimit="10" d="M 75.285744 75.287157 L 75.285744 -0.00177446 " transform="matrix(0.997148, 0, 0, -0.997148, 24.968022, 249.252137)"/>
<path fill="none" stroke-width="0.3985" stroke-linecap="butt" stroke-linejoin="miter" stroke="rgb(0%, 0%, 0%)" stroke-opacity="1" stroke-miterlimit="10" d="M 75.285744 2.211569 L 75.285744 -2.2112 " transform="matrix(0.997148, 0, 0, -0.997148, 24.968022, 249.252137)"/>
<g fill="rgb(0%, 0%, 0%)" fill-opacity="1">
<use xlink:href="#glyph-0-0" x="95.355713" y="259.008234"/>
</g>
<g fill="rgb(0%, 0%, 0%)" fill-opacity="1">
<use xlink:href="#glyph-3-3" x="100.58376" y="260.005382"/>
</g>
<path fill-rule="nonzero" fill="rgb(0%, 0%, 0%)" fill-opacity="1" d="M 132.488281 143.023438 C 132.488281 142.308594 131.910156 141.730469 131.199219 141.730469 C 130.484375 141.730469 129.90625 142.308594 129.90625 143.023438 C 129.90625 143.734375 130.484375 144.3125 131.199219 144.3125 C 131.910156 144.3125 132.488281 143.734375 132.488281 143.023438 Z M 132.488281 143.023438 "/>
</svg>
