<?xml version="1.0" encoding="UTF-8"?>
<svg xmlns="http://www.w3.org/2000/svg" xmlns:xlink="http://www.w3.org/1999/xlink" width="420.65pt" height="300.79pt" viewBox="0 0 420.65 300.79">
<defs>
<g>
<g id="glyph-0-0">
<path d="M 4.421875 -3.640625 C 4.09375 -3.578125 4 -3.28125 4 -3.15625 C 4 -2.984375 4.125 -2.828125 4.34375 -2.828125 C 4.59375 -2.828125 4.84375 -3.046875 4.84375 -3.359375 C 4.84375 -3.765625 4.390625 -3.984375 3.96875 -3.984375 C 3.421875 -3.984375 3.109375 -3.5 3 -3.3125 C 2.828125 -3.75 2.4375 -3.984375 2 -3.984375 C 1.046875 -3.984375 0.515625 -2.828125 0.515625 -2.59375 C 0.515625 -2.515625 0.578125 -2.484375 0.640625 -2.484375 C 0.734375 -2.484375 0.75 -2.53125 0.78125 -2.578125 C 1.046875 -3.46875 1.640625 -3.75 1.984375 -3.75 C 2.25 -3.75 2.484375 -3.578125 2.484375 -3.15625 C 2.484375 -2.828125 2.09375 -1.390625 1.984375 -0.96875 C 1.90625 -0.6875 1.640625 -0.125 1.140625 -0.125 C 0.96875 -0.125 0.78125 -0.1875 0.6875 -0.25 C 0.921875 -0.28125 1.109375 -0.5 1.109375 -0.734375 C 1.109375 -0.953125 0.9375 -1.046875 0.765625 -1.046875 C 0.5 -1.046875 0.265625 -0.828125 0.265625 -0.515625 C 0.265625 -0.078125 0.75 0.09375 1.140625 0.09375 C 1.65625 0.09375 1.96875 -0.328125 2.09375 -0.578125 C 2.328125 0.015625 2.859375 0.09375 3.09375 0.09375 C 4.0625 0.09375 4.578125 -1.078125 4.578125 -1.28125 C 4.578125 -1.328125 4.546875 -1.390625 4.46875 -1.390625 C 4.359375 -1.390625 4.359375 -1.359375 4.3125 -1.21875 C 4.109375 -0.578125 3.59375 -0.125 3.125 -0.125 C 2.859375 -0.125 2.625 -0.28125 2.625 -0.71875 C 2.625 -0.921875 2.75 -1.40625 2.828125 -1.75 C 2.859375 -1.921875 3.109375 -2.890625 3.125 -2.953125 C 3.234375 -3.28125 3.5 -3.75 3.953125 -3.75 C 4.125 -3.75 4.296875 -3.71875 4.421875 -3.640625 Z M 4.421875 -3.640625 "/>
</g>
<g id="glyph-0-1">
<path d="M 4.515625 -3.46875 C 4.53125 -3.515625 4.546875 -3.5625 4.546875 -3.625 C 4.546875 -3.734375 4.46875 -3.875 4.265625 -3.875 C 4.15625 -3.875 3.984375 -3.8125 3.921875 -3.640625 C 3.90625 -3.59375 3.8125 -3.234375 3.765625 -3.03125 L 3.3125 -1.234375 C 3.234375 -0.96875 3.234375 -0.953125 3.21875 -0.875 C 3.21875 -0.84375 2.828125 -0.125 2.1875 -0.125 C 1.625 -0.125 1.625 -0.6875 1.625 -0.859375 C 1.625 -1.265625 1.75 -1.703125 2.140625 -2.71875 C 2.203125 -2.921875 2.265625 -3.046875 2.265625 -3.21875 C 2.265625 -3.65625 1.921875 -3.984375 1.484375 -3.984375 C 0.625 -3.984375 0.265625 -2.703125 0.265625 -2.59375 C 0.265625 -2.515625 0.328125 -2.484375 0.390625 -2.484375 C 0.484375 -2.484375 0.5 -2.53125 0.53125 -2.65625 C 0.71875 -3.328125 1.078125 -3.75 1.453125 -3.75 C 1.671875 -3.75 1.671875 -3.578125 1.671875 -3.453125 C 1.671875 -3.296875 1.640625 -3.140625 1.5625 -2.921875 C 1.140625 -1.8125 1.015625 -1.4375 1.015625 -1 C 1.015625 0 1.828125 0.09375 2.15625 0.09375 C 2.59375 0.09375 2.921875 -0.140625 3.078125 -0.296875 C 2.96875 0.15625 2.859375 0.5625 2.515625 1.015625 C 2.234375 1.375 1.875 1.625 1.484375 1.625 C 1.234375 1.625 0.9375 1.53125 0.8125 1.28125 C 1.28125 1.28125 1.34375 0.875 1.34375 0.796875 C 1.34375 0.59375 1.203125 0.46875 1.015625 0.46875 C 0.796875 0.46875 0.5 0.640625 0.5 1.046875 C 0.5 1.515625 0.921875 1.84375 1.484375 1.84375 C 2.40625 1.84375 3.390625 1.0625 3.640625 0.015625 Z M 4.515625 -3.46875 "/>
</g>
<g id="glyph-0-2">
<path d="M 1.296875 -2.03125 C 1.625 -1.90625 1.84375 -1.90625 2.09375 -1.90625 C 2.328125 -1.90625 2.828125 -1.90625 2.828125 -2.203125 C 2.828125 -2.40625 2.59375 -2.453125 2.171875 -2.453125 C 1.96875 -2.453125 1.671875 -2.4375 1.3125 -2.28125 C 0.96875 -2.46875 0.9375 -2.703125 0.9375 -2.78125 C 0.9375 -3.296875 1.796875 -3.625 2.65625 -3.625 C 2.84375 -3.625 3.15625 -3.625 3.515625 -3.359375 C 3.578125 -3.328125 3.625 -3.296875 3.6875 -3.296875 C 3.78125 -3.296875 3.9375 -3.390625 3.9375 -3.546875 C 3.9375 -3.71875 3.65625 -3.84375 3.484375 -3.921875 C 3.359375 -3.984375 3.109375 -4.078125 2.75 -4.078125 C 1.65625 -4.078125 0.6875 -3.4375 0.6875 -2.78125 C 0.6875 -2.578125 0.796875 -2.328125 1.046875 -2.15625 C 0.765625 -1.984375 0.25 -1.5625 0.25 -0.953125 C 0.25 -0.28125 0.875 0.203125 1.75 0.203125 C 2.984375 0.203125 3.484375 -0.578125 3.484375 -0.75 C 3.484375 -0.796875 3.453125 -0.859375 3.390625 -0.859375 C 3.328125 -0.859375 3.3125 -0.828125 3.25 -0.71875 C 3.015625 -0.34375 2.5 -0.25 1.859375 -0.25 C 0.625 -0.25 0.5 -0.78125 0.5 -1.015625 C 0.5 -1.328125 0.796875 -1.796875 1.296875 -2.03125 Z M 1.640625 -2.15625 C 1.828125 -2.21875 1.984375 -2.234375 2.15625 -2.234375 C 2.34375 -2.234375 2.390625 -2.21875 2.5625 -2.1875 C 2.4375 -2.140625 2.40625 -2.125 2.09375 -2.125 C 1.9375 -2.125 1.796875 -2.125 1.640625 -2.15625 Z M 1.640625 -2.15625 "/>
</g>
<g id="glyph-0-3">
<path d="M 0.3125 1.484375 C 0.28125 1.609375 0.28125 1.625 0.28125 1.6875 C 0.28125 1.84375 0.390625 1.9375 0.5625 1.9375 C 0.703125 1.9375 0.828125 1.859375 0.90625 1.71875 C 0.921875 1.6875 1.234375 0.390625 1.28125 0.21875 C 1.375 -0.140625 1.375 -0.15625 1.46875 -0.484375 C 1.609375 -0.203125 1.890625 0.09375 2.375 0.09375 C 3.46875 0.09375 4.640625 -1.171875 4.640625 -2.5 C 4.640625 -3.359375 4.109375 -3.984375 3.328125 -3.984375 C 2.453125 -3.984375 1.46875 -3.125 1.1875 -1.984375 Z M 2.359375 -0.125 C 1.71875 -0.125 1.5625 -0.84375 1.5625 -0.921875 C 1.5625 -0.96875 1.796875 -1.828125 1.828125 -1.953125 C 2.265625 -3.625 3.109375 -3.75 3.328125 -3.75 C 3.734375 -3.75 3.96875 -3.375 3.96875 -2.875 C 3.96875 -2.578125 3.78125 -1.515625 3.40625 -0.859375 C 3.1875 -0.5 2.765625 -0.125 2.359375 -0.125 Z M 2.359375 -0.125 "/>
</g>
<g id="glyph-0-4">
<path d="M 1.765625 -0.484375 C 1.765625 -0.75 1.5625 -0.96875 1.28125 -0.96875 C 1 -0.96875 0.796875 -0.75 0.796875 -0.484375 C 0.796875 -0.21875 1 0 1.28125 0 C 1.5625 0 1.765625 -0.21875 1.765625 -0.484375 Z M 1.765625 -0.484375 "/>
</g>
<g id="glyph-1-0">
<path d="M 2.140625 -3.796875 C 2.140625 -3.96875 2.125 -3.96875 1.9375 -3.96875 C 1.546875 -3.59375 0.9375 -3.59375 0.71875 -3.59375 L 0.71875 -3.359375 C 0.875 -3.359375 1.265625 -3.359375 1.625 -3.515625 L 1.625 -0.5 C 1.625 -0.3125 1.625 -0.234375 1.015625 -0.234375 L 0.765625 -0.234375 L 0.765625 0 C 1.09375 -0.03125 1.546875 -0.03125 1.890625 -0.03125 C 2.21875 -0.03125 2.6875 -0.03125 3.015625 0 L 3.015625 -0.234375 L 2.75 -0.234375 C 2.140625 -0.234375 2.140625 -0.3125 2.140625 -0.5 Z M 2.140625 -3.796875 "/>
</g>
<g id="glyph-1-1">
<path d="M 3.359375 -0.984375 L 3.359375 -1.21875 L 2.671875 -1.21875 L 2.671875 -3.84375 C 2.671875 -3.984375 2.671875 -4.03125 2.515625 -4.03125 C 2.40625 -4.03125 2.40625 -4.015625 2.34375 -3.9375 L 0.28125 -1.21875 L 0.28125 -0.984375 L 2.125 -0.984375 L 2.125 -0.5 C 2.125 -0.296875 2.125 -0.234375 1.625 -0.234375 L 1.453125 -0.234375 L 1.453125 0 C 1.578125 0 2.140625 -0.03125 2.40625 -0.03125 C 2.65625 -0.03125 3.21875 0 3.34375 0 L 3.34375 -0.234375 L 3.171875 -0.234375 C 2.671875 -0.234375 2.671875 -0.296875 2.671875 -0.5 L 2.671875 -0.984375 Z M 2.171875 -3.375 L 2.171875 -1.21875 L 0.53125 -1.21875 Z M 2.171875 -3.375 "/>
</g>
<g id="glyph-1-2">
<path d="M 3.21875 -1.109375 L 2.984375 -1.109375 C 2.984375 -1.03125 2.921875 -0.640625 2.828125 -0.578125 C 2.78125 -0.53125 2.296875 -0.53125 2.21875 -0.53125 L 1.109375 -0.53125 L 1.875 -1.15625 C 2.078125 -1.3125 2.609375 -1.703125 2.78125 -1.875 C 2.96875 -2.0625 3.21875 -2.359375 3.21875 -2.78125 C 3.21875 -3.53125 2.53125 -3.96875 1.734375 -3.96875 C 0.96875 -3.96875 0.4375 -3.46875 0.4375 -2.90625 C 0.4375 -2.59375 0.6875 -2.5625 0.75 -2.5625 C 0.90625 -2.5625 1.078125 -2.671875 1.078125 -2.890625 C 1.078125 -3.015625 1 -3.203125 0.734375 -3.203125 C 0.875 -3.515625 1.234375 -3.734375 1.640625 -3.734375 C 2.28125 -3.734375 2.609375 -3.265625 2.609375 -2.78125 C 2.609375 -2.359375 2.328125 -1.921875 1.90625 -1.546875 L 0.5 -0.25 C 0.4375 -0.1875 0.4375 -0.1875 0.4375 0 L 3.03125 0 Z M 3.21875 -1.109375 "/>
</g>
<g id="glyph-2-0">
<path d="M 2.734375 -5.75 C 2.734375 -5.96875 2.734375 -6 2.5 -6 C 1.9375 -5.421875 1.109375 -5.421875 0.84375 -5.421875 L 0.84375 -5.140625 C 1.015625 -5.140625 1.5625 -5.140625 2.046875 -5.375 L 2.046875 -0.71875 C 2.046875 -0.390625 2.015625 -0.28125 1.171875 -0.28125 L 0.890625 -0.28125 L 0.890625 0 C 1.21875 -0.03125 2.015625 -0.03125 2.390625 -0.03125 C 2.75 -0.03125 3.5625 -0.03125 3.890625 0 L 3.890625 -0.28125 L 3.59375 -0.28125 C 2.765625 -0.28125 2.734375 -0.390625 2.734375 -0.71875 Z M 2.734375 -5.75 "/>
</g>
<g id="glyph-2-1">
<path d="M 4.15625 -1.59375 L 3.90625 -1.59375 C 3.890625 -1.46875 3.8125 -0.9375 3.703125 -0.796875 C 3.640625 -0.71875 3.03125 -0.71875 2.84375 -0.71875 L 1.234375 -0.71875 L 2.140625 -1.5625 C 3.609375 -2.84375 4.15625 -3.328125 4.15625 -4.234375 C 4.15625 -5.28125 3.296875 -6 2.203125 -6 C 1.15625 -6 0.453125 -5.171875 0.453125 -4.359375 C 0.453125 -3.90625 0.84375 -3.859375 0.921875 -3.859375 C 1.125 -3.859375 1.390625 -4 1.390625 -4.328125 C 1.390625 -4.59375 1.203125 -4.796875 0.921875 -4.796875 C 0.875 -4.796875 0.859375 -4.796875 0.8125 -4.78125 C 1.03125 -5.421875 1.609375 -5.71875 2.09375 -5.71875 C 3.015625 -5.71875 3.328125 -4.859375 3.328125 -4.234375 C 3.328125 -3.328125 2.640625 -2.578125 2.203125 -2.109375 L 0.5625 -0.328125 C 0.453125 -0.21875 0.453125 -0.203125 0.453125 0 L 3.90625 0 Z M 4.15625 -1.59375 "/>
</g>
<g id="glyph-2-2">
<path d="M 2.75 -3.171875 C 3.578125 -3.484375 3.984375 -4.140625 3.984375 -4.765625 C 3.984375 -5.453125 3.21875 -6 2.28125 -6 C 1.34375 -6 0.640625 -5.46875 0.640625 -4.78125 C 0.640625 -4.484375 0.84375 -4.3125 1.09375 -4.3125 C 1.359375 -4.3125 1.546875 -4.5 1.546875 -4.765625 C 1.546875 -5.078125 1.328125 -5.21875 1.03125 -5.21875 C 1.265625 -5.59375 1.8125 -5.765625 2.25 -5.765625 C 3 -5.765625 3.140625 -5.171875 3.140625 -4.75 C 3.140625 -4.484375 3.09375 -4.046875 2.859375 -3.703125 C 2.578125 -3.296875 2.265625 -3.28125 2 -3.265625 C 1.78125 -3.25 1.765625 -3.25 1.6875 -3.25 C 1.609375 -3.234375 1.53125 -3.234375 1.53125 -3.125 C 1.53125 -3.015625 1.609375 -3.015625 1.765625 -3.015625 L 2.1875 -3.015625 C 2.96875 -3.015625 3.3125 -2.390625 3.3125 -1.53125 C 3.3125 -0.375 2.703125 -0.046875 2.234375 -0.046875 C 2.0625 -0.046875 1.203125 -0.09375 0.796875 -0.765625 C 1.109375 -0.71875 1.375 -0.9375 1.375 -1.25 C 1.375 -1.546875 1.140625 -1.734375 0.875 -1.734375 C 0.65625 -1.734375 0.390625 -1.609375 0.390625 -1.21875 C 0.390625 -0.421875 1.21875 0.203125 2.265625 0.203125 C 3.390625 0.203125 4.234375 -0.609375 4.234375 -1.53125 C 4.234375 -2.3125 3.609375 -2.984375 2.75 -3.171875 Z M 2.75 -3.171875 "/>
</g>
<g id="glyph-2-3">
<path d="M 0.265625 -1.765625 L 0.265625 -1.484375 L 2.71875 -1.484375 L 2.71875 -0.71875 C 2.71875 -0.375 2.6875 -0.28125 2.015625 -0.28125 L 1.8125 -0.28125 L 1.8125 0 C 2.390625 -0.03125 3.015625 -0.03125 3.078125 -0.03125 C 3.125 -0.03125 3.765625 -0.03125 4.34375 0 L 4.34375 -0.28125 L 4.140625 -0.28125 C 3.46875 -0.28125 3.4375 -0.375 3.4375 -0.71875 L 3.4375 -1.484375 L 4.359375 -1.484375 L 4.359375 -1.765625 L 3.4375 -1.765625 L 3.4375 -5.84375 C 3.4375 -6.03125 3.4375 -6.09375 3.265625 -6.09375 C 3.15625 -6.09375 3.15625 -6.078125 3.0625 -5.953125 Z M 0.546875 -1.765625 L 2.765625 -5.09375 L 2.765625 -1.765625 Z M 0.546875 -1.765625 "/>
</g>
<g id="glyph-2-4">
<path d="M 6.375 -2.984375 C 6.5 -2.984375 6.671875 -2.984375 6.671875 -3.171875 C 6.671875 -3.359375 6.46875 -3.359375 6.34375 -3.359375 L 0.84375 -3.359375 C 0.71875 -3.359375 0.515625 -3.359375 0.515625 -3.171875 C 0.515625 -2.984375 0.6875 -2.984375 0.8125 -2.984375 Z M 6.34375 -1.140625 C 6.46875 -1.140625 6.671875 -1.140625 6.671875 -1.34375 C 6.671875 -1.53125 6.5 -1.53125 6.375 -1.53125 L 0.8125 -1.53125 C 0.6875 -1.53125 0.515625 -1.53125 0.515625 -1.34375 C 0.515625 -1.140625 0.71875 -1.140625 0.84375 -1.140625 Z M 6.34375 -1.140625 "/>
</g>
<g id="glyph-2-5">
<path d="M 3.0625 2.140625 C 3.0625 2.09375 3.046875 2.0625 2.984375 2 C 1.828125 0.9375 1.46875 -0.671875 1.46875 -2.25 C 1.46875 -3.640625 1.75 -5.34375 3.015625 -6.546875 C 3.046875 -6.578125 3.0625 -6.609375 3.0625 -6.65625 C 3.0625 -6.71875 3.03125 -6.75 2.96875 -6.75 C 2.859375 -6.75 2.046875 -6.109375 1.5625 -5.125 C 1.125 -4.25 0.90625 -3.328125 0.90625 -2.265625 C 0.90625 -1.609375 0.984375 -0.578125 1.484375 0.484375 C 2.015625 1.578125 2.859375 2.234375 2.96875 2.234375 C 3.03125 2.234375 3.0625 2.203125 3.0625 2.140625 Z M 3.0625 2.140625 "/>
</g>
<g id="glyph-2-6">
<path d="M 2.6875 -2.265625 C 2.6875 -3 2.578125 -3.984375 2.109375 -4.984375 C 1.578125 -6.09375 0.734375 -6.75 0.625 -6.75 C 0.546875 -6.75 0.515625 -6.671875 0.515625 -6.65625 C 0.515625 -6.609375 0.546875 -6.578125 0.609375 -6.515625 C 1.125 -6.046875 2.109375 -4.828125 2.109375 -2.265625 C 2.109375 -0.96875 1.875 0.8125 0.578125 2.03125 C 0.5625 2.0625 0.515625 2.09375 0.515625 2.140625 C 0.515625 2.171875 0.546875 2.234375 0.625 2.234375 C 0.734375 2.234375 1.546875 1.59375 2.03125 0.609375 C 2.46875 -0.25 2.6875 -1.171875 2.6875 -2.265625 Z M 2.6875 -2.265625 "/>
</g>
<g id="glyph-2-7">
<path d="M 4.25 -2.875 C 4.25 -3.484375 4.234375 -4.25 3.921875 -4.9375 C 3.515625 -5.78125 2.828125 -6 2.3125 -6 C 1.765625 -6 1.09375 -5.78125 0.6875 -4.90625 C 0.40625 -4.296875 0.359375 -3.5625 0.359375 -2.875 C 0.359375 -2.296875 0.375 -1.421875 0.765625 -0.71875 C 1.1875 0.046875 1.890625 0.203125 2.296875 0.203125 C 2.890625 0.203125 3.5625 -0.046875 3.9375 -0.875 C 4.203125 -1.484375 4.25 -2.15625 4.25 -2.875 Z M 2.3125 -0.03125 C 2.046875 -0.03125 1.390625 -0.15625 1.21875 -1.171875 C 1.140625 -1.703125 1.140625 -2.46875 1.140625 -2.984375 C 1.140625 -3.59375 1.140625 -4.3125 1.234375 -4.8125 C 1.421875 -5.609375 2 -5.765625 2.296875 -5.765625 C 2.640625 -5.765625 3.21875 -5.59375 3.390625 -4.75 C 3.484375 -4.25 3.484375 -3.5625 3.484375 -2.984375 C 3.484375 -2.4375 3.484375 -1.671875 3.390625 -1.140625 C 3.203125 -0.109375 2.53125 -0.03125 2.3125 -0.03125 Z M 2.3125 -0.03125 "/>
</g>
<g id="glyph-2-8">
<path d="M 6.359375 -2.0625 C 6.484375 -2.0625 6.671875 -2.0625 6.671875 -2.25 C 6.671875 -2.453125 6.5 -2.453125 6.359375 -2.453125 L 3.78125 -2.453125 L 3.78125 -5.015625 C 3.78125 -5.171875 3.78125 -5.34375 3.59375 -5.34375 C 3.40625 -5.34375 3.40625 -5.140625 3.40625 -5.015625 L 3.40625 -2.453125 L 0.828125 -2.453125 C 0.703125 -2.453125 0.515625 -2.453125 0.515625 -2.265625 C 0.515625 -2.0625 0.6875 -2.0625 0.828125 -2.0625 L 3.40625 -2.0625 L 3.40625 0.515625 C 3.40625 0.65625 3.40625 0.828125 3.59375 0.828125 C 3.78125 0.828125 3.78125 0.640625 3.78125 0.515625 L 3.78125 -2.0625 Z M 6.359375 -2.0625 "/>
</g>
<g id="glyph-3-0">
<path d="M 3.359375 -2.34375 C 3.15625 -2.28125 3.109375 -2.109375 3.109375 -2.015625 C 3.109375 -1.828125 3.265625 -1.796875 3.34375 -1.796875 C 3.515625 -1.796875 3.6875 -1.9375 3.6875 -2.171875 C 3.6875 -2.484375 3.34375 -2.625 3.03125 -2.625 C 2.640625 -2.625 2.40625 -2.328125 2.328125 -2.21875 C 2.25 -2.359375 2.03125 -2.625 1.578125 -2.625 C 0.890625 -2.625 0.484375 -1.921875 0.484375 -1.71875 C 0.484375 -1.6875 0.515625 -1.625 0.59375 -1.625 C 0.6875 -1.625 0.703125 -1.671875 0.71875 -1.71875 C 0.859375 -2.203125 1.265625 -2.4375 1.5625 -2.4375 C 1.859375 -2.4375 1.953125 -2.25 1.953125 -2.046875 C 1.953125 -1.96875 1.953125 -1.921875 1.890625 -1.734375 C 1.765625 -1.1875 1.625 -0.640625 1.59375 -0.5625 C 1.515625 -0.34375 1.296875 -0.140625 1.046875 -0.140625 C 1.015625 -0.140625 0.84375 -0.140625 0.703125 -0.234375 C 0.9375 -0.296875 0.96875 -0.5 0.96875 -0.546875 C 0.96875 -0.703125 0.84375 -0.78125 0.71875 -0.78125 C 0.5625 -0.78125 0.375 -0.65625 0.375 -0.40625 C 0.375 -0.0625 0.75 0.0625 1.03125 0.0625 C 1.375 0.0625 1.625 -0.171875 1.734375 -0.359375 C 1.84375 -0.109375 2.140625 0.0625 2.484375 0.0625 C 3.1875 0.0625 3.578125 -0.65625 3.578125 -0.859375 C 3.578125 -0.875 3.5625 -0.9375 3.46875 -0.9375 C 3.375 -0.9375 3.359375 -0.90625 3.34375 -0.84375 C 3.171875 -0.328125 2.75 -0.140625 2.5 -0.140625 C 2.28125 -0.140625 2.109375 -0.265625 2.109375 -0.515625 C 2.109375 -0.625 2.140625 -0.765625 2.203125 -0.96875 L 2.390625 -1.75 C 2.453125 -1.984375 2.484375 -2.09375 2.609375 -2.234375 C 2.6875 -2.328125 2.828125 -2.4375 3.015625 -2.4375 C 3.046875 -2.4375 3.234375 -2.4375 3.359375 -2.34375 Z M 3.359375 -2.34375 "/>
</g>
<g id="glyph-4-0">
<path d="M 0.28125 -5.78125 L 0.640625 -5.40625 L 0.8125 -5.46875 C 0.953125 -5.515625 1.21875 -5.53125 1.640625 -5.53125 L 8.375 -5.53125 C 8.421875 -5.53125 8.4375 -5.546875 8.453125 -5.578125 C 8.453125 -5.59375 8.4375 -5.640625 8.390625 -5.671875 L 7.734375 -6.3125 L 7.21875 -5.765625 L 4.65625 -5.765625 L 4.78125 -5.921875 C 4.875 -6 4.890625 -6.109375 4.875 -6.234375 C 4.859375 -6.359375 4.8125 -6.453125 4.734375 -6.53125 C 4.640625 -6.609375 4.5 -6.6875 4.28125 -6.78125 C 4.046875 -6.890625 3.828125 -6.96875 3.625 -7.03125 L 3.578125 -6.9375 C 3.796875 -6.78125 3.953125 -6.640625 4.03125 -6.515625 C 4.109375 -6.375 4.1875 -6.25 4.234375 -6.109375 C 4.28125 -5.953125 4.296875 -5.875 4.3125 -5.84375 C 4.3125 -5.84375 4.34375 -5.8125 4.375 -5.765625 L 1.15625 -5.765625 Z M 7.390625 -2.921875 L 7.078125 -2.5 L 1.734375 -2.5 L 1.078125 -2.828125 L 1.109375 -1.375 L 1.109375 0.625 L 1.078125 1.671875 C 1.296875 1.609375 1.484375 1.515625 1.625 1.421875 L 1.625 -2.296875 L 7.1875 -2.296875 L 7.1875 0.546875 C 7.1875 0.625 7.15625 0.6875 7.09375 0.734375 C 7.03125 0.796875 6.90625 0.8125 6.671875 0.78125 C 6.453125 0.75 6.140625 0.6875 5.75 0.609375 L 5.734375 0.734375 C 6 0.828125 6.1875 0.90625 6.328125 0.953125 C 6.46875 1 6.5625 1.0625 6.625 1.15625 C 6.671875 1.21875 6.71875 1.3125 6.734375 1.390625 C 6.75 1.46875 6.765625 1.546875 6.78125 1.640625 C 7.03125 1.578125 7.234375 1.484375 7.390625 1.375 C 7.546875 1.25 7.65625 1.15625 7.6875 1.0625 C 7.71875 0.96875 7.734375 0.84375 7.734375 0.703125 L 7.734375 -2.171875 L 7.953125 -2.359375 C 8 -2.40625 8.015625 -2.4375 8.03125 -2.453125 C 8.03125 -2.46875 7.984375 -2.515625 7.890625 -2.578125 Z M 6.375 -4.46875 L 6.5625 -4.640625 C 6.625 -4.6875 6.65625 -4.703125 6.640625 -4.734375 C 6.640625 -4.75 6.609375 -4.78125 6.5625 -4.8125 L 6.015625 -5.171875 L 5.765625 -4.828125 L 2.9375 -4.828125 L 2.25 -5.171875 L 2.296875 -4.359375 L 2.296875 -3.578125 L 2.265625 -2.890625 C 2.53125 -2.96875 2.734375 -3.046875 2.828125 -3.140625 L 2.828125 -3.390625 L 5.8125 -3.390625 L 5.8125 -2.984375 C 6.109375 -3.0625 6.265625 -3.125 6.296875 -3.125 C 6.3125 -3.140625 6.359375 -3.171875 6.421875 -3.1875 L 6.375 -3.6875 Z M 2.828125 -3.5625 L 2.828125 -4.625 L 5.8125 -4.625 L 5.8125 -3.5625 Z M 5.328125 -1.53125 L 3.296875 -1.53125 L 2.703125 -1.890625 L 2.734375 -1.109375 L 2.734375 -0.25 L 2.703125 0.546875 C 2.9375 0.484375 3.109375 0.390625 3.234375 0.3125 L 3.234375 -0.140625 L 5.4375 -0.140625 L 5.4375 0.265625 C 5.734375 0.171875 5.890625 0.109375 5.90625 0.109375 C 5.9375 0.09375 5.953125 0.078125 6 0.046875 L 5.953125 -0.484375 L 5.953125 -1.21875 L 6.125 -1.390625 C 6.1875 -1.453125 6.203125 -1.484375 6.203125 -1.5 C 6.203125 -1.515625 6.171875 -1.546875 6.09375 -1.609375 L 5.578125 -1.921875 Z M 3.234375 -0.328125 L 3.234375 -1.34375 L 5.4375 -1.34375 L 5.4375 -0.328125 Z M 3.234375 -0.328125 "/>
</g>
<g id="glyph-4-1">
<path d="M 2.453125 -6.796875 L 2.34375 -6.3125 C 2.296875 -6.1875 2.21875 -5.9375 2.09375 -5.5625 C 1.9375 -5.1875 1.84375 -4.90625 1.75 -4.6875 C 1.65625 -4.453125 1.53125 -4.171875 1.375 -3.828125 C 1.203125 -3.5 1.078125 -3.28125 1.03125 -3.171875 C 0.953125 -3.046875 0.75 -2.71875 0.390625 -2.171875 L 0.5 -2.09375 C 0.703125 -2.328125 0.859375 -2.515625 1 -2.6875 C 1.140625 -2.859375 1.265625 -3.0625 1.421875 -3.3125 C 1.578125 -3.5625 1.703125 -3.765625 1.8125 -3.9375 L 1.8125 -0.078125 L 1.75 1.515625 C 1.84375 1.5 1.9375 1.453125 2.0625 1.390625 C 2.171875 1.328125 2.28125 1.265625 2.359375 1.203125 L 2.296875 -0.09375 L 2.296875 -4.03125 L 2.46875 -4.15625 C 2.515625 -4.1875 2.53125 -4.21875 2.53125 -4.21875 C 2.546875 -4.234375 2.515625 -4.265625 2.453125 -4.3125 L 2.15625 -4.515625 L 2.46875 -5.140625 C 2.578125 -5.359375 2.734375 -5.703125 2.9375 -6.140625 L 3.1875 -6.234375 C 3.25 -6.25 3.28125 -6.265625 3.28125 -6.296875 C 3.28125 -6.328125 3.265625 -6.359375 3.203125 -6.375 Z M 3.453125 -6 L 3.5 -4.75 L 3.5 -0.171875 C 3.5 -0.03125 3.484375 0.078125 3.46875 0.125 C 3.46875 0.1875 3.4375 0.234375 3.40625 0.28125 C 3.375 0.328125 3.296875 0.375 3.1875 0.453125 L 3.71875 1 L 3.984375 0.65625 C 4.046875 0.578125 4.21875 0.40625 4.46875 0.15625 C 4.734375 -0.09375 5.1875 -0.484375 5.84375 -0.984375 L 5.765625 -1.109375 C 5.140625 -0.75 4.546875 -0.390625 3.984375 -0.03125 L 3.984375 -3.25 L 5.65625 -3.25 L 5.71875 -2.796875 C 5.765625 -2.453125 5.84375 -2.046875 5.96875 -1.546875 C 6.078125 -1.046875 6.265625 -0.59375 6.53125 -0.171875 C 6.796875 0.25 7.0625 0.578125 7.3125 0.8125 C 7.5625 1.03125 7.84375 1.171875 8.140625 1.203125 C 8.3125 1.21875 8.4375 1.203125 8.515625 1.140625 C 8.609375 1.078125 8.640625 1.03125 8.65625 1.015625 C 8.65625 0.984375 8.625 0.921875 8.5625 0.84375 C 8.515625 0.765625 8.46875 0.671875 8.421875 0.546875 C 8.375 0.421875 8.359375 0.296875 8.328125 0.15625 C 8.3125 0.03125 8.3125 -0.1875 8.3125 -0.484375 C 8.328125 -0.78125 8.359375 -0.984375 8.375 -1.078125 C 8.375 -1.1875 8.390625 -1.3125 8.421875 -1.421875 L 8.265625 -1.46875 C 8.171875 -1.046875 8.109375 -0.75 8.078125 -0.578125 L 7.984375 -0.03125 L 7.921875 0.28125 C 7.90625 0.375 7.859375 0.4375 7.828125 0.453125 C 7.78125 0.484375 7.671875 0.40625 7.546875 0.28125 C 7.40625 0.140625 7.296875 0.03125 7.203125 -0.09375 C 7.109375 -0.203125 7 -0.359375 6.890625 -0.578125 C 6.765625 -0.796875 6.671875 -0.96875 6.625 -1.109375 C 6.5625 -1.265625 6.5 -1.40625 6.46875 -1.578125 C 6.421875 -1.75 6.359375 -1.9375 6.3125 -2.140625 C 6.265625 -2.34375 6.234375 -2.515625 6.203125 -2.703125 C 6.1875 -2.859375 6.171875 -3.046875 6.15625 -3.25 L 8.375 -3.25 C 8.4375 -3.25 8.484375 -3.265625 8.5 -3.28125 C 8.515625 -3.3125 8.484375 -3.359375 8.390625 -3.4375 L 7.78125 -3.984375 L 7.34375 -3.46875 L 6.125 -3.46875 L 6.09375 -4.078125 C 6.078125 -4.265625 6.078125 -4.515625 6.0625 -4.84375 C 6.0625 -5.140625 6.0625 -5.46875 6.0625 -5.8125 C 6.484375 -5.90625 6.921875 -6 7.359375 -6.109375 L 7.6875 -6.0625 C 7.796875 -6.0625 7.84375 -6.0625 7.859375 -6.0625 C 7.859375 -6.078125 7.84375 -6.125 7.796875 -6.1875 L 7.234375 -6.78125 C 6.96875 -6.640625 6.578125 -6.46875 6.046875 -6.25 C 5.515625 -6.046875 4.859375 -5.84375 4.09375 -5.65625 Z M 3.984375 -3.453125 L 3.984375 -5.421875 L 4.328125 -5.484375 L 5.046875 -5.609375 C 5.140625 -5.640625 5.3125 -5.65625 5.546875 -5.703125 L 5.578125 -4.84375 C 5.578125 -4.65625 5.59375 -4.1875 5.625 -3.453125 Z M 5.03125 -0.015625 C 5.1875 0.15625 5.3125 0.3125 5.375 0.40625 C 5.4375 0.5 5.484375 0.609375 5.53125 0.71875 C 5.578125 0.8125 5.609375 0.921875 5.640625 1.0625 C 5.65625 1.203125 5.6875 1.28125 5.703125 1.328125 C 5.703125 1.375 5.734375 1.40625 5.765625 1.4375 C 5.84375 1.5 5.9375 1.453125 6.0625 1.328125 C 6.171875 1.203125 6.234375 1.078125 6.234375 0.96875 C 6.234375 0.859375 6.171875 0.734375 6.046875 0.59375 C 5.9375 0.4375 5.609375 0.203125 5.078125 -0.09375 Z M 5.03125 -0.015625 "/>
</g>
<g id="glyph-4-2">
<path d="M 4.484375 -4.953125 L 8.234375 -4.953125 C 8.296875 -4.953125 8.328125 -4.953125 8.328125 -4.984375 C 8.34375 -5 8.328125 -5.015625 8.296875 -5.046875 L 7.625 -5.671875 L 7.203125 -5.15625 L 5.25 -5.15625 C 5.609375 -5.515625 5.984375 -5.875 6.359375 -6.25 L 6.59375 -6.28125 C 6.640625 -6.296875 6.671875 -6.296875 6.6875 -6.3125 C 6.703125 -6.34375 6.65625 -6.390625 6.5625 -6.453125 L 6.109375 -6.78125 C 6.015625 -6.84375 5.953125 -6.890625 5.953125 -6.890625 L 5.875 -6.703125 L 5.71875 -6.34375 C 5.65625 -6.203125 5.546875 -6.03125 5.4375 -5.828125 C 5.3125 -5.625 5.171875 -5.40625 5.046875 -5.15625 L 3.796875 -5.15625 C 3.96875 -5.375 4.046875 -5.546875 4.046875 -5.671875 C 4.03125 -5.8125 3.953125 -5.96875 3.8125 -6.140625 C 3.671875 -6.328125 3.296875 -6.5625 2.703125 -6.84375 L 2.65625 -6.734375 L 3 -6.34375 C 3.15625 -6.1875 3.28125 -5.96875 3.390625 -5.6875 C 3.484375 -5.421875 3.5625 -5.234375 3.59375 -5.15625 L 1.515625 -5.15625 L 0.75 -5.203125 L 1.078125 -4.78125 L 1.28125 -4.875 C 1.375 -4.921875 1.5625 -4.953125 1.90625 -4.953125 L 3.859375 -4.953125 L 3.8125 -4.6875 C 3.78125 -4.453125 3.75 -4.28125 3.71875 -4.15625 C 3.6875 -4.046875 3.65625 -3.9375 3.625 -3.828125 L 2.046875 -3.828125 L 1.28125 -3.859375 L 1.65625 -3.453125 L 1.8125 -3.53125 C 1.84375 -3.546875 1.921875 -3.5625 2.046875 -3.578125 C 2.1875 -3.59375 2.28125 -3.59375 2.359375 -3.59375 L 3.578125 -3.59375 C 3.453125 -3.1875 3.359375 -2.921875 3.3125 -2.796875 C 3.265625 -2.671875 3.21875 -2.5625 3.171875 -2.46875 L 1.296875 -2.46875 L 0.34375 -2.515625 L 0.703125 -2.09375 L 0.890625 -2.171875 C 1.015625 -2.234375 1.265625 -2.265625 1.625 -2.265625 L 3.078125 -2.265625 C 2.640625 -1.328125 2.15625 -0.625 1.609375 -0.15625 C 1.046875 0.296875 0.609375 0.640625 0.265625 0.890625 L 0.328125 1.015625 C 0.84375 0.71875 1.171875 0.5 1.359375 0.375 C 1.53125 0.25 1.734375 0.09375 1.96875 -0.09375 C 2.171875 -0.28125 2.484375 -0.59375 2.875 -1.03125 L 3.1875 -0.6875 C 3.3125 -0.75 3.453125 -0.796875 3.59375 -0.8125 C 3.75 -0.828125 3.875 -0.84375 4 -0.84375 L 4.84375 -0.84375 L 4.84375 0.90625 L 2.390625 0.90625 L 1.53125 0.875 L 1.859375 1.234375 L 2.03125 1.15625 C 2.109375 1.125 2.328125 1.109375 2.703125 1.109375 L 8.515625 1.109375 C 8.5625 1.109375 8.59375 1.09375 8.59375 1.078125 C 8.609375 1.046875 8.578125 1.015625 8.515625 0.9375 L 7.953125 0.34375 L 7.46875 0.90625 L 5.4375 0.90625 L 5.4375 -0.84375 L 7.5 -0.84375 C 7.546875 -0.84375 7.578125 -0.84375 7.578125 -0.859375 C 7.59375 -0.875 7.578125 -0.90625 7.546875 -0.9375 L 6.9375 -1.515625 L 6.53125 -1.046875 L 3.40625 -1.046875 L 2.921875 -1.078125 C 3.03125 -1.21875 3.171875 -1.421875 3.296875 -1.640625 C 3.4375 -1.875 3.5625 -2.078125 3.65625 -2.265625 L 8.484375 -2.265625 C 8.578125 -2.265625 8.625 -2.28125 8.625 -2.296875 C 8.640625 -2.328125 8.609375 -2.359375 8.546875 -2.421875 L 7.921875 -2.96875 L 7.46875 -2.46875 L 3.75 -2.46875 C 3.890625 -2.84375 3.984375 -3.09375 4.03125 -3.21875 C 4.0625 -3.34375 4.109375 -3.46875 4.15625 -3.59375 L 7.484375 -3.59375 C 7.5625 -3.59375 7.609375 -3.609375 7.609375 -3.640625 C 7.625 -3.65625 7.609375 -3.6875 7.5625 -3.71875 L 6.9375 -4.3125 L 6.53125 -3.8125 L 4.21875 -3.828125 L 4.3125 -4.15625 C 4.328125 -4.1875 4.390625 -4.453125 4.484375 -4.953125 Z M 4.484375 -4.953125 "/>
</g>
<g id="glyph-5-0">
<path d="M 3.59375 7.65625 L 1.96875 4.15625 C 1.90625 4.015625 1.859375 4 1.8125 4 C 1.765625 4 1.75 4.015625 1.6875 4.078125 L 0.78125 4.734375 C 0.703125 4.78125 0.671875 4.828125 0.671875 4.890625 C 0.671875 4.921875 0.6875 5 0.78125 5 C 0.828125 5 0.875 4.953125 1.078125 4.796875 C 1.15625 4.75 1.28125 4.65625 1.375 4.578125 L 3.1875 8.46875 C 3.265625 8.625 3.3125 8.625 3.390625 8.625 C 3.53125 8.625 3.5625 8.59375 3.640625 8.4375 L 7.828125 -0.015625 C 7.859375 -0.0625 7.890625 -0.140625 7.890625 -0.1875 C 7.890625 -0.3125 7.796875 -0.390625 7.703125 -0.390625 C 7.625 -0.390625 7.5625 -0.34375 7.484375 -0.1875 Z M 3.59375 7.65625 "/>
</g>
<g id="glyph-5-1">
<path d="M 6.078125 -2.0625 C 6.234375 -2.0625 6.40625 -2.0625 6.40625 -2.265625 C 6.40625 -2.453125 6.234375 -2.453125 6.078125 -2.453125 L 1.109375 -2.453125 C 0.953125 -2.453125 0.78125 -2.453125 0.78125 -2.265625 C 0.78125 -2.0625 0.9375 -2.0625 1.109375 -2.0625 Z M 6.078125 -2.0625 "/>
</g>
</g>
</defs>
<path fill="none" stroke-width="0.3985" stroke-linecap="butt" stroke-linejoin="miter" stroke="rgb(0%, 0%, 0%)" stroke-opacity="1" stroke-miterlimit="10" d="M 0.00180518 -0.000107572 L 370.4074 -0.000107572 " transform="matrix(0.999169, 0, 0, -0.999169, 25.904446, 155.031143)"/>
<path fill-rule="nonzero" fill="rgb(0%, 0%, 0%)" fill-opacity="1" stroke-width="0.3985" stroke-linecap="butt" stroke-linejoin="miter" stroke="rgb(0%, 0%, 0%)" stroke-opacity="1" stroke-miterlimit="10" d="M 4.213671 -0.000107572 L 0.644297 1.34476 L 1.817147 -0.000107572 L 0.644297 -1.344976 Z M 4.213671 -0.000107572 " transform="matrix(0.999169, 0, 0, -0.999169, 394.285926, 155.031143)"/>
<g fill="rgb(0%, 0%, 0%)" fill-opacity="1">
<use xlink:href="#glyph-0-0" x="402.759885" y="156.967531"/>
</g>
<path fill="none" stroke-width="0.3985" stroke-linecap="butt" stroke-linejoin="miter" stroke="rgb(0%, 0%, 0%)" stroke-opacity="1" stroke-miterlimit="10" d="M 0.00180518 -0.000107572 L 0.00180518 134.275586 " transform="matrix(0.999169, 0, 0, -0.999169, 25.904446, 155.031143)"/>
<path fill-rule="nonzero" fill="rgb(0%, 0%, 0%)" fill-opacity="1" stroke-width="0.3985" stroke-linecap="butt" stroke-linejoin="miter" stroke="rgb(0%, 0%, 0%)" stroke-opacity="1" stroke-miterlimit="10" d="M 4.215816 -0.00180518 L 0.642533 1.346972 L 1.819293 -0.00180518 L 0.642533 -1.346673 Z M 4.215816 -0.00180518 " transform="matrix(0, -0.999169, -0.999169, 0, 25.904446, 22.583405)"/>
<g fill="rgb(0%, 0%, 0%)" fill-opacity="1">
<use xlink:href="#glyph-0-1" x="23.467474" y="12.360851"/>
</g>
<path fill="none" stroke-width="0.3985" stroke-linecap="butt" stroke-linejoin="miter" stroke="rgb(0%, 0%, 0%)" stroke-opacity="1" stroke-miterlimit="10" d="M 60.235474 1.884272 L 60.235474 -1.884487 " transform="matrix(0.999169, 0, 0, -0.999169, 25.904446, 155.031143)"/>
<g fill="rgb(0%, 0%, 0%)" fill-opacity="1">
<use xlink:href="#glyph-1-0" x="84.265887" y="163.464126"/>
</g>
<path fill="none" stroke-width="0.38" stroke-linecap="butt" stroke-linejoin="miter" stroke="rgb(0%, 0%, 0%)" stroke-opacity="1" stroke-miterlimit="10" d="M -44.879262 -80.891505 L -41.227789 -80.891505 " transform="matrix(0.999169, 0, 0, -0.999169, 129.107577, 84.074182)"/>
<g fill="rgb(0%, 0%, 0%)" fill-opacity="1">
<use xlink:href="#glyph-1-1" x="84.265887" y="170.199522"/>
</g>
<path fill="none" stroke-width="0.3985" stroke-linecap="butt" stroke-linejoin="miter" stroke="rgb(0%, 0%, 0%)" stroke-opacity="1" stroke-miterlimit="10" d="M 120.473053 1.884272 L 120.473053 -1.884487 " transform="matrix(0.999169, 0, 0, -0.999169, 25.904446, 155.031143)"/>
<g fill="rgb(0%, 0%, 0%)" fill-opacity="1">
<use xlink:href="#glyph-1-0" x="144.452809" y="163.464126"/>
</g>
<path fill="none" stroke-width="0.38" stroke-linecap="butt" stroke-linejoin="miter" stroke="rgb(0%, 0%, 0%)" stroke-opacity="1" stroke-miterlimit="10" d="M -44.878683 -80.891505 L -41.22721 -80.891505 " transform="matrix(0.999169, 0, 0, -0.999169, 189.294498, 84.074182)"/>
<g fill="rgb(0%, 0%, 0%)" fill-opacity="1">
<use xlink:href="#glyph-1-2" x="144.452809" y="170.199522"/>
</g>
<path fill="none" stroke-width="0.3985" stroke-linecap="butt" stroke-linejoin="miter" stroke="rgb(0%, 0%, 0%)" stroke-opacity="1" stroke-miterlimit="10" d="M 240.948211 1.884272 L 240.948211 -1.884487 " transform="matrix(0.999169, 0, 0, -0.999169, 25.904446, 155.031143)"/>
<g fill="rgb(0%, 0%, 0%)" fill-opacity="1">
<use xlink:href="#glyph-2-0" x="264.341056" y="165.410506"/>
</g>
<path fill="none" stroke-width="0.3985" stroke-linecap="butt" stroke-linejoin="miter" stroke="rgb(0%, 0%, 0%)" stroke-opacity="1" stroke-miterlimit="10" d="M 1.925279 26.92853 L -1.925578 26.92853 " transform="matrix(0.999169, 0, 0, -0.999169, 25.904446, 155.031143)"/>
<g fill="rgb(0%, 0%, 0%)" fill-opacity="1">
<use xlink:href="#glyph-2-0" x="15.662968" y="131.022119"/>
</g>
<path fill="none" stroke-width="0.3985" stroke-linecap="butt" stroke-linejoin="miter" stroke="rgb(0%, 0%, 0%)" stroke-opacity="1" stroke-miterlimit="10" d="M 1.925279 53.857167 L -1.925578 53.857167 " transform="matrix(0.999169, 0, 0, -0.999169, 25.904446, 155.031143)"/>
<g fill="rgb(0%, 0%, 0%)" fill-opacity="1">
<use xlink:href="#glyph-2-1" x="15.662968" y="104.114507"/>
</g>
<path fill="none" stroke-width="0.3985" stroke-linecap="butt" stroke-linejoin="miter" stroke="rgb(0%, 0%, 0%)" stroke-opacity="1" stroke-miterlimit="10" d="M 1.925279 80.789714 L -1.925578 80.789714 " transform="matrix(0.999169, 0, 0, -0.999169, 25.904446, 155.031143)"/>
<g fill="rgb(0%, 0%, 0%)" fill-opacity="1">
<use xlink:href="#glyph-2-2" x="15.662968" y="77.207895"/>
</g>
<path fill="none" stroke-width="0.3985" stroke-linecap="butt" stroke-linejoin="miter" stroke="rgb(0%, 0%, 0%)" stroke-opacity="1" stroke-miterlimit="10" d="M 1.925279 107.718351 L -1.925578 107.718351 " transform="matrix(0.999169, 0, 0, -0.999169, 25.904446, 155.031143)"/>
<g fill="rgb(0%, 0%, 0%)" fill-opacity="1">
<use xlink:href="#glyph-2-3" x="15.662968" y="50.300283"/>
</g>
<path fill-rule="nonzero" fill="rgb(39.99939%, 0%, 39.99939%)" fill-opacity="0.13" stroke-width="0.3985" stroke-linecap="butt" stroke-linejoin="miter" stroke="rgb(39.99939%, 0%, 39.99939%)" stroke-opacity="1" stroke-miterlimit="10" d="M 52.815243 95.91166 L 52.815243 122.840298 L 67.659615 122.840298 L 67.659615 95.91166 Z M 52.815243 95.91166 " transform="matrix(0.999169, 0, 0, -0.999169, 25.904446, 155.031143)"/>
<path fill="none" stroke-width="0.3985" stroke-linecap="butt" stroke-linejoin="miter" stroke="rgb(39.99939%, 0%, 39.99939%)" stroke-opacity="1" stroke-dasharray="0.3985 0.99628" stroke-miterlimit="10" d="M 60.235474 107.718351 L 60.235474 -0.000107572 " transform="matrix(0.999169, 0, 0, -0.999169, 25.904446, 155.031143)"/>
<path fill-rule="nonzero" fill="rgb(39.99939%, 0%, 39.99939%)" fill-opacity="1" d="M 87.585938 47.402344 C 87.585938 46.578125 86.914062 45.910156 86.089844 45.910156 C 85.265625 45.910156 84.597656 46.578125 84.597656 47.402344 C 84.597656 48.226562 85.265625 48.894531 86.089844 48.894531 C 86.914062 48.894531 87.585938 48.226562 87.585938 47.402344 Z M 87.585938 47.402344 "/>
<path fill-rule="nonzero" fill="rgb(84.999084%, 42.498779%, 0%)" fill-opacity="0.13" stroke-width="0.3985" stroke-linecap="butt" stroke-linejoin="miter" stroke="rgb(84.999084%, 42.498779%, 0%)" stroke-opacity="1" stroke-miterlimit="10" d="M 92.043168 43.571272 L 92.043168 70.499909 L 148.906848 70.499909 L 148.906848 43.571272 Z M 92.043168 43.571272 " transform="matrix(0.999169, 0, 0, -0.999169, 25.904446, 155.031143)"/>
<path fill="none" stroke-width="0.3985" stroke-linecap="butt" stroke-linejoin="miter" stroke="rgb(84.999084%, 42.498779%, 0%)" stroke-opacity="1" stroke-dasharray="0.3985 0.99628" stroke-miterlimit="10" d="M 120.473053 53.857167 L 120.473053 -0.000107572 " transform="matrix(0.999169, 0, 0, -0.999169, 25.904446, 155.031143)"/>
<path fill-rule="nonzero" fill="rgb(84.999084%, 42.498779%, 0%)" fill-opacity="1" d="M 147.769531 101.21875 C 147.769531 100.390625 147.101562 99.722656 146.277344 99.722656 C 145.453125 99.722656 144.785156 100.390625 144.785156 101.21875 C 144.785156 102.042969 145.453125 102.710938 146.277344 102.710938 C 147.101562 102.710938 147.769531 102.042969 147.769531 101.21875 Z M 147.769531 101.21875 "/>
<path fill-rule="nonzero" fill="rgb(0%, 0%, 69.999695%)" fill-opacity="0.13" stroke-width="0.3985" stroke-linecap="butt" stroke-linejoin="miter" stroke="rgb(0%, 0%, 69.999695%)" stroke-opacity="1" stroke-miterlimit="10" d="M 141.14649 19.043068 L 141.14649 45.971705 L 340.749931 45.971705 L 340.749931 19.043068 Z M 141.14649 19.043068 " transform="matrix(0.999169, 0, 0, -0.999169, 25.904446, 155.031143)"/>
<path fill="none" stroke-width="0.3985" stroke-linecap="butt" stroke-linejoin="miter" stroke="rgb(0%, 0%, 69.999695%)" stroke-opacity="1" stroke-dasharray="0.3985 0.99628" stroke-miterlimit="10" d="M 240.948211 26.92853 L 240.948211 -0.000107572 " transform="matrix(0.999169, 0, 0, -0.999169, 25.904446, 155.031143)"/>
<path fill-rule="nonzero" fill="rgb(0%, 0%, 69.999695%)" fill-opacity="1" d="M 268.144531 128.125 C 268.144531 127.300781 267.476562 126.632812 266.652344 126.632812 C 265.828125 126.632812 265.160156 127.300781 265.160156 128.125 C 265.160156 128.949219 265.828125 129.617188 266.652344 129.617188 C 267.476562 129.617188 268.144531 128.949219 268.144531 128.125 Z M 268.144531 128.125 "/>
<path fill="none" stroke-width="0.79701" stroke-linecap="butt" stroke-linejoin="miter" stroke="rgb(0%, 0%, 0%)" stroke-opacity="1" stroke-miterlimit="10" d="M 48.190304 134.646988 L 51.708855 125.490939 L 55.227405 117.496011 L 58.745955 110.455001 L 62.264505 104.219348 L 65.783055 98.640491 L 69.301605 93.632422 L 72.816246 89.10522 L 76.334796 84.996336 L 79.853346 81.254944 L 83.371896 77.830222 L 86.890447 74.679165 L 90.408997 71.770497 L 93.927547 69.080761 L 97.446097 66.586499 L 100.964647 64.268166 L 104.483197 62.102303 L 108.001748 60.077182 L 111.520298 58.181074 L 115.038848 56.402252 L 118.557398 54.728985 L 122.075948 53.157366 L 125.594498 51.667847 L 129.113049 50.256517 L 132.631599 48.923378 L 136.150149 47.660609 L 139.668699 46.460393 L 143.187249 45.318818 L 146.705799 44.228068 L 150.22435 43.19596 L 153.7429 42.206856 L 157.26145 41.260757 L 160.78 40.357663 L 164.29855 39.493663 L 167.8171 38.664849 L 171.33565 37.871221 L 174.854201 37.108868 L 178.372751 36.377792 L 181.891301 35.674082 L 185.409851 34.997738 L 188.928401 34.344851 L 192.446951 33.715422 L 195.965502 33.109449 L 199.484052 32.526934 L 203.002602 31.963966 L 206.521152 31.416636 L 210.039702 30.892763 L 213.558252 30.380618 L 217.076803 29.888021 L 220.595353 29.411062 L 224.113903 28.953651 L 227.632453 28.504058 L 231.151003 28.070104 L 234.669553 27.647878 L 238.188104 27.23738 L 241.706654 26.842521 L 245.225204 26.45939 L 248.743754 26.080168 L 252.262304 25.720494 L 255.780854 25.36473 L 259.299405 25.020694 L 266.336505 24.363898 L 269.855055 24.043319 L 273.373605 23.734468 L 276.888246 23.433436 L 280.406796 23.136314 L 283.925346 22.850921 L 287.443896 22.573346 L 290.962446 22.299681 L 294.480997 22.029926 L 297.999547 21.775808 L 301.518097 21.517781 L 305.036647 21.267573 L 312.073747 20.790614 L 315.592298 20.556044 L 319.110848 20.333203 L 322.629398 20.106452 L 326.147948 19.891429 L 329.666498 19.680316 L 333.185048 19.473113 L 336.703599 19.269819 L 340.222149 19.070434 L 343.740699 18.878869 L 347.259249 18.679484 L 354.296349 18.311991 L 357.8149 18.136064 L 361.33345 17.956227 " transform="matrix(0.999169, 0, 0, -0.999169, 25.904446, 155.031143)"/>
<g fill="rgb(0%, 0%, 0%)" fill-opacity="1">
<use xlink:href="#glyph-0-1" x="178.862179" y="101.196935"/>
</g>
<g fill="rgb(0%, 0%, 0%)" fill-opacity="1">
<use xlink:href="#glyph-2-4" x="186.302987" y="101.196935"/>
</g>
<g fill="rgb(0%, 0%, 0%)" fill-opacity="1">
<use xlink:href="#glyph-1-0" x="197.51266" y="97.513"/>
</g>
<path fill="none" stroke-width="0.38" stroke-linecap="butt" stroke-linejoin="miter" stroke="rgb(0%, 0%, 0%)" stroke-opacity="1" stroke-miterlimit="10" d="M -27.666969 -80.893414 L -23.495533 -80.893414 " transform="matrix(0.999169, 0, 0, -0.999169, 224.897875, 18.123056)"/>
<g fill="rgb(0%, 0%, 0%)" fill-opacity="1">
<use xlink:href="#glyph-3-0" x="197.253876" y="104.248396"/>
</g>
<path fill="none" stroke-width="0.3985" stroke-linecap="butt" stroke-linejoin="miter" stroke="rgb(0%, 0%, 69.999695%)" stroke-opacity="1" stroke-miterlimit="10" d="M 348.170163 22.104206 L 348.170163 42.906657 " transform="matrix(0.999169, 0, 0, -0.999169, 25.904446, 155.031143)"/>
<path fill-rule="nonzero" fill="rgb(0%, 0%, 69.999695%)" fill-opacity="1" stroke-width="0.3985" stroke-linecap="butt" stroke-linejoin="miter" stroke="rgb(0%, 0%, 69.999695%)" stroke-opacity="1" stroke-miterlimit="10" d="M 4.214125 -0.00142744 L 0.644751 1.34735 L 1.817601 -0.00142744 L 0.644751 -1.346296 Z M 4.214125 -0.00142744 " transform="matrix(0, 0.999169, 0.999169, 0, 373.786583, 131.226879)"/>
<path fill-rule="nonzero" fill="rgb(0%, 0%, 69.999695%)" fill-opacity="1" stroke-width="0.3985" stroke-linecap="butt" stroke-linejoin="miter" stroke="rgb(0%, 0%, 69.999695%)" stroke-opacity="1" stroke-miterlimit="10" d="M 4.215577 0.00142744 L 0.642294 1.346296 L 1.819054 0.00142744 L 0.642294 -1.34735 Z M 4.215577 0.00142744 " transform="matrix(0, -0.999169, -0.999169, 0, 373.786583, 113.876135)"/>
<g fill="rgb(0%, 0%, 69.999695%)" fill-opacity="1">
<use xlink:href="#glyph-4-0" x="377.481918" y="125.230938"/>
<use xlink:href="#glyph-4-1" x="386.474436" y="125.230938"/>
<use xlink:href="#glyph-4-2" x="395.466953" y="125.230938"/>
</g>
<g fill="rgb(0%, 0%, 69.999695%)" fill-opacity="1">
<use xlink:href="#glyph-0-2" x="407.543905" y="125.230938"/>
</g>
<path fill="none" stroke-width="0.3985" stroke-linecap="butt" stroke-linejoin="miter" stroke="rgb(0%, 0%, 69.999695%)" stroke-opacity="1" stroke-miterlimit="10" d="M 244.013259 14.003722 L 337.684883 14.003722 " transform="matrix(0.999169, 0, 0, -0.999169, 25.904446, 155.031143)"/>
<path fill-rule="nonzero" fill="rgb(0%, 0%, 69.999695%)" fill-opacity="1" stroke-width="0.3985" stroke-linecap="butt" stroke-linejoin="miter" stroke="rgb(0%, 0%, 69.999695%)" stroke-opacity="1" stroke-miterlimit="10" d="M 4.214982 -0.000332067 L 0.641699 1.344536 L 1.818458 -0.000332067 L 0.641699 -1.3452 Z M 4.214982 -0.000332067 " transform="matrix(-0.999169, 0, 0, 0.999169, 271.430228, 141.039394)"/>
<path fill-rule="nonzero" fill="rgb(0%, 0%, 69.999695%)" fill-opacity="1" stroke-width="0.3985" stroke-linecap="butt" stroke-linejoin="miter" stroke="rgb(0%, 0%, 69.999695%)" stroke-opacity="1" stroke-miterlimit="10" d="M 4.216574 0.000332067 L 0.643291 1.3452 L 1.816141 0.000332067 L 0.643291 -1.344536 Z M 4.216574 0.000332067 " transform="matrix(0.999169, 0, 0, -0.999169, 361.591619, 141.039394)"/>
<g fill="rgb(0%, 0%, 69.999695%)" fill-opacity="1">
<use xlink:href="#glyph-0-3" x="308.225542" y="150.483926"/>
</g>
<g fill="rgb(0%, 0%, 69.999695%)" fill-opacity="1">
<use xlink:href="#glyph-2-5" x="312.986581" y="150.483926"/>
<use xlink:href="#glyph-2-0" x="316.574595" y="150.483926"/>
<use xlink:href="#glyph-2-6" x="321.187757" y="150.483926"/>
</g>
<path fill="none" stroke-width="0.3985" stroke-linecap="butt" stroke-linejoin="miter" stroke="rgb(0%, 0%, 0%)" stroke-opacity="1" stroke-miterlimit="10" d="M 0.00180518 -121.890504 L 370.4074 -121.890504 " transform="matrix(0.999169, 0, 0, -0.999169, 25.904446, 155.031143)"/>
<path fill-rule="nonzero" fill="rgb(0%, 0%, 0%)" fill-opacity="1" stroke-width="0.3985" stroke-linecap="butt" stroke-linejoin="miter" stroke="rgb(0%, 0%, 0%)" stroke-opacity="1" stroke-miterlimit="10" d="M 4.213671 0.000895869 L 0.644297 1.345764 L 1.817147 0.000895869 L 0.644297 -1.343972 Z M 4.213671 0.000895869 " transform="matrix(0.999169, 0, 0, -0.999169, 394.285926, 276.821208)"/>
<g fill="rgb(0%, 0%, 0%)" fill-opacity="1">
<use xlink:href="#glyph-0-0" x="402.759885" y="278.757197"/>
</g>
<path fill="none" stroke-width="0.3985" stroke-linecap="butt" stroke-linejoin="miter" stroke="rgb(0%, 0%, 0%)" stroke-opacity="1" stroke-miterlimit="10" d="M 0.00180518 -121.890504 L 0.00180518 -25.740257 " transform="matrix(0.999169, 0, 0, -0.999169, 25.904446, 155.031143)"/>
<path fill-rule="nonzero" fill="rgb(0%, 0%, 0%)" fill-opacity="1" stroke-width="0.3985" stroke-linecap="butt" stroke-linejoin="miter" stroke="rgb(0%, 0%, 0%)" stroke-opacity="1" stroke-miterlimit="10" d="M 4.213634 -0.00180518 L 0.644261 1.346972 L 1.817111 -0.00180518 L 0.644261 -1.346673 Z M 4.213634 -0.00180518 " transform="matrix(0, -0.999169, -0.999169, 0, 25.904446, 182.467944)"/>
<g fill="rgb(0%, 0%, 0%)" fill-opacity="1">
<use xlink:href="#glyph-0-3" x="23.524427" y="172.245819"/>
</g>
<path fill="none" stroke-width="0.3985" stroke-linecap="butt" stroke-linejoin="miter" stroke="rgb(0%, 0%, 0%)" stroke-opacity="1" stroke-miterlimit="10" d="M 60.235474 -119.908388 L 60.235474 -123.872621 " transform="matrix(0.999169, 0, 0, -0.999169, 25.904446, 155.031143)"/>
<g fill="rgb(0%, 0%, 0%)" fill-opacity="1">
<use xlink:href="#glyph-1-0" x="84.265887" y="285.352709"/>
</g>
<path fill="none" stroke-width="0.38" stroke-linecap="butt" stroke-linejoin="miter" stroke="rgb(0%, 0%, 0%)" stroke-opacity="1" stroke-miterlimit="10" d="M -44.879262 -80.893549 L -41.227789 -80.893549 " transform="matrix(0.999169, 0, 0, -0.999169, 129.107577, 205.962765)"/>
<g fill="rgb(0%, 0%, 0%)" fill-opacity="1">
<use xlink:href="#glyph-1-1" x="84.265887" y="292.088105"/>
</g>
<path fill="none" stroke-width="0.3985" stroke-linecap="butt" stroke-linejoin="miter" stroke="rgb(0%, 0%, 0%)" stroke-opacity="1" stroke-miterlimit="10" d="M 120.473053 -119.908388 L 120.473053 -123.872621 " transform="matrix(0.999169, 0, 0, -0.999169, 25.904446, 155.031143)"/>
<g fill="rgb(0%, 0%, 0%)" fill-opacity="1">
<use xlink:href="#glyph-1-0" x="144.452809" y="285.352709"/>
</g>
<path fill="none" stroke-width="0.38" stroke-linecap="butt" stroke-linejoin="miter" stroke="rgb(0%, 0%, 0%)" stroke-opacity="1" stroke-miterlimit="10" d="M -44.878683 -80.893549 L -41.22721 -80.893549 " transform="matrix(0.999169, 0, 0, -0.999169, 189.294498, 205.962765)"/>
<g fill="rgb(0%, 0%, 0%)" fill-opacity="1">
<use xlink:href="#glyph-1-2" x="144.452809" y="292.088105"/>
</g>
<path fill="none" stroke-width="0.3985" stroke-linecap="butt" stroke-linejoin="miter" stroke="rgb(0%, 0%, 0%)" stroke-opacity="1" stroke-miterlimit="10" d="M 240.948211 -119.908388 L 240.948211 -123.872621 " transform="matrix(0.999169, 0, 0, -0.999169, 25.904446, 155.031143)"/>
<g fill="rgb(0%, 0%, 0%)" fill-opacity="1">
<use xlink:href="#glyph-2-0" x="264.341056" y="287.29809"/>
</g>
<path fill="none" stroke-width="0.3985" stroke-linecap="butt" stroke-linejoin="miter" stroke="rgb(0%, 0%, 0%)" stroke-opacity="1" stroke-miterlimit="10" d="M 1.925279 -102.045881 L -1.925578 -102.045881 " transform="matrix(0.999169, 0, 0, -0.999169, 25.904446, 155.031143)"/>
<g fill="rgb(0%, 0%, 0%)" fill-opacity="1">
<use xlink:href="#glyph-2-7" x="8.473949" y="259.890894"/>
</g>
<g fill="rgb(0%, 0%, 0%)" fill-opacity="1">
<use xlink:href="#glyph-0-4" x="13.095104" y="259.890894"/>
</g>
<g fill="rgb(0%, 0%, 0%)" fill-opacity="1">
<use xlink:href="#glyph-2-0" x="15.661969" y="259.890894"/>
</g>
<path fill="none" stroke-width="0.3985" stroke-linecap="butt" stroke-linejoin="miter" stroke="rgb(0%, 0%, 0%)" stroke-opacity="1" stroke-miterlimit="10" d="M 1.925279 -82.205168 L -1.925578 -82.205168 " transform="matrix(0.999169, 0, 0, -0.999169, 25.904446, 155.031143)"/>
<g fill="rgb(0%, 0%, 0%)" fill-opacity="1">
<use xlink:href="#glyph-2-7" x="8.473949" y="240.066389"/>
</g>
<g fill="rgb(0%, 0%, 0%)" fill-opacity="1">
<use xlink:href="#glyph-0-4" x="13.095104" y="240.066389"/>
</g>
<g fill="rgb(0%, 0%, 0%)" fill-opacity="1">
<use xlink:href="#glyph-2-1" x="15.661969" y="240.066389"/>
</g>
<path fill="none" stroke-width="0.3985" stroke-linecap="butt" stroke-linejoin="miter" stroke="rgb(0%, 0%, 0%)" stroke-opacity="1" stroke-miterlimit="10" d="M 1.925279 -62.360545 L -1.925578 -62.360545 " transform="matrix(0.999169, 0, 0, -0.999169, 25.904446, 155.031143)"/>
<g fill="rgb(0%, 0%, 0%)" fill-opacity="1">
<use xlink:href="#glyph-2-7" x="8.473949" y="220.239886"/>
</g>
<g fill="rgb(0%, 0%, 0%)" fill-opacity="1">
<use xlink:href="#glyph-0-4" x="13.095104" y="220.239886"/>
</g>
<g fill="rgb(0%, 0%, 0%)" fill-opacity="1">
<use xlink:href="#glyph-2-2" x="15.661969" y="220.239886"/>
</g>
<path fill="none" stroke-width="0.3985" stroke-linecap="butt" stroke-linejoin="miter" stroke="rgb(0%, 0%, 0%)" stroke-opacity="1" stroke-miterlimit="10" d="M 1.925279 -42.519832 L -1.925578 -42.519832 " transform="matrix(0.999169, 0, 0, -0.999169, 25.904446, 155.031143)"/>
<g fill="rgb(0%, 0%, 0%)" fill-opacity="1">
<use xlink:href="#glyph-2-7" x="8.473949" y="200.415381"/>
</g>
<g fill="rgb(0%, 0%, 0%)" fill-opacity="1">
<use xlink:href="#glyph-0-4" x="13.095104" y="200.415381"/>
</g>
<g fill="rgb(0%, 0%, 0%)" fill-opacity="1">
<use xlink:href="#glyph-2-3" x="15.661969" y="200.415381"/>
</g>
<path fill="none" stroke-width="1.59404" stroke-linecap="butt" stroke-linejoin="miter" stroke="rgb(0%, 0%, 0%)" stroke-opacity="1" stroke-miterlimit="10" d="M 60.235474 -121.890504 L 240.948211 -121.890504 " transform="matrix(0.999169, 0, 0, -0.999169, 25.904446, 155.031143)"/>
<path fill="none" stroke-width="0.79701" stroke-linecap="butt" stroke-linejoin="miter" stroke="rgb(0%, 0%, 0%)" stroke-opacity="1" stroke-miterlimit="10" d="M 0.00180518 -121.890504 L 4.489911 -121.859228 L 8.978018 -121.753672 L 13.466124 -121.581654 L 17.95814 -121.343174 L 22.446246 -121.034324 L 26.934352 -120.655102 L 31.422458 -120.213329 L 35.914474 -119.701184 L 40.40258 -119.122578 L 44.890686 -118.47751 L 49.378792 -117.769891 L 53.870808 -116.99581 L 58.358914 -116.155267 L 62.847021 -115.256082 L 67.335127 -114.290436 L 71.827142 -113.266147 L 76.315249 -112.179306 L 80.803355 -111.029913 L 85.291461 -109.825787 L 89.783477 -108.566928 L 94.271583 -107.245516 L 98.759689 -105.873282 L 103.247795 -104.442405 L 107.739811 -102.960704 L 112.227917 -101.42818 L 116.716024 -99.840923 L 121.20413 -98.202843 L 125.696145 -96.513938 L 130.184252 -94.78203 L 134.672358 -92.999298 L 139.160464 -91.173561 L 143.65248 -89.30482 L 148.140586 -87.389165 L 152.628692 -85.430505 L 157.116798 -83.432751 L 161.608814 -81.395901 L 166.09692 -79.316047 L 170.585026 -77.197098 L 175.073133 -75.042963 L 179.565148 -72.849734 L 184.053255 -70.621319 L 188.541361 -68.361628 L 193.029467 -66.066751 L 197.521483 -63.744508 L 202.009589 -61.38317 L 206.497695 -58.994465 L 210.985801 -56.570575 L 215.477817 -54.119319 L 219.965923 -51.640695 L 224.454029 -49.138615 L 228.942136 -46.60135 L 233.434151 -44.044537 L 237.922258 -41.456447 L 242.410364 -38.848811 L 246.89847 -36.213808 L 251.390486 -33.555348 L 255.878592 -30.87734 L 260.366698 -28.171966 L 264.854804 -25.450954 " transform="matrix(0.999169, 0, 0, -0.999169, 25.904446, 155.031143)"/>
<path fill="none" stroke-width="0.3985" stroke-linecap="butt" stroke-linejoin="miter" stroke="rgb(39.99939%, 0%, 39.99939%)" stroke-opacity="1" stroke-dasharray="0.3985 0.99628" stroke-miterlimit="10" d="M 60.235474 -121.890504 L 60.235474 -115.779955 " transform="matrix(0.999169, 0, 0, -0.999169, 25.904446, 155.031143)"/>
<path fill-rule="nonzero" fill="rgb(39.99939%, 0%, 39.99939%)" fill-opacity="1" d="M 87.683594 270.714844 C 87.683594 269.832031 86.972656 269.121094 86.089844 269.121094 C 85.210938 269.121094 84.5 269.832031 84.5 270.714844 C 84.5 271.59375 85.210938 272.304688 86.089844 272.304688 C 86.972656 272.304688 87.683594 271.59375 87.683594 270.714844 Z M 87.683594 270.714844 "/>
<path fill="none" stroke-width="0.3985" stroke-linecap="butt" stroke-linejoin="miter" stroke="rgb(84.999084%, 42.498779%, 0%)" stroke-opacity="1" stroke-dasharray="0.3985 0.99628" stroke-miterlimit="10" d="M 120.473053 -121.890504 L 120.473053 -98.476508 " transform="matrix(0.999169, 0, 0, -0.999169, 25.904446, 155.031143)"/>
<path fill-rule="nonzero" fill="rgb(84.999084%, 42.498779%, 0%)" fill-opacity="1" d="M 147.871094 253.425781 C 147.871094 252.546875 147.15625 251.835938 146.277344 251.835938 C 145.398438 251.835938 144.683594 252.546875 144.683594 253.425781 C 144.683594 254.304688 145.398438 255.019531 146.277344 255.019531 C 147.15625 255.019531 147.871094 254.304688 147.871094 253.425781 Z M 147.871094 253.425781 "/>
<path fill="none" stroke-width="0.3985" stroke-linecap="butt" stroke-linejoin="miter" stroke="rgb(0%, 0%, 69.999695%)" stroke-opacity="1" stroke-dasharray="0.3985 0.99628" stroke-miterlimit="10" d="M 240.948211 -121.890504 L 240.948211 -39.701082 " transform="matrix(0.999169, 0, 0, -0.999169, 25.904446, 155.031143)"/>
<path fill-rule="nonzero" fill="rgb(0%, 0%, 69.999695%)" fill-opacity="1" d="M 268.246094 194.699219 C 268.246094 193.820312 267.53125 193.109375 266.652344 193.109375 C 265.773438 193.109375 265.058594 193.820312 265.058594 194.699219 C 265.058594 195.582031 265.773438 196.292969 266.652344 196.292969 C 267.53125 196.292969 268.246094 195.582031 268.246094 194.699219 Z M 268.246094 194.699219 "/>
<g fill="rgb(0%, 0%, 0%)" fill-opacity="1">
<use xlink:href="#glyph-0-3" x="203.782444" y="183.641338"/>
</g>
<g fill="rgb(0%, 0%, 0%)" fill-opacity="1">
<use xlink:href="#glyph-2-5" x="208.543482" y="183.641338"/>
</g>
<g fill="rgb(0%, 0%, 0%)" fill-opacity="1">
<use xlink:href="#glyph-0-0" x="212.137492" y="183.641338"/>
</g>
<g fill="rgb(0%, 0%, 0%)" fill-opacity="1">
<use xlink:href="#glyph-2-6" x="217.376133" y="183.641338"/>
</g>
<g fill="rgb(0%, 0%, 0%)" fill-opacity="1">
<use xlink:href="#glyph-2-4" x="223.527015" y="183.641338"/>
</g>
<g fill="rgb(0%, 0%, 0%)" fill-opacity="1">
<use xlink:href="#glyph-5-0" x="233.29289" y="176.298447"/>
</g>
<path fill="none" stroke-width="0.38" stroke-linecap="butt" stroke-linejoin="miter" stroke="rgb(0%, 0%, 0%)" stroke-opacity="1" stroke-miterlimit="10" d="M -8.829387 -75.604771 L 16.492446 -75.604771 " transform="matrix(0.999169, 0, 0, -0.999169, 249.81814, 100.567459)"/>
<g fill="rgb(0%, 0%, 0%)" fill-opacity="1">
<use xlink:href="#glyph-2-0" x="240.994482" y="183.641338"/>
</g>
<g fill="rgb(0%, 0%, 0%)" fill-opacity="1">
<use xlink:href="#glyph-2-8" x="247.657937" y="183.641338"/>
</g>
<g fill="rgb(0%, 0%, 0%)" fill-opacity="1">
<use xlink:href="#glyph-0-0" x="256.912237" y="183.641338"/>
</g>
<g fill="rgb(0%, 0%, 0%)" fill-opacity="1">
<use xlink:href="#glyph-1-2" x="262.150879" y="181.060485"/>
</g>
<g fill="rgb(0%, 0%, 0%)" fill-opacity="1">
<use xlink:href="#glyph-5-1" x="268.351719" y="183.641338"/>
</g>
<g fill="rgb(0%, 0%, 0%)" fill-opacity="1">
<use xlink:href="#glyph-2-0" x="277.594029" y="183.641338"/>
</g>
<g fill="rgb(39.99939%, 0%, 39.99939%)" fill-opacity="1">
<use xlink:href="#glyph-2-7" x="66.863367" y="266.889072"/>
</g>
<g fill="rgb(39.99939%, 0%, 39.99939%)" fill-opacity="1">
<use xlink:href="#glyph-0-4" x="71.484522" y="266.889072"/>
</g>
<g fill="rgb(39.99939%, 0%, 39.99939%)" fill-opacity="1">
<use xlink:href="#glyph-2-7" x="74.051386" y="266.889072"/>
<use xlink:href="#glyph-2-2" x="78.664548" y="266.889072"/>
<use xlink:href="#glyph-2-0" x="83.277709" y="266.889072"/>
</g>
</svg>
