<?xml version="1.0" encoding="UTF-8"?>
<svg xmlns="http://www.w3.org/2000/svg" xmlns:xlink="http://www.w3.org/1999/xlink" width="380.42pt" height="195.82pt" viewBox="0 0 380.42 195.82">
<defs>
<g>
<g id="glyph-0-0">
<path d="M 4.421875 -3.625 C 4.09375 -3.5625 3.984375 -3.28125 3.984375 -3.140625 C 3.984375 -2.96875 4.109375 -2.828125 4.34375 -2.828125 C 4.59375 -2.828125 4.828125 -3.03125 4.828125 -3.34375 C 4.828125 -3.765625 4.390625 -3.96875 3.96875 -3.96875 C 3.421875 -3.96875 3.109375 -3.5 3 -3.3125 C 2.828125 -3.75 2.4375 -3.96875 2 -3.96875 C 1.046875 -3.96875 0.515625 -2.828125 0.515625 -2.59375 C 0.515625 -2.5 0.578125 -2.484375 0.640625 -2.484375 C 0.734375 -2.484375 0.75 -2.53125 0.765625 -2.578125 C 1.046875 -3.46875 1.640625 -3.75 1.984375 -3.75 C 2.25 -3.75 2.484375 -3.578125 2.484375 -3.15625 C 2.484375 -2.828125 2.09375 -1.390625 1.96875 -0.96875 C 1.90625 -0.6875 1.640625 -0.125 1.140625 -0.125 C 0.96875 -0.125 0.765625 -0.1875 0.6875 -0.25 C 0.921875 -0.28125 1.109375 -0.5 1.109375 -0.734375 C 1.109375 -0.953125 0.9375 -1.046875 0.765625 -1.046875 C 0.5 -1.046875 0.265625 -0.828125 0.265625 -0.515625 C 0.265625 -0.078125 0.75 0.09375 1.125 0.09375 C 1.65625 0.09375 1.953125 -0.328125 2.09375 -0.578125 C 2.3125 0.015625 2.84375 0.09375 3.09375 0.09375 C 4.0625 0.09375 4.578125 -1.0625 4.578125 -1.28125 C 4.578125 -1.328125 4.546875 -1.390625 4.453125 -1.390625 C 4.359375 -1.390625 4.34375 -1.359375 4.296875 -1.21875 C 4.109375 -0.578125 3.578125 -0.125 3.125 -0.125 C 2.859375 -0.125 2.609375 -0.28125 2.609375 -0.71875 C 2.609375 -0.921875 2.734375 -1.40625 2.828125 -1.75 C 2.859375 -1.90625 3.09375 -2.890625 3.125 -2.953125 C 3.21875 -3.265625 3.5 -3.75 3.953125 -3.75 C 4.109375 -3.75 4.28125 -3.71875 4.421875 -3.625 Z M 4.421875 -3.625 "/>
</g>
<g id="glyph-0-1">
<path d="M 4.515625 -3.453125 C 4.515625 -3.5 4.53125 -3.5625 4.53125 -3.609375 C 4.53125 -3.734375 4.453125 -3.875 4.265625 -3.875 C 4.140625 -3.875 3.984375 -3.796875 3.90625 -3.625 C 3.90625 -3.59375 3.8125 -3.21875 3.75 -3.03125 L 3.3125 -1.234375 C 3.234375 -0.96875 3.234375 -0.953125 3.21875 -0.875 C 3.203125 -0.828125 2.828125 -0.125 2.1875 -0.125 C 1.625 -0.125 1.625 -0.6875 1.625 -0.859375 C 1.625 -1.265625 1.75 -1.703125 2.125 -2.71875 C 2.203125 -2.921875 2.25 -3.046875 2.25 -3.21875 C 2.25 -3.65625 1.921875 -3.96875 1.484375 -3.96875 C 0.625 -3.96875 0.265625 -2.6875 0.265625 -2.59375 C 0.265625 -2.5 0.328125 -2.484375 0.390625 -2.484375 C 0.484375 -2.484375 0.5 -2.53125 0.53125 -2.65625 C 0.71875 -3.3125 1.078125 -3.75 1.453125 -3.75 C 1.671875 -3.75 1.671875 -3.578125 1.671875 -3.453125 C 1.671875 -3.296875 1.640625 -3.140625 1.546875 -2.921875 C 1.125 -1.8125 1.015625 -1.421875 1.015625 -1 C 1.015625 0 1.828125 0.09375 2.15625 0.09375 C 2.59375 0.09375 2.90625 -0.140625 3.078125 -0.296875 C 2.953125 0.15625 2.859375 0.5625 2.5 1.015625 C 2.234375 1.375 1.875 1.609375 1.484375 1.609375 C 1.234375 1.609375 0.9375 1.53125 0.8125 1.28125 C 1.28125 1.28125 1.34375 0.875 1.34375 0.796875 C 1.34375 0.59375 1.203125 0.46875 1 0.46875 C 0.796875 0.46875 0.5 0.640625 0.5 1.046875 C 0.5 1.515625 0.921875 1.84375 1.484375 1.84375 C 2.40625 1.84375 3.375 1.0625 3.640625 0.015625 Z M 4.515625 -3.453125 "/>
</g>
<g id="glyph-0-2">
<path d="M 1.296875 -2.015625 C 1.609375 -1.890625 1.84375 -1.890625 2.078125 -1.890625 C 2.328125 -1.890625 2.828125 -1.890625 2.828125 -2.1875 C 2.828125 -2.40625 2.59375 -2.453125 2.171875 -2.453125 C 1.96875 -2.453125 1.65625 -2.4375 1.296875 -2.28125 C 0.96875 -2.46875 0.9375 -2.703125 0.9375 -2.78125 C 0.9375 -3.28125 1.796875 -3.625 2.65625 -3.625 C 2.84375 -3.625 3.140625 -3.609375 3.515625 -3.34375 C 3.5625 -3.3125 3.609375 -3.28125 3.6875 -3.28125 C 3.765625 -3.28125 3.9375 -3.390625 3.9375 -3.546875 C 3.9375 -3.703125 3.65625 -3.84375 3.484375 -3.921875 C 3.359375 -3.984375 3.09375 -4.0625 2.75 -4.0625 C 1.65625 -4.0625 0.6875 -3.4375 0.6875 -2.78125 C 0.6875 -2.578125 0.796875 -2.328125 1.046875 -2.15625 C 0.765625 -1.984375 0.25 -1.546875 0.25 -0.953125 C 0.25 -0.28125 0.875 0.203125 1.75 0.203125 C 2.96875 0.203125 3.484375 -0.578125 3.484375 -0.75 C 3.484375 -0.796875 3.453125 -0.859375 3.375 -0.859375 C 3.328125 -0.859375 3.3125 -0.828125 3.25 -0.71875 C 3.015625 -0.34375 2.484375 -0.25 1.84375 -0.25 C 0.625 -0.25 0.5 -0.765625 0.5 -1 C 0.5 -1.328125 0.796875 -1.78125 1.296875 -2.015625 Z M 1.640625 -2.15625 C 1.828125 -2.203125 1.96875 -2.234375 2.15625 -2.234375 C 2.328125 -2.234375 2.375 -2.21875 2.5625 -2.1875 C 2.421875 -2.125 2.40625 -2.125 2.078125 -2.125 C 1.9375 -2.125 1.78125 -2.125 1.640625 -2.15625 Z M 1.640625 -2.15625 "/>
</g>
<g id="glyph-1-0">
<path d="M 2.140625 -3.796875 C 2.140625 -3.96875 2.125 -3.96875 1.9375 -3.96875 C 1.546875 -3.59375 0.9375 -3.59375 0.71875 -3.59375 L 0.71875 -3.359375 C 0.875 -3.359375 1.265625 -3.359375 1.625 -3.515625 L 1.625 -0.5 C 1.625 -0.3125 1.625 -0.234375 1.015625 -0.234375 L 0.765625 -0.234375 L 0.765625 0 C 1.09375 -0.03125 1.546875 -0.03125 1.890625 -0.03125 C 2.21875 -0.03125 2.6875 -0.03125 3.015625 0 L 3.015625 -0.234375 L 2.75 -0.234375 C 2.140625 -0.234375 2.140625 -0.3125 2.140625 -0.5 Z M 2.140625 -3.796875 "/>
</g>
<g id="glyph-1-1">
<path d="M 3.359375 -0.984375 L 3.359375 -1.21875 L 2.671875 -1.21875 L 2.671875 -3.84375 C 2.671875 -3.984375 2.671875 -4.03125 2.515625 -4.03125 C 2.40625 -4.03125 2.40625 -4.015625 2.34375 -3.9375 L 0.28125 -1.21875 L 0.28125 -0.984375 L 2.125 -0.984375 L 2.125 -0.5 C 2.125 -0.296875 2.125 -0.234375 1.625 -0.234375 L 1.453125 -0.234375 L 1.453125 0 C 1.578125 0 2.140625 -0.03125 2.40625 -0.03125 C 2.65625 -0.03125 3.21875 0 3.34375 0 L 3.34375 -0.234375 L 3.171875 -0.234375 C 2.671875 -0.234375 2.671875 -0.296875 2.671875 -0.5 L 2.671875 -0.984375 Z M 2.171875 -3.375 L 2.171875 -1.21875 L 0.53125 -1.21875 Z M 2.171875 -3.375 "/>
</g>
<g id="glyph-1-2">
<path d="M 3.21875 -1.109375 L 2.984375 -1.109375 C 2.984375 -1.03125 2.921875 -0.640625 2.828125 -0.578125 C 2.78125 -0.53125 2.296875 -0.53125 2.21875 -0.53125 L 1.109375 -0.53125 L 1.875 -1.15625 C 2.078125 -1.3125 2.609375 -1.703125 2.78125 -1.875 C 2.96875 -2.0625 3.21875 -2.359375 3.21875 -2.78125 C 3.21875 -3.53125 2.53125 -3.96875 1.734375 -3.96875 C 0.96875 -3.96875 0.4375 -3.46875 0.4375 -2.90625 C 0.4375 -2.59375 0.6875 -2.5625 0.75 -2.5625 C 0.90625 -2.5625 1.078125 -2.671875 1.078125 -2.890625 C 1.078125 -3.015625 1 -3.203125 0.734375 -3.203125 C 0.875 -3.515625 1.234375 -3.734375 1.640625 -3.734375 C 2.28125 -3.734375 2.609375 -3.265625 2.609375 -2.78125 C 2.609375 -2.359375 2.328125 -1.921875 1.90625 -1.546875 L 0.5 -0.25 C 0.4375 -0.1875 0.4375 -0.1875 0.4375 0 L 3.03125 0 Z M 3.21875 -1.109375 "/>
</g>
<g id="glyph-2-0">
<path d="M 2.734375 -5.734375 C 2.734375 -5.96875 2.71875 -5.984375 2.5 -5.984375 C 1.9375 -5.40625 1.109375 -5.40625 0.828125 -5.40625 L 0.828125 -5.125 C 1 -5.125 1.546875 -5.125 2.046875 -5.359375 L 2.046875 -0.71875 C 2.046875 -0.390625 2.015625 -0.28125 1.171875 -0.28125 L 0.890625 -0.28125 L 0.890625 0 C 1.21875 -0.03125 2.015625 -0.03125 2.375 -0.03125 C 2.75 -0.03125 3.5625 -0.03125 3.875 0 L 3.875 -0.28125 L 3.59375 -0.28125 C 2.765625 -0.28125 2.734375 -0.390625 2.734375 -0.71875 Z M 2.734375 -5.734375 "/>
</g>
<g id="glyph-2-1">
<path d="M 4.15625 -1.59375 L 3.90625 -1.59375 C 3.875 -1.46875 3.8125 -0.9375 3.6875 -0.796875 C 3.640625 -0.71875 3.015625 -0.71875 2.84375 -0.71875 L 1.234375 -0.71875 L 2.125 -1.5625 C 3.609375 -2.84375 4.15625 -3.3125 4.15625 -4.234375 C 4.15625 -5.265625 3.296875 -5.984375 2.1875 -5.984375 C 1.15625 -5.984375 0.453125 -5.171875 0.453125 -4.34375 C 0.453125 -3.90625 0.84375 -3.859375 0.921875 -3.859375 C 1.125 -3.859375 1.390625 -4 1.390625 -4.328125 C 1.390625 -4.59375 1.203125 -4.78125 0.921875 -4.78125 C 0.875 -4.78125 0.859375 -4.78125 0.8125 -4.78125 C 1.03125 -5.421875 1.609375 -5.703125 2.09375 -5.703125 C 3.015625 -5.703125 3.328125 -4.84375 3.328125 -4.234375 C 3.328125 -3.3125 2.625 -2.5625 2.203125 -2.109375 L 0.5625 -0.328125 C 0.453125 -0.21875 0.453125 -0.203125 0.453125 0 L 3.90625 0 Z M 4.15625 -1.59375 "/>
</g>
<g id="glyph-2-2">
<path d="M 2.734375 -3.15625 C 3.578125 -3.484375 3.96875 -4.125 3.96875 -4.75 C 3.96875 -5.4375 3.203125 -5.984375 2.265625 -5.984375 C 1.34375 -5.984375 0.640625 -5.453125 0.640625 -4.765625 C 0.640625 -4.46875 0.828125 -4.296875 1.09375 -4.296875 C 1.359375 -4.296875 1.546875 -4.484375 1.546875 -4.75 C 1.546875 -5.0625 1.328125 -5.203125 1.03125 -5.203125 C 1.25 -5.578125 1.8125 -5.765625 2.25 -5.765625 C 2.984375 -5.765625 3.140625 -5.171875 3.140625 -4.75 C 3.140625 -4.46875 3.078125 -4.046875 2.859375 -3.703125 C 2.578125 -3.296875 2.265625 -3.28125 2 -3.265625 C 1.78125 -3.25 1.765625 -3.25 1.6875 -3.25 C 1.609375 -3.234375 1.53125 -3.21875 1.53125 -3.125 C 1.53125 -3.015625 1.609375 -3.015625 1.765625 -3.015625 L 2.1875 -3.015625 C 2.96875 -3.015625 3.3125 -2.375 3.3125 -1.53125 C 3.3125 -0.375 2.6875 -0.046875 2.234375 -0.046875 C 2.0625 -0.046875 1.1875 -0.09375 0.796875 -0.765625 C 1.109375 -0.71875 1.359375 -0.9375 1.359375 -1.25 C 1.359375 -1.546875 1.140625 -1.734375 0.875 -1.734375 C 0.65625 -1.734375 0.390625 -1.59375 0.390625 -1.21875 C 0.390625 -0.421875 1.21875 0.203125 2.265625 0.203125 C 3.390625 0.203125 4.21875 -0.609375 4.21875 -1.53125 C 4.21875 -2.3125 3.609375 -2.96875 2.734375 -3.15625 Z M 2.734375 -3.15625 "/>
</g>
<g id="glyph-2-3">
<path d="M 0.265625 -1.765625 L 0.265625 -1.484375 L 2.71875 -1.484375 L 2.71875 -0.703125 C 2.71875 -0.375 2.6875 -0.28125 2.015625 -0.28125 L 1.8125 -0.28125 L 1.8125 0 C 2.375 -0.03125 3.015625 -0.03125 3.078125 -0.03125 C 3.125 -0.03125 3.765625 -0.03125 4.328125 0 L 4.328125 -0.28125 L 4.125 -0.28125 C 3.453125 -0.28125 3.4375 -0.375 3.4375 -0.703125 L 3.4375 -1.484375 L 4.34375 -1.484375 L 4.34375 -1.765625 L 3.4375 -1.765625 L 3.4375 -5.84375 C 3.4375 -6.015625 3.4375 -6.078125 3.265625 -6.078125 C 3.15625 -6.078125 3.140625 -6.078125 3.0625 -5.953125 Z M 0.546875 -1.765625 L 2.765625 -5.078125 L 2.765625 -1.765625 Z M 0.546875 -1.765625 "/>
</g>
<g id="glyph-2-4">
<path d="M 6.359375 -2.96875 C 6.484375 -2.96875 6.65625 -2.96875 6.65625 -3.15625 C 6.65625 -3.359375 6.453125 -3.359375 6.328125 -3.359375 L 0.84375 -3.359375 C 0.703125 -3.359375 0.515625 -3.359375 0.515625 -3.15625 C 0.515625 -2.96875 0.6875 -2.96875 0.8125 -2.96875 Z M 6.328125 -1.140625 C 6.453125 -1.140625 6.65625 -1.140625 6.65625 -1.34375 C 6.65625 -1.53125 6.484375 -1.53125 6.359375 -1.53125 L 0.8125 -1.53125 C 0.6875 -1.53125 0.515625 -1.53125 0.515625 -1.34375 C 0.515625 -1.140625 0.703125 -1.140625 0.84375 -1.140625 Z M 6.328125 -1.140625 "/>
</g>
<g id="glyph-3-0">
<path d="M 3.359375 -2.34375 C 3.15625 -2.28125 3.109375 -2.109375 3.109375 -2.015625 C 3.109375 -1.828125 3.265625 -1.796875 3.34375 -1.796875 C 3.515625 -1.796875 3.6875 -1.9375 3.6875 -2.171875 C 3.6875 -2.484375 3.34375 -2.625 3.03125 -2.625 C 2.640625 -2.625 2.40625 -2.328125 2.328125 -2.21875 C 2.25 -2.359375 2.03125 -2.625 1.578125 -2.625 C 0.890625 -2.625 0.484375 -1.921875 0.484375 -1.71875 C 0.484375 -1.6875 0.515625 -1.625 0.59375 -1.625 C 0.6875 -1.625 0.703125 -1.671875 0.71875 -1.71875 C 0.859375 -2.203125 1.265625 -2.4375 1.5625 -2.4375 C 1.859375 -2.4375 1.953125 -2.25 1.953125 -2.046875 C 1.953125 -1.96875 1.953125 -1.921875 1.890625 -1.734375 C 1.765625 -1.1875 1.625 -0.640625 1.59375 -0.5625 C 1.515625 -0.34375 1.296875 -0.140625 1.046875 -0.140625 C 1.015625 -0.140625 0.84375 -0.140625 0.703125 -0.234375 C 0.9375 -0.296875 0.96875 -0.5 0.96875 -0.546875 C 0.96875 -0.703125 0.84375 -0.78125 0.71875 -0.78125 C 0.5625 -0.78125 0.375 -0.65625 0.375 -0.40625 C 0.375 -0.0625 0.75 0.0625 1.03125 0.0625 C 1.375 0.0625 1.625 -0.171875 1.734375 -0.359375 C 1.84375 -0.109375 2.140625 0.0625 2.484375 0.0625 C 3.1875 0.0625 3.578125 -0.65625 3.578125 -0.859375 C 3.578125 -0.875 3.5625 -0.9375 3.46875 -0.9375 C 3.375 -0.9375 3.359375 -0.90625 3.34375 -0.84375 C 3.171875 -0.328125 2.75 -0.140625 2.5 -0.140625 C 2.28125 -0.140625 2.109375 -0.265625 2.109375 -0.515625 C 2.109375 -0.625 2.140625 -0.765625 2.203125 -0.96875 L 2.390625 -1.75 C 2.453125 -1.984375 2.484375 -2.09375 2.609375 -2.234375 C 2.6875 -2.328125 2.828125 -2.4375 3.015625 -2.4375 C 3.046875 -2.4375 3.234375 -2.4375 3.359375 -2.34375 Z M 3.359375 -2.34375 "/>
</g>
</g>
</defs>
<path fill="none" stroke-width="0.3985" stroke-linecap="butt" stroke-linejoin="miter" stroke="rgb(0%, 0%, 0%)" stroke-opacity="1" stroke-miterlimit="10" d="M 30.611889 -0.00187847 L 371.963563 -0.00187847 " transform="matrix(0.998478, 0, 0, -0.998478, -12.006694, 163.459062)"/>
<path fill-rule="nonzero" fill="rgb(0%, 0%, 0%)" fill-opacity="1" stroke-width="0.3985" stroke-linecap="butt" stroke-linejoin="miter" stroke="rgb(0%, 0%, 0%)" stroke-opacity="1" stroke-miterlimit="10" d="M 4.21291 -0.00187847 L 0.644979 1.34392 L 1.81864 -0.00187847 L 0.644979 -1.343765 Z M 4.21291 -0.00187847 " transform="matrix(0.998478, 0, 0, -0.998478, 357.676316, 163.459062)"/>
<g fill="rgb(0%, 0%, 0%)" fill-opacity="1">
<use xlink:href="#glyph-0-0" x="366.144764" y="165.394112"/>
</g>
<path fill="none" stroke-width="0.3985" stroke-linecap="butt" stroke-linejoin="miter" stroke="rgb(0%, 0%, 0%)" stroke-opacity="1" stroke-miterlimit="10" d="M 30.611889 -0.00187847 L 30.611889 142.781889 " transform="matrix(0.998478, 0, 0, -0.998478, -12.006694, 163.459062)"/>
<path fill-rule="nonzero" fill="rgb(0%, 0%, 0%)" fill-opacity="1" stroke-width="0.3985" stroke-linecap="butt" stroke-linejoin="miter" stroke="rgb(0%, 0%, 0%)" stroke-opacity="1" stroke-miterlimit="10" d="M 4.215376 0.00142125 L 0.643532 1.34722 L 1.817194 0.00142125 L 0.643532 -1.344377 Z M 4.215376 0.00142125 " transform="matrix(0, -0.998478, -0.998478, 0, 18.560013, 22.611303)"/>
<g fill="rgb(0%, 0%, 0%)" fill-opacity="1">
<use xlink:href="#glyph-0-1" x="16.124416" y="12.395378"/>
</g>
<path fill="none" stroke-width="0.3985" stroke-linecap="butt" stroke-linejoin="miter" stroke="rgb(0%, 0%, 0%)" stroke-opacity="1" stroke-miterlimit="10" d="M 63.779568 2.083327 L 63.779568 -2.083172 " transform="matrix(0.998478, 0, 0, -0.998478, -12.006694, 163.459062)"/>
<g fill="rgb(0%, 0%, 0%)" fill-opacity="1">
<use xlink:href="#glyph-1-0" x="49.851994" y="172.084911"/>
</g>
<path fill="none" stroke-width="0.38" stroke-linecap="butt" stroke-linejoin="miter" stroke="rgb(0%, 0%, 0%)" stroke-opacity="1" stroke-miterlimit="10" d="M -82.830432 -89.396808 L -79.176432 -89.396808 " transform="matrix(0.998478, 0, 0, -0.998478, 132.555901, 84.258813)"/>
<g fill="rgb(0%, 0%, 0%)" fill-opacity="1">
<use xlink:href="#glyph-1-1" x="49.851994" y="178.815649"/>
</g>
<path fill="none" stroke-width="0.3985" stroke-linecap="butt" stroke-linejoin="miter" stroke="rgb(0%, 0%, 0%)" stroke-opacity="1" stroke-miterlimit="10" d="M 127.560255 2.083327 L 127.560255 -2.083172 " transform="matrix(0.998478, 0, 0, -0.998478, -12.006694, 163.459062)"/>
<g fill="rgb(0%, 0%, 0%)" fill-opacity="1">
<use xlink:href="#glyph-1-0" x="113.5359" y="172.084911"/>
</g>
<path fill="none" stroke-width="0.38" stroke-linecap="butt" stroke-linejoin="miter" stroke="rgb(0%, 0%, 0%)" stroke-opacity="1" stroke-miterlimit="10" d="M -82.830745 -89.396808 L -79.176745 -89.396808 " transform="matrix(0.998478, 0, 0, -0.998478, 196.239807, 84.258813)"/>
<g fill="rgb(0%, 0%, 0%)" fill-opacity="1">
<use xlink:href="#glyph-1-2" x="113.5359" y="178.815649"/>
</g>
<path fill="none" stroke-width="0.3985" stroke-linecap="butt" stroke-linejoin="miter" stroke="rgb(0%, 0%, 0%)" stroke-opacity="1" stroke-miterlimit="10" d="M 255.121631 2.083327 L 255.121631 -2.083172 " transform="matrix(0.998478, 0, 0, -0.998478, -12.006694, 163.459062)"/>
<g fill="rgb(0%, 0%, 0%)" fill-opacity="1">
<use xlink:href="#glyph-2-0" x="240.417452" y="174.028947"/>
</g>
<path fill="none" stroke-width="0.3985" stroke-linecap="butt" stroke-linejoin="miter" stroke="rgb(0%, 0%, 0%)" stroke-opacity="1" stroke-miterlimit="10" d="M 32.399767 29.766094 L 28.831835 29.766094 " transform="matrix(0.998478, 0, 0, -0.998478, -12.006694, 163.459062)"/>
<g fill="rgb(0%, 0%, 0%)" fill-opacity="1">
<use xlink:href="#glyph-2-0" x="8.468089" y="136.635957"/>
</g>
<path fill="none" stroke-width="0.3985" stroke-linecap="butt" stroke-linejoin="miter" stroke="rgb(0%, 0%, 0%)" stroke-opacity="1" stroke-miterlimit="10" d="M 32.399767 59.530154 L 28.831835 59.530154 " transform="matrix(0.998478, 0, 0, -0.998478, -12.006694, 163.459062)"/>
<g fill="rgb(0%, 0%, 0%)" fill-opacity="1">
<use xlink:href="#glyph-2-1" x="8.468089" y="106.917267"/>
</g>
<path fill="none" stroke-width="0.3985" stroke-linecap="butt" stroke-linejoin="miter" stroke="rgb(0%, 0%, 0%)" stroke-opacity="1" stroke-miterlimit="10" d="M 32.399767 89.294214 L 28.831835 89.294214 " transform="matrix(0.998478, 0, 0, -0.998478, -12.006694, 163.459062)"/>
<g fill="rgb(0%, 0%, 0%)" fill-opacity="1">
<use xlink:href="#glyph-2-2" x="8.468089" y="77.197579"/>
</g>
<path fill="none" stroke-width="0.3985" stroke-linecap="butt" stroke-linejoin="miter" stroke="rgb(0%, 0%, 0%)" stroke-opacity="1" stroke-miterlimit="10" d="M 32.399767 119.058274 L 28.831835 119.058274 " transform="matrix(0.998478, 0, 0, -0.998478, -12.006694, 163.459062)"/>
<g fill="rgb(0%, 0%, 0%)" fill-opacity="1">
<use xlink:href="#glyph-2-3" x="8.468089" y="47.478889"/>
</g>
<path fill="none" stroke-width="1.59404" stroke-linecap="butt" stroke-linejoin="miter" stroke="rgb(0%, 0%, 0%)" stroke-opacity="1" stroke-miterlimit="10" d="M 63.779568 -0.00187847 L 255.121631 -0.00187847 " transform="matrix(0.998478, 0, 0, -0.998478, -12.006694, 163.459062)"/>
<path fill-rule="nonzero" fill="rgb(0%, 0%, 69.999695%)" fill-opacity="0.12" stroke-width="0.3985" stroke-linecap="butt" stroke-linejoin="miter" stroke="rgb(0%, 0%, 69.999695%)" stroke-opacity="1" stroke-miterlimit="10" d="M 170.089842 14.884064 L 170.089842 44.648124 L 340.153419 44.648124 L 340.153419 14.884064 Z M 170.089842 14.884064 " transform="matrix(0.998478, 0, 0, -0.998478, -12.006694, 163.459062)"/>
<path fill="none" stroke-width="0.3985" stroke-linecap="butt" stroke-linejoin="miter" stroke="rgb(0%, 0%, 69.999695%)" stroke-opacity="1" stroke-dasharray="0.3985 0.99628" stroke-miterlimit="10" d="M 170.089842 14.884064 L 170.089842 -16.370547 M 340.153419 14.884064 L 340.153419 -16.370547 " transform="matrix(0.998478, 0, 0, -0.998478, -12.006694, 163.459062)"/>
<path fill="none" stroke-width="1.19553" stroke-linecap="butt" stroke-linejoin="miter" stroke="rgb(0%, 0%, 69.999695%)" stroke-opacity="1" stroke-miterlimit="10" d="M 170.089842 -16.370547 L 340.153419 -16.370547 " transform="matrix(0.998478, 0, 0, -0.998478, -12.006694, 163.459062)"/>
<path fill-rule="nonzero" fill="rgb(0%, 0%, 69.999695%)" fill-opacity="1" d="M 244.316406 133.738281 C 244.316406 132.859375 243.605469 132.148438 242.726562 132.148438 C 241.847656 132.148438 241.132812 132.859375 241.132812 133.738281 C 241.132812 134.621094 241.847656 135.332031 242.726562 135.332031 C 243.605469 135.332031 244.316406 134.621094 244.316406 133.738281 Z M 244.316406 133.738281 "/>
<path fill-rule="nonzero" fill="rgb(0%, 0%, 69.999695%)" fill-opacity="1" d="M 244.019531 179.804688 C 244.019531 179.089844 243.441406 178.511719 242.726562 178.511719 C 242.011719 178.511719 241.433594 179.089844 241.433594 179.804688 C 241.433594 180.519531 242.011719 181.097656 242.726562 181.097656 C 243.441406 181.097656 244.019531 180.519531 244.019531 179.804688 Z M 244.019531 179.804688 "/>
<path fill-rule="nonzero" fill="rgb(0%, 44.999695%, 0%)" fill-opacity="0.12" stroke-width="0.3985" stroke-linecap="butt" stroke-linejoin="miter" stroke="rgb(0%, 44.999695%, 0%)" stroke-opacity="1" stroke-miterlimit="10" d="M 139.167769 24.801505 L 139.167769 54.565565 L 243.514117 54.565565 L 243.514117 24.801505 Z M 139.167769 24.801505 " transform="matrix(0.998478, 0, 0, -0.998478, -12.006694, 163.459062)"/>
<path fill="none" stroke-width="0.3985" stroke-linecap="butt" stroke-linejoin="miter" stroke="rgb(0%, 44.999695%, 0%)" stroke-opacity="1" stroke-dasharray="0.3985 0.99628" stroke-miterlimit="10" d="M 139.167769 24.801505 L 139.167769 -25.892855 M 243.514117 24.801505 L 243.514117 -25.892855 " transform="matrix(0.998478, 0, 0, -0.998478, -12.006694, 163.459062)"/>
<path fill="none" stroke-width="1.19553" stroke-linecap="butt" stroke-linejoin="miter" stroke="rgb(0%, 44.999695%, 0%)" stroke-opacity="1" stroke-miterlimit="10" d="M 139.167769 -25.892855 L 243.514117 -25.892855 " transform="matrix(0.998478, 0, 0, -0.998478, -12.006694, 163.459062)"/>
<path fill-rule="nonzero" fill="rgb(0%, 44.999695%, 0%)" fill-opacity="1" d="M 180.632812 123.835938 C 180.632812 122.957031 179.921875 122.242188 179.042969 122.242188 C 178.164062 122.242188 177.453125 122.957031 177.453125 123.835938 C 177.453125 124.714844 178.164062 125.425781 179.042969 125.425781 C 179.921875 125.425781 180.632812 124.714844 180.632812 123.835938 Z M 180.632812 123.835938 "/>
<path fill-rule="nonzero" fill="rgb(0%, 44.999695%, 0%)" fill-opacity="1" d="M 180.335938 189.3125 C 180.335938 188.601562 179.757812 188.019531 179.042969 188.019531 C 178.328125 188.019531 177.75 188.601562 177.75 189.3125 C 177.75 190.027344 178.328125 190.609375 179.042969 190.609375 C 179.757812 190.609375 180.335938 190.027344 180.335938 189.3125 Z M 180.335938 189.3125 "/>
<path fill-rule="nonzero" fill="rgb(84.999084%, 42.498779%, 0%)" fill-opacity="0.12" stroke-width="0.3985" stroke-linecap="butt" stroke-linejoin="miter" stroke="rgb(84.999084%, 42.498779%, 0%)" stroke-opacity="1" stroke-miterlimit="10" d="M 102.048763 44.648124 L 102.048763 74.412184 L 153.07566 74.412184 L 153.07566 44.648124 Z M 102.048763 44.648124 " transform="matrix(0.998478, 0, 0, -0.998478, -12.006694, 163.459062)"/>
<path fill="none" stroke-width="0.3985" stroke-linecap="butt" stroke-linejoin="miter" stroke="rgb(84.999084%, 42.498779%, 0%)" stroke-opacity="1" stroke-dasharray="0.3985 0.99628" stroke-miterlimit="10" d="M 102.048763 44.648124 L 102.048763 -16.370547 M 153.07566 44.648124 L 153.07566 -16.370547 " transform="matrix(0.998478, 0, 0, -0.998478, -12.006694, 163.459062)"/>
<path fill="none" stroke-width="1.19553" stroke-linecap="butt" stroke-linejoin="miter" stroke="rgb(84.999084%, 42.498779%, 0%)" stroke-opacity="1" stroke-miterlimit="10" d="M 102.048763 -16.370547 L 153.07566 -16.370547 " transform="matrix(0.998478, 0, 0, -0.998478, -12.006694, 163.459062)"/>
<path fill-rule="nonzero" fill="rgb(84.999084%, 42.498779%, 0%)" fill-opacity="1" d="M 116.953125 104.019531 C 116.953125 103.140625 116.238281 102.429688 115.359375 102.429688 C 114.480469 102.429688 113.769531 103.140625 113.769531 104.019531 C 113.769531 104.898438 114.480469 105.613281 115.359375 105.613281 C 116.238281 105.613281 116.953125 104.898438 116.953125 104.019531 Z M 116.953125 104.019531 "/>
<path fill-rule="nonzero" fill="rgb(84.999084%, 42.498779%, 0%)" fill-opacity="1" d="M 116.652344 179.804688 C 116.652344 179.089844 116.074219 178.511719 115.359375 178.511719 C 114.644531 178.511719 114.066406 179.089844 114.066406 179.804688 C 114.066406 180.519531 114.644531 181.097656 115.359375 181.097656 C 116.074219 181.097656 116.652344 180.519531 116.652344 179.804688 Z M 116.652344 179.804688 "/>
<path fill-rule="nonzero" fill="rgb(39.99939%, 0%, 39.99939%)" fill-opacity="0.12" stroke-width="0.3985" stroke-linecap="butt" stroke-linejoin="miter" stroke="rgb(39.99939%, 0%, 39.99939%)" stroke-opacity="1" stroke-miterlimit="10" d="M 56.686739 104.176244 L 56.686739 133.940304 L 70.872396 133.940304 L 70.872396 104.176244 Z M 56.686739 104.176244 " transform="matrix(0.998478, 0, 0, -0.998478, -12.006694, 163.459062)"/>
<path fill="none" stroke-width="0.3985" stroke-linecap="butt" stroke-linejoin="miter" stroke="rgb(39.99939%, 0%, 39.99939%)" stroke-opacity="1" stroke-dasharray="0.3985 0.99628" stroke-miterlimit="10" d="M 56.686739 104.176244 L 56.686739 -25.892855 M 70.872396 104.176244 L 70.872396 -25.892855 " transform="matrix(0.998478, 0, 0, -0.998478, -12.006694, 163.459062)"/>
<path fill="none" stroke-width="1.19553" stroke-linecap="butt" stroke-linejoin="miter" stroke="rgb(39.99939%, 0%, 39.99939%)" stroke-opacity="1" stroke-miterlimit="10" d="M 56.686739 -25.892855 L 70.872396 -25.892855 " transform="matrix(0.998478, 0, 0, -0.998478, -12.006694, 163.459062)"/>
<path fill-rule="nonzero" fill="rgb(39.99939%, 0%, 39.99939%)" fill-opacity="1" d="M 53.269531 44.582031 C 53.269531 43.703125 52.554688 42.992188 51.675781 42.992188 C 50.796875 42.992188 50.085938 43.703125 50.085938 44.582031 C 50.085938 45.460938 50.796875 46.175781 51.675781 46.175781 C 52.554688 46.175781 53.269531 45.460938 53.269531 44.582031 Z M 53.269531 44.582031 "/>
<path fill-rule="nonzero" fill="rgb(39.99939%, 0%, 39.99939%)" fill-opacity="1" d="M 52.96875 189.3125 C 52.96875 188.601562 52.390625 188.019531 51.675781 188.019531 C 50.960938 188.019531 50.382812 188.601562 50.382812 189.3125 C 50.382812 190.027344 50.960938 190.609375 51.675781 190.609375 C 52.390625 190.609375 52.96875 190.027344 52.96875 189.3125 Z M 52.96875 189.3125 "/>
<path fill="none" stroke-width="0.79701" stroke-linecap="butt" stroke-linejoin="miter" stroke="rgb(0%, 0%, 0%)" stroke-opacity="1" stroke-miterlimit="10" d="M 54.851915 138.439341 L 58.30248 130.24327 L 61.756957 122.958743 L 65.207523 116.452745 L 68.662 110.596174 L 72.116478 105.299047 L 75.567043 100.487034 L 79.021521 96.093627 L 82.472086 92.07188 L 85.926564 88.378758 L 89.381041 84.963403 L 92.831606 81.798428 L 96.286084 78.868186 L 99.736649 76.133554 L 103.191127 73.590621 L 106.645604 71.204175 L 110.09617 68.970306 L 113.550647 66.873364 L 117.005125 64.8977 L 120.45569 63.039402 L 123.910168 61.282822 L 127.360733 59.620135 L 130.81521 58.05134 L 134.269688 56.556878 L 137.720253 55.140659 L 141.174731 53.790948 L 144.625296 52.507745 L 148.079774 51.283225 L 151.534251 50.117387 L 154.984817 48.994584 L 158.439294 47.930464 L 161.889859 46.905467 L 165.344337 45.927415 L 168.798815 44.984574 L 172.24938 44.088679 L 175.703857 43.220169 L 179.158335 42.386869 L 182.6089 41.584867 L 186.063378 40.814162 L 189.513943 40.066931 L 192.968421 39.350998 L 196.422898 38.658537 L 199.873464 37.993462 L 203.327941 37.347948 L 206.778506 36.721995 L 210.232984 36.119516 L 213.687461 35.536597 L 217.138027 34.969327 L 220.592504 34.421619 L 224.04307 33.893471 L 227.497547 33.37706 L 230.952025 32.876297 L 234.40259 32.391184 L 237.857068 31.921719 L 241.307633 31.467903 L 244.76211 31.021912 L 248.216588 30.591569 L 251.667153 30.172963 L 255.121631 29.766094 L 258.576108 29.367049 L 262.026674 28.979741 L 265.481151 28.600257 L 268.931717 28.232509 L 272.386194 27.876499 L 275.840672 27.5244 L 279.291237 27.18795 L 282.745715 26.855413 L 286.19628 26.5307 L 289.650757 26.217723 L 293.105235 25.908659 L 296.5558 25.603507 L 300.010278 25.310092 L 303.460843 25.024501 L 306.915321 24.73891 L 310.369798 24.465055 L 313.820364 24.195113 L 317.274841 23.932995 L 320.729319 23.67479 L 324.179884 23.420496 L 327.634361 23.17794 L 331.084927 22.931471 L 334.539404 22.696738 L 337.993882 22.465918 L 341.444447 22.235098 L 344.898925 22.012102 L 348.34949 21.796931 L 355.258445 21.374413 L 358.70901 21.167066 L 362.163488 20.967543 " transform="matrix(0.998478, 0, 0, -0.998478, -12.006694, 163.459062)"/>
<g fill="rgb(0%, 0%, 0%)" fill-opacity="1">
<use xlink:href="#glyph-0-1" x="119.053487" y="79.447149"/>
</g>
<g fill="rgb(0%, 0%, 0%)" fill-opacity="1">
<use xlink:href="#glyph-2-4" x="126.490149" y="79.447149"/>
</g>
<g fill="rgb(0%, 0%, 0%)" fill-opacity="1">
<use xlink:href="#glyph-1-0" x="137.691072" y="75.765762"/>
</g>
<path fill="none" stroke-width="0.38" stroke-linecap="butt" stroke-linejoin="miter" stroke="rgb(0%, 0%, 0%)" stroke-opacity="1" stroke-miterlimit="10" d="M -65.616871 -89.399555 L -61.44646 -89.399555 " transform="matrix(0.998478, 0, 0, -0.998478, 202.950575, -12.060336)"/>
<g fill="rgb(0%, 0%, 0%)" fill-opacity="1">
<use xlink:href="#glyph-3-0" x="137.432466" y="82.4965"/>
</g>
<path fill="none" stroke-width="0.3985" stroke-linecap="butt" stroke-linejoin="miter" stroke="rgb(0%, 0%, 0%)" stroke-opacity="1" stroke-miterlimit="10" d="M 353.341464 17.947321 L 353.341464 41.580955 " transform="matrix(0.998478, 0, 0, -0.998478, -12.006694, 163.459062)"/>
<path fill-rule="nonzero" fill="rgb(0%, 0%, 0%)" fill-opacity="1" stroke-width="0.3985" stroke-linecap="butt" stroke-linejoin="miter" stroke="rgb(0%, 0%, 0%)" stroke-opacity="1" stroke-miterlimit="10" d="M 4.212886 -0.000255632 L 0.644955 1.345543 L 1.818617 -0.000255632 L 0.644955 -1.346054 Z M 4.212886 -0.000255632 " transform="matrix(0, 0.998478, 0.998478, 0, 340.79713, 143.824777)"/>
<path fill-rule="nonzero" fill="rgb(0%, 0%, 0%)" fill-opacity="1" stroke-width="0.3985" stroke-linecap="butt" stroke-linejoin="miter" stroke="rgb(0%, 0%, 0%)" stroke-opacity="1" stroke-miterlimit="10" d="M 4.212702 0.000255632 L 0.64477 1.346054 L 1.818432 0.000255632 L 0.64477 -1.345543 Z M 4.212702 0.000255632 " transform="matrix(0, -0.998478, -0.998478, 0, 340.79713, 123.655508)"/>
<g fill="rgb(0%, 0%, 0%)" fill-opacity="1">
<use xlink:href="#glyph-2-1" x="344.490779" y="136.635957"/>
</g>
<g fill="rgb(0%, 0%, 0%)" fill-opacity="1">
<use xlink:href="#glyph-0-2" x="349.108738" y="136.635957"/>
</g>
</svg>
