<?xml version="1.0" encoding="UTF-8"?>
<svg xmlns="http://www.w3.org/2000/svg" xmlns:xlink="http://www.w3.org/1999/xlink" width="332.15pt" height="164.69pt" viewBox="0 0 332.15 164.69">
<defs>
<g>
<g id="glyph-0-0">
<path d="M 6.90625 -2.40625 C 7.078125 -2.40625 7.265625 -2.40625 7.265625 -2.609375 C 7.265625 -2.828125 7.078125 -2.828125 6.90625 -2.828125 L 1.234375 -2.828125 C 1.0625 -2.828125 0.875 -2.828125 0.875 -2.609375 C 0.875 -2.40625 1.0625 -2.40625 1.234375 -2.40625 Z M 6.90625 -2.40625 "/>
</g>
<g id="glyph-1-0">
<path d="M 3.078125 -6.703125 C 3.078125 -6.953125 3.078125 -6.96875 2.84375 -6.96875 C 2.1875 -6.296875 1.265625 -6.296875 0.9375 -6.296875 L 0.9375 -5.984375 C 1.140625 -5.984375 1.765625 -5.984375 2.296875 -6.25 L 2.296875 -0.828125 C 2.296875 -0.453125 2.265625 -0.328125 1.328125 -0.328125 L 1 -0.328125 L 1 0 C 1.359375 -0.03125 2.265625 -0.03125 2.6875 -0.03125 C 3.109375 -0.03125 4.015625 -0.03125 4.390625 0 L 4.390625 -0.328125 L 4.046875 -0.328125 C 3.109375 -0.328125 3.078125 -0.4375 3.078125 -0.828125 Z M 3.078125 -6.703125 "/>
</g>
<g id="glyph-1-1">
<path d="M 4.8125 -3.34375 C 4.8125 -4.1875 4.765625 -5.03125 4.390625 -5.796875 C 3.921875 -6.796875 3.0625 -6.96875 2.609375 -6.96875 C 1.984375 -6.96875 1.21875 -6.703125 0.796875 -5.71875 C 0.453125 -5 0.40625 -4.1875 0.40625 -3.34375 C 0.40625 -2.5625 0.453125 -1.625 0.875 -0.828125 C 1.328125 0.015625 2.09375 0.234375 2.609375 0.234375 C 3.171875 0.234375 3.96875 0.015625 4.421875 -0.984375 C 4.765625 -1.703125 4.8125 -2.515625 4.8125 -3.34375 Z M 2.609375 0 C 2.203125 0 1.578125 -0.265625 1.390625 -1.265625 C 1.28125 -1.890625 1.28125 -2.859375 1.28125 -3.46875 C 1.28125 -4.140625 1.28125 -4.84375 1.359375 -5.40625 C 1.5625 -6.640625 2.34375 -6.734375 2.609375 -6.734375 C 2.953125 -6.734375 3.640625 -6.546875 3.84375 -5.515625 C 3.953125 -4.9375 3.953125 -4.140625 3.953125 -3.46875 C 3.953125 -2.6875 3.953125 -1.984375 3.828125 -1.3125 C 3.671875 -0.3125 3.078125 0 2.609375 0 Z M 2.609375 0 "/>
</g>
<g id="glyph-1-2">
<path d="M 4.703125 -2.109375 C 4.703125 -3.34375 3.84375 -4.390625 2.71875 -4.390625 C 2.203125 -4.390625 1.765625 -4.234375 1.375 -3.859375 L 1.375 -5.90625 C 1.59375 -5.84375 1.9375 -5.765625 2.265625 -5.765625 C 3.5625 -5.765625 4.296875 -6.71875 4.296875 -6.859375 C 4.296875 -6.921875 4.265625 -6.96875 4.1875 -6.96875 C 4.171875 -6.96875 4.15625 -6.96875 4.109375 -6.9375 C 3.890625 -6.84375 3.375 -6.640625 2.6875 -6.640625 C 2.265625 -6.640625 1.78125 -6.703125 1.28125 -6.9375 C 1.203125 -6.96875 1.1875 -6.96875 1.15625 -6.96875 C 1.0625 -6.96875 1.0625 -6.875 1.0625 -6.703125 L 1.0625 -3.609375 C 1.0625 -3.421875 1.0625 -3.34375 1.203125 -3.34375 C 1.28125 -3.34375 1.296875 -3.375 1.34375 -3.4375 C 1.453125 -3.59375 1.84375 -4.171875 2.6875 -4.171875 C 3.234375 -4.171875 3.5 -3.6875 3.578125 -3.5 C 3.75 -3.109375 3.765625 -2.703125 3.765625 -2.171875 C 3.765625 -1.8125 3.765625 -1.1875 3.515625 -0.75 C 3.265625 -0.328125 2.875 -0.0625 2.390625 -0.0625 C 1.640625 -0.0625 1.03125 -0.625 0.859375 -1.234375 C 0.890625 -1.21875 0.921875 -1.21875 1.03125 -1.21875 C 1.375 -1.21875 1.5625 -1.46875 1.5625 -1.734375 C 1.5625 -1.984375 1.375 -2.234375 1.03125 -2.234375 C 0.890625 -2.234375 0.515625 -2.171875 0.515625 -1.6875 C 0.515625 -0.78125 1.25 0.234375 2.421875 0.234375 C 3.625 0.234375 4.703125 -0.78125 4.703125 -2.109375 Z M 4.703125 -2.109375 "/>
</g>
<g id="glyph-1-3">
<path d="M 1.328125 -0.8125 L 2.4375 -1.890625 C 4.078125 -3.328125 4.703125 -3.890625 4.703125 -4.9375 C 4.703125 -6.140625 3.765625 -6.96875 2.484375 -6.96875 C 1.296875 -6.96875 0.515625 -6.015625 0.515625 -5.078125 C 0.515625 -4.484375 1.046875 -4.484375 1.078125 -4.484375 C 1.25 -4.484375 1.625 -4.609375 1.625 -5.046875 C 1.625 -5.3125 1.4375 -5.59375 1.0625 -5.59375 C 0.984375 -5.59375 0.96875 -5.59375 0.9375 -5.578125 C 1.171875 -6.265625 1.734375 -6.640625 2.34375 -6.640625 C 3.296875 -6.640625 3.75 -5.796875 3.75 -4.9375 C 3.75 -4.109375 3.21875 -3.28125 2.65625 -2.625 L 0.640625 -0.390625 C 0.515625 -0.265625 0.515625 -0.25 0.515625 0 L 4.40625 0 L 4.703125 -1.828125 L 4.4375 -1.828125 C 4.390625 -1.5 4.3125 -1.046875 4.203125 -0.890625 C 4.140625 -0.8125 3.4375 -0.8125 3.21875 -0.8125 Z M 1.328125 -0.8125 "/>
</g>
<g id="glyph-1-4">
<path d="M 3.078125 -1.734375 L 3.078125 -0.8125 C 3.078125 -0.4375 3.0625 -0.328125 2.28125 -0.328125 L 2.0625 -0.328125 L 2.0625 0 C 2.484375 -0.03125 3.03125 -0.03125 3.46875 -0.03125 C 3.921875 -0.03125 4.46875 -0.03125 4.90625 0 L 4.90625 -0.328125 L 4.671875 -0.328125 C 3.90625 -0.328125 3.890625 -0.4375 3.890625 -0.8125 L 3.890625 -1.734375 L 4.9375 -1.734375 L 4.9375 -2.046875 L 3.890625 -2.046875 L 3.890625 -6.8125 C 3.890625 -7.03125 3.890625 -7.09375 3.71875 -7.09375 C 3.625 -7.09375 3.59375 -7.09375 3.5 -6.96875 L 0.296875 -2.046875 L 0.296875 -1.734375 Z M 3.140625 -2.046875 L 0.59375 -2.046875 L 3.140625 -5.953125 Z M 3.140625 -2.046875 "/>
</g>
<g id="glyph-2-0">
<path d="M 2.015625 -0.5625 C 2.015625 -0.859375 1.765625 -1.109375 1.453125 -1.109375 C 1.15625 -1.109375 0.90625 -0.859375 0.90625 -0.5625 C 0.90625 -0.25 1.15625 0 1.453125 0 C 1.765625 0 2.015625 -0.25 2.015625 -0.5625 Z M 2.015625 -0.5625 "/>
</g>
<g id="glyph-2-1">
<path d="M 3.5 -3.15625 C 3.5625 -3.4375 3.796875 -4.390625 4.53125 -4.390625 C 4.578125 -4.390625 4.84375 -4.390625 5.0625 -4.265625 C 4.765625 -4.203125 4.546875 -3.953125 4.546875 -3.703125 C 4.546875 -3.53125 4.671875 -3.328125 4.953125 -3.328125 C 5.1875 -3.328125 5.515625 -3.515625 5.515625 -3.9375 C 5.515625 -4.484375 4.90625 -4.625 4.546875 -4.625 C 3.9375 -4.625 3.5625 -4.078125 3.4375 -3.828125 C 3.1875 -4.515625 2.609375 -4.625 2.3125 -4.625 C 1.21875 -4.625 0.625 -3.28125 0.625 -3.015625 C 0.625 -2.90625 0.734375 -2.90625 0.75 -2.90625 C 0.84375 -2.90625 0.875 -2.9375 0.890625 -3.03125 C 1.25 -4.140625 1.9375 -4.390625 2.296875 -4.390625 C 2.484375 -4.390625 2.859375 -4.296875 2.859375 -3.703125 C 2.859375 -3.375 2.6875 -2.671875 2.296875 -1.203125 C 2.125 -0.5625 1.765625 -0.109375 1.296875 -0.109375 C 1.234375 -0.109375 1 -0.109375 0.78125 -0.25 C 1.03125 -0.296875 1.265625 -0.515625 1.265625 -0.8125 C 1.265625 -1.09375 1.03125 -1.1875 0.875 -1.1875 C 0.5625 -1.1875 0.296875 -0.90625 0.296875 -0.578125 C 0.296875 -0.09375 0.828125 0.109375 1.28125 0.109375 C 1.984375 0.109375 2.359375 -0.625 2.390625 -0.6875 C 2.515625 -0.296875 2.890625 0.109375 3.515625 0.109375 C 4.59375 0.109375 5.1875 -1.234375 5.1875 -1.5 C 5.1875 -1.609375 5.09375 -1.609375 5.0625 -1.609375 C 4.96875 -1.609375 4.953125 -1.5625 4.9375 -1.484375 C 4.578125 -0.359375 3.875 -0.109375 3.53125 -0.109375 C 3.125 -0.109375 2.96875 -0.453125 2.96875 -0.8125 C 2.96875 -1.03125 3.03125 -1.265625 3.140625 -1.734375 Z M 3.5 -3.15625 "/>
</g>
<g id="glyph-3-0">
<path d="M 3.078125 -1.109375 L 3.078125 -1.625 L 2.828125 -1.625 L 2.828125 -1.140625 C 2.828125 -0.46875 2.546875 -0.15625 2.21875 -0.15625 C 1.609375 -0.15625 1.609375 -0.9375 1.609375 -1.109375 L 1.609375 -3.59375 L 2.921875 -3.59375 L 2.921875 -3.875 L 1.609375 -3.875 L 1.609375 -5.53125 L 1.359375 -5.53125 C 1.359375 -4.765625 1.046875 -3.84375 0.171875 -3.8125 L 0.171875 -3.59375 L 0.953125 -3.59375 L 0.953125 -1.109375 C 0.953125 -0.109375 1.6875 0.09375 2.15625 0.09375 C 2.765625 0.09375 3.078125 -0.46875 3.078125 -1.109375 Z M 3.078125 -1.109375 "/>
</g>
<g id="glyph-3-1">
<path d="M 4.921875 0 L 4.921875 -0.28125 C 4.453125 -0.28125 4.234375 -0.28125 4.21875 -0.5625 L 4.21875 -2.28125 C 4.21875 -3.03125 4.21875 -3.28125 3.96875 -3.609375 C 3.765625 -3.859375 3.421875 -3.96875 2.96875 -3.96875 C 2.375 -3.96875 1.9375 -3.65625 1.65625 -3.15625 L 1.640625 -3.15625 L 1.640625 -6.234375 L 0.3125 -6.140625 L 0.3125 -5.859375 C 0.921875 -5.859375 1 -5.796875 1 -5.359375 L 1 -0.6875 C 1 -0.28125 0.90625 -0.28125 0.3125 -0.28125 L 0.3125 0 C 0.734375 -0.015625 0.90625 -0.03125 1.34375 -0.03125 C 1.765625 -0.03125 1.890625 -0.015625 2.359375 0 L 2.359375 -0.28125 C 1.765625 -0.28125 1.671875 -0.28125 1.671875 -0.6875 L 1.671875 -2.328125 C 1.671875 -3.28125 2.34375 -3.75 2.90625 -3.75 C 3.4375 -3.75 3.5625 -3.3125 3.5625 -2.765625 L 3.5625 -0.6875 C 3.5625 -0.28125 3.453125 -0.28125 2.859375 -0.28125 L 2.859375 0 C 3.28125 -0.015625 3.453125 -0.03125 3.890625 -0.03125 C 4.328125 -0.03125 4.4375 -0.015625 4.921875 0 Z M 4.921875 0 "/>
</g>
<g id="glyph-3-2">
<path d="M 3.84375 -1.0625 C 3.84375 -1.125 3.796875 -1.1875 3.703125 -1.1875 C 3.625 -1.1875 3.59375 -1.125 3.578125 -1.09375 C 3.28125 -0.171875 2.484375 -0.15625 2.34375 -0.15625 C 1.90625 -0.15625 1.546875 -0.390625 1.34375 -0.703125 C 1.046875 -1.140625 1.03125 -1.6875 1.03125 -2.0625 L 3.59375 -2.0625 C 3.796875 -2.0625 3.84375 -2.0625 3.84375 -2.25 C 3.84375 -3.171875 3.328125 -4.03125 2.1875 -4.03125 C 1.109375 -4.03125 0.265625 -3.09375 0.265625 -1.96875 C 0.265625 -0.796875 1.203125 0.09375 2.296875 0.09375 C 3.390625 0.09375 3.84375 -0.859375 3.84375 -1.0625 Z M 3.21875 -2.265625 L 1.046875 -2.265625 C 1.125 -3.65625 1.9375 -3.796875 2.1875 -3.796875 C 2.671875 -3.796875 3.21875 -3.421875 3.21875 -2.265625 Z M 3.21875 -2.265625 "/>
</g>
<g id="glyph-3-3">
<path d="M 6.484375 -3.59375 L 6.484375 -3.875 C 6.125 -3.84375 6.09375 -3.84375 5.796875 -3.84375 C 5.46875 -3.84375 5.34375 -3.84375 4.984375 -3.875 L 4.984375 -3.59375 C 5.359375 -3.578125 5.484375 -3.34375 5.484375 -3.15625 C 5.484375 -3.078125 5.46875 -3.015625 5.4375 -2.953125 L 4.625 -0.703125 L 3.703125 -3.171875 C 3.671875 -3.28125 3.671875 -3.3125 3.671875 -3.34375 C 3.671875 -3.578125 3.9375 -3.59375 4.171875 -3.59375 L 4.171875 -3.875 C 3.765625 -3.84375 3.390625 -3.84375 3.25 -3.84375 C 2.96875 -3.84375 2.71875 -3.84375 2.421875 -3.875 L 2.421875 -3.59375 C 2.71875 -3.59375 2.890625 -3.578125 2.984375 -3.453125 C 3.078125 -3.359375 3.1875 -3 3.1875 -2.96875 L 3.140625 -2.84375 L 2.40625 -0.828125 L 1.546875 -3.15625 C 1.5 -3.296875 1.5 -3.3125 1.5 -3.34375 C 1.5 -3.59375 1.84375 -3.59375 2.015625 -3.59375 L 2.015625 -3.875 L 1.046875 -3.84375 C 0.75 -3.84375 0.484375 -3.84375 0.171875 -3.875 L 0.171875 -3.59375 C 0.609375 -3.59375 0.734375 -3.578125 0.828125 -3.265625 L 2 -0.09375 C 2.046875 0.015625 2.0625 0.09375 2.203125 0.09375 C 2.328125 0.09375 2.375 0 2.40625 -0.09375 L 3.328125 -2.609375 L 4.25 -0.09375 C 4.28125 0 4.328125 0.09375 4.453125 0.09375 C 4.59375 0.09375 4.625 0.015625 4.65625 -0.078125 L 5.71875 -3 C 5.921875 -3.546875 6.28125 -3.578125 6.484375 -3.59375 Z M 6.484375 -3.59375 "/>
</g>
<g id="glyph-3-4">
<path d="M 4.46875 -0.796875 L 4.46875 -1.296875 L 4.21875 -1.296875 L 4.21875 -0.8125 C 4.21875 -0.703125 4.21875 -0.265625 3.890625 -0.265625 C 3.5625 -0.265625 3.5625 -0.6875 3.5625 -0.828125 L 3.5625 -2.40625 C 3.5625 -2.921875 3.5625 -3.21875 3.15625 -3.59375 C 2.828125 -3.890625 2.40625 -4.03125 1.953125 -4.03125 C 1.1875 -4.03125 0.5625 -3.640625 0.5625 -3.078125 C 0.5625 -2.796875 0.75 -2.640625 0.984375 -2.640625 C 1.234375 -2.640625 1.40625 -2.828125 1.40625 -3.046875 C 1.40625 -3.4375 1 -3.484375 1 -3.484375 C 1.234375 -3.71875 1.671875 -3.796875 1.9375 -3.796875 C 2.390625 -3.796875 2.90625 -3.453125 2.90625 -2.671875 L 2.90625 -2.375 C 2.421875 -2.359375 1.75 -2.3125 1.140625 -2.015625 C 0.5 -1.703125 0.296875 -1.234375 0.296875 -0.875 C 0.296875 -0.140625 1.171875 0.09375 1.765625 0.09375 C 2.515625 0.09375 2.859375 -0.390625 2.984375 -0.640625 C 3.03125 -0.265625 3.28125 0.046875 3.671875 0.046875 C 3.90625 0.046875 4.46875 -0.078125 4.46875 -0.796875 Z M 2.90625 -1.265625 C 2.90625 -0.390625 2.234375 -0.125 1.828125 -0.125 C 1.40625 -0.125 1.015625 -0.4375 1.015625 -0.875 C 1.015625 -1.46875 1.53125 -2.109375 2.90625 -2.15625 Z M 2.90625 -1.265625 "/>
</g>
<g id="glyph-3-5">
<path d="M 2.34375 0 L 2.34375 -0.28125 C 1.75 -0.28125 1.65625 -0.28125 1.65625 -0.6875 L 1.65625 -6.234375 L 0.328125 -6.140625 L 0.328125 -5.859375 C 0.9375 -5.859375 1.015625 -5.796875 1.015625 -5.359375 L 1.015625 -0.6875 C 1.015625 -0.28125 0.921875 -0.28125 0.328125 -0.28125 L 0.328125 0 C 0.75 -0.015625 0.921875 -0.03125 1.328125 -0.03125 C 1.75 -0.03125 1.90625 -0.015625 2.34375 0 Z M 2.34375 0 "/>
</g>
<g id="glyph-3-6">
<path d="M 4.921875 0 L 4.921875 -0.28125 C 4.453125 -0.28125 4.234375 -0.28125 4.21875 -0.5625 L 4.21875 -2.28125 C 4.21875 -3.03125 4.21875 -3.28125 3.96875 -3.609375 C 3.765625 -3.859375 3.421875 -3.96875 2.96875 -3.96875 C 2.140625 -3.96875 1.75 -3.34375 1.625 -3.09375 L 1.609375 -3.09375 L 1.609375 -3.96875 L 0.3125 -3.875 L 0.3125 -3.59375 C 0.921875 -3.59375 1 -3.53125 1 -3.09375 L 1 -0.6875 C 1 -0.28125 0.90625 -0.28125 0.3125 -0.28125 L 0.3125 0 C 0.734375 -0.015625 0.90625 -0.03125 1.34375 -0.03125 C 1.765625 -0.03125 1.890625 -0.015625 2.359375 0 L 2.359375 -0.28125 C 1.765625 -0.28125 1.671875 -0.28125 1.671875 -0.6875 L 1.671875 -2.328125 C 1.671875 -3.28125 2.34375 -3.75 2.90625 -3.75 C 3.4375 -3.75 3.5625 -3.3125 3.5625 -2.765625 L 3.5625 -0.6875 C 3.5625 -0.28125 3.453125 -0.28125 2.859375 -0.28125 L 2.859375 0 C 3.28125 -0.015625 3.453125 -0.03125 3.890625 -0.03125 C 4.328125 -0.03125 4.4375 -0.015625 4.921875 0 Z M 4.921875 0 "/>
</g>
<g id="glyph-4-0">
<path d="M 4.421875 -3.625 C 4.09375 -3.5625 3.984375 -3.28125 3.984375 -3.140625 C 3.984375 -2.96875 4.109375 -2.828125 4.34375 -2.828125 C 4.59375 -2.828125 4.828125 -3.03125 4.828125 -3.34375 C 4.828125 -3.765625 4.390625 -3.96875 3.96875 -3.96875 C 3.421875 -3.96875 3.109375 -3.5 3 -3.3125 C 2.828125 -3.75 2.4375 -3.96875 2 -3.96875 C 1.046875 -3.96875 0.515625 -2.828125 0.515625 -2.59375 C 0.515625 -2.5 0.578125 -2.484375 0.640625 -2.484375 C 0.734375 -2.484375 0.75 -2.53125 0.765625 -2.578125 C 1.046875 -3.46875 1.640625 -3.75 1.984375 -3.75 C 2.25 -3.75 2.484375 -3.578125 2.484375 -3.15625 C 2.484375 -2.828125 2.09375 -1.390625 1.96875 -0.96875 C 1.90625 -0.6875 1.640625 -0.125 1.140625 -0.125 C 0.96875 -0.125 0.765625 -0.1875 0.6875 -0.25 C 0.921875 -0.28125 1.109375 -0.5 1.109375 -0.734375 C 1.109375 -0.953125 0.9375 -1.046875 0.765625 -1.046875 C 0.5 -1.046875 0.265625 -0.828125 0.265625 -0.515625 C 0.265625 -0.078125 0.75 0.09375 1.125 0.09375 C 1.65625 0.09375 1.953125 -0.328125 2.09375 -0.578125 C 2.3125 0.015625 2.84375 0.09375 3.09375 0.09375 C 4.0625 0.09375 4.578125 -1.0625 4.578125 -1.28125 C 4.578125 -1.328125 4.546875 -1.390625 4.453125 -1.390625 C 4.359375 -1.390625 4.34375 -1.359375 4.296875 -1.21875 C 4.109375 -0.578125 3.578125 -0.125 3.125 -0.125 C 2.859375 -0.125 2.609375 -0.28125 2.609375 -0.71875 C 2.609375 -0.921875 2.734375 -1.40625 2.828125 -1.75 C 2.859375 -1.90625 3.09375 -2.890625 3.125 -2.953125 C 3.21875 -3.265625 3.5 -3.75 3.953125 -3.75 C 4.109375 -3.75 4.28125 -3.71875 4.421875 -3.625 Z M 4.421875 -3.625 "/>
</g>
<g id="glyph-4-1">
<path d="M 2.78125 -2.828125 L 4.28125 -2.828125 C 5.734375 -2.828125 6.921875 -3.8125 6.921875 -4.765625 C 6.921875 -5.484375 6.28125 -6.140625 5.109375 -6.140625 L 2.140625 -6.140625 C 1.96875 -6.140625 1.875 -6.140625 1.875 -5.96875 C 1.875 -5.859375 1.953125 -5.859375 2.140625 -5.859375 C 2.171875 -5.859375 2.328125 -5.859375 2.484375 -5.84375 C 2.625 -5.828125 2.6875 -5.796875 2.6875 -5.703125 C 2.6875 -5.65625 2.6875 -5.625 2.65625 -5.53125 L 1.453125 -0.6875 C 1.359375 -0.359375 1.34375 -0.28125 0.671875 -0.28125 C 0.5 -0.28125 0.40625 -0.28125 0.40625 -0.109375 C 0.40625 -0.015625 0.46875 0 0.53125 0 C 0.703125 0 0.9375 -0.015625 1.109375 -0.015625 C 1.375 -0.03125 1.390625 -0.03125 1.6875 -0.03125 C 1.96875 -0.03125 1.984375 -0.03125 2.25 -0.015625 C 2.4375 -0.015625 2.671875 0 2.84375 0 C 2.90625 0 3.015625 0 3.015625 -0.15625 C 3.015625 -0.28125 2.921875 -0.28125 2.734375 -0.28125 C 2.703125 -0.28125 2.546875 -0.28125 2.40625 -0.296875 C 2.203125 -0.328125 2.1875 -0.359375 2.1875 -0.4375 C 2.1875 -0.46875 2.1875 -0.484375 2.234375 -0.640625 Z M 3.421875 -5.5 C 3.5 -5.828125 3.515625 -5.859375 3.90625 -5.859375 L 4.8125 -5.859375 C 5.5 -5.859375 6.0625 -5.640625 6.0625 -4.984375 C 6.0625 -4.796875 5.96875 -3.953125 5.5 -3.515625 C 5.296875 -3.34375 4.890625 -3.078125 4.109375 -3.078125 L 2.8125 -3.078125 Z M 3.421875 -5.5 "/>
</g>
<g id="glyph-5-0">
<path d="M 6.359375 -2.96875 C 6.484375 -2.96875 6.65625 -2.96875 6.65625 -3.15625 C 6.65625 -3.359375 6.453125 -3.359375 6.328125 -3.359375 L 0.84375 -3.359375 C 0.703125 -3.359375 0.515625 -3.359375 0.515625 -3.15625 C 0.515625 -2.96875 0.6875 -2.96875 0.8125 -2.96875 Z M 6.328125 -1.140625 C 6.453125 -1.140625 6.65625 -1.140625 6.65625 -1.34375 C 6.65625 -1.53125 6.484375 -1.53125 6.359375 -1.53125 L 0.8125 -1.53125 C 0.6875 -1.53125 0.515625 -1.53125 0.515625 -1.34375 C 0.515625 -1.140625 0.703125 -1.140625 0.84375 -1.140625 Z M 6.328125 -1.140625 "/>
</g>
<g id="glyph-5-1">
<path d="M 2.734375 -5.734375 C 2.734375 -5.96875 2.71875 -5.984375 2.5 -5.984375 C 1.9375 -5.40625 1.109375 -5.40625 0.828125 -5.40625 L 0.828125 -5.125 C 1 -5.125 1.546875 -5.125 2.046875 -5.359375 L 2.046875 -0.71875 C 2.046875 -0.390625 2.015625 -0.28125 1.171875 -0.28125 L 0.890625 -0.28125 L 0.890625 0 C 1.21875 -0.03125 2.015625 -0.03125 2.375 -0.03125 C 2.75 -0.03125 3.5625 -0.03125 3.875 0 L 3.875 -0.28125 L 3.59375 -0.28125 C 2.765625 -0.28125 2.734375 -0.390625 2.734375 -0.71875 Z M 2.734375 -5.734375 "/>
</g>
<g id="glyph-5-2">
<path d="M 3.0625 2.140625 C 3.0625 2.09375 3.03125 2.0625 2.984375 2 C 1.828125 0.9375 1.46875 -0.671875 1.46875 -2.25 C 1.46875 -3.640625 1.75 -5.328125 3.015625 -6.53125 C 3.046875 -6.5625 3.0625 -6.59375 3.0625 -6.640625 C 3.0625 -6.703125 3.015625 -6.734375 2.953125 -6.734375 C 2.84375 -6.734375 2.046875 -6.09375 1.546875 -5.109375 C 1.125 -4.25 0.90625 -3.328125 0.90625 -2.25 C 0.90625 -1.609375 0.984375 -0.578125 1.484375 0.46875 C 2.015625 1.578125 2.84375 2.234375 2.953125 2.234375 C 3.015625 2.234375 3.0625 2.203125 3.0625 2.140625 Z M 3.0625 2.140625 "/>
</g>
<g id="glyph-5-3">
<path d="M 6.34375 -2.0625 C 6.46875 -2.0625 6.65625 -2.0625 6.65625 -2.25 C 6.65625 -2.4375 6.484375 -2.4375 6.34375 -2.4375 L 3.78125 -2.4375 L 3.78125 -5.015625 C 3.78125 -5.15625 3.78125 -5.328125 3.578125 -5.328125 C 3.390625 -5.328125 3.390625 -5.140625 3.390625 -5.015625 L 3.390625 -2.4375 L 0.828125 -2.4375 C 0.703125 -2.4375 0.515625 -2.4375 0.515625 -2.25 C 0.515625 -2.0625 0.6875 -2.0625 0.828125 -2.0625 L 3.390625 -2.0625 L 3.390625 0.515625 C 3.390625 0.65625 3.390625 0.828125 3.59375 0.828125 C 3.78125 0.828125 3.78125 0.640625 3.78125 0.515625 L 3.78125 -2.0625 Z M 6.34375 -2.0625 "/>
</g>
<g id="glyph-5-4">
<path d="M 2.671875 -2.25 C 2.671875 -2.984375 2.5625 -3.984375 2.109375 -4.984375 C 1.578125 -6.078125 0.734375 -6.734375 0.625 -6.734375 C 0.53125 -6.734375 0.515625 -6.671875 0.515625 -6.640625 C 0.515625 -6.59375 0.53125 -6.5625 0.609375 -6.5 C 1.125 -6.03125 2.109375 -4.8125 2.109375 -2.25 C 2.109375 -0.96875 1.875 0.8125 0.578125 2.03125 C 0.5625 2.0625 0.515625 2.09375 0.515625 2.140625 C 0.515625 2.171875 0.53125 2.234375 0.625 2.234375 C 0.734375 2.234375 1.546875 1.59375 2.03125 0.609375 C 2.46875 -0.25 2.671875 -1.171875 2.671875 -2.25 Z M 2.671875 -2.25 "/>
</g>
<g id="glyph-6-0">
<path d="M -3.984375 -5.09375 C -4.140625 -5.125 -4.15625 -5.125 -4.234375 -5.125 C -4.421875 -5.125 -4.515625 -4.984375 -4.515625 -4.828125 C -4.515625 -4.71875 -4.453125 -4.546875 -4.296875 -4.453125 C -4.234375 -4.4375 -3.921875 -4.359375 -3.734375 -4.3125 C -3.453125 -4.234375 -3.171875 -4.171875 -2.890625 -4.109375 L -1 -3.625 C -0.84375 -3.59375 -0.109375 -3.140625 -0.109375 -2.453125 C -0.109375 -1.921875 -0.578125 -1.796875 -0.96875 -1.796875 C -1.4375 -1.796875 -2.09375 -1.984375 -3.015625 -2.328125 C -3.4375 -2.5 -3.5625 -2.546875 -3.765625 -2.546875 C -4.234375 -2.546875 -4.625 -2.203125 -4.625 -1.6875 C -4.625 -0.6875 -3.109375 -0.296875 -3.015625 -0.296875 C -2.90625 -0.296875 -2.90625 -0.40625 -2.90625 -0.421875 C -2.90625 -0.53125 -2.9375 -0.546875 -3.09375 -0.59375 C -4.078125 -0.875 -4.390625 -1.296875 -4.390625 -1.65625 C -4.390625 -1.734375 -4.390625 -1.921875 -4.0625 -1.921875 C -3.796875 -1.921875 -3.53125 -1.8125 -3.328125 -1.734375 C -2.21875 -1.3125 -1.625 -1.125 -1.125 -1.125 C -0.203125 -1.125 0.109375 -1.796875 0.109375 -2.40625 C 0.109375 -2.8125 -0.0625 -3.171875 -0.359375 -3.46875 C 0.1875 -3.328125 0.703125 -3.203125 1.25 -2.78125 C 1.609375 -2.515625 1.921875 -2.109375 1.921875 -1.640625 C 1.921875 -1.484375 1.890625 -1.015625 1.46875 -0.84375 C 1.46875 -1 1.46875 -1.140625 1.34375 -1.28125 C 1.25 -1.390625 1.125 -1.5 0.921875 -1.5 C 0.59375 -1.5 0.5625 -1.21875 0.5625 -1.109375 C 0.5625 -0.875 0.71875 -0.515625 1.234375 -0.515625 C 1.765625 -0.515625 2.140625 -0.984375 2.140625 -1.640625 C 2.140625 -2.71875 1.1875 -3.796875 0.015625 -4.078125 Z M -3.984375 -5.09375 "/>
</g>
<g id="glyph-7-0">
<path d="M 1.015625 -3.3125 C 1.21875 -3.265625 1.421875 -3.234375 1.625 -3.234375 C 1.75 -3.234375 2.09375 -3.234375 2.46875 -3.4375 C 2.5625 -3.5 2.9375 -3.75 2.9375 -3.875 C 2.9375 -3.953125 2.875 -3.96875 2.859375 -3.96875 C 2.828125 -3.96875 2.828125 -3.96875 2.765625 -3.953125 C 2.546875 -3.859375 2.25 -3.78125 1.859375 -3.78125 C 1.5625 -3.78125 1.234375 -3.828125 0.96875 -3.9375 C 0.90625 -3.953125 0.890625 -3.96875 0.859375 -3.96875 C 0.78125 -3.96875 0.78125 -3.90625 0.78125 -3.8125 L 0.78125 -2.015625 C 0.78125 -1.921875 0.78125 -1.84375 0.890625 -1.84375 C 0.9375 -1.84375 0.96875 -1.875 1 -1.921875 C 1.15625 -2.109375 1.421875 -2.3125 1.875 -2.3125 C 2.609375 -2.3125 2.609375 -1.421875 2.609375 -1.21875 C 2.609375 -0.984375 2.59375 -0.65625 2.40625 -0.40625 C 2.21875 -0.1875 1.9375 -0.09375 1.6875 -0.09375 C 1.265625 -0.09375 0.859375 -0.3125 0.71875 -0.65625 C 1.015625 -0.671875 1.046875 -0.90625 1.046875 -0.96875 C 1.046875 -1.140625 0.921875 -1.28125 0.734375 -1.28125 C 0.6875 -1.28125 0.4375 -1.25 0.4375 -0.953125 C 0.4375 -0.40625 0.953125 0.125 1.703125 0.125 C 2.515625 0.125 3.21875 -0.453125 3.21875 -1.203125 C 3.21875 -1.875 2.65625 -2.5 1.890625 -2.5 C 1.5 -2.5 1.203125 -2.375 1.015625 -2.21875 Z M 1.015625 -3.3125 "/>
</g>
<g id="glyph-7-1">
<path d="M 2.140625 -3.796875 C 2.140625 -3.96875 2.125 -3.96875 1.9375 -3.96875 C 1.546875 -3.59375 0.9375 -3.59375 0.71875 -3.59375 L 0.71875 -3.359375 C 0.875 -3.359375 1.265625 -3.359375 1.625 -3.515625 L 1.625 -0.5 C 1.625 -0.3125 1.625 -0.234375 1.015625 -0.234375 L 0.765625 -0.234375 L 0.765625 0 C 1.09375 -0.03125 1.546875 -0.03125 1.890625 -0.03125 C 2.21875 -0.03125 2.6875 -0.03125 3.015625 0 L 3.015625 -0.234375 L 2.75 -0.234375 C 2.140625 -0.234375 2.140625 -0.3125 2.140625 -0.5 Z M 2.140625 -3.796875 "/>
</g>
<g id="glyph-7-2">
<path d="M 3.28125 -1.90625 C 3.28125 -2.34375 3.28125 -3.96875 1.828125 -3.96875 C 0.359375 -3.96875 0.359375 -2.34375 0.359375 -1.90625 C 0.359375 -1.46875 0.359375 0.125 1.828125 0.125 C 3.28125 0.125 3.28125 -1.46875 3.28125 -1.90625 Z M 1.828125 -0.0625 C 1.5625 -0.0625 1.15625 -0.1875 1.015625 -0.6875 C 0.921875 -1.03125 0.921875 -1.609375 0.921875 -1.984375 C 0.921875 -2.375 0.921875 -2.84375 1.015625 -3.15625 C 1.15625 -3.703125 1.609375 -3.78125 1.828125 -3.78125 C 2.09375 -3.78125 2.484375 -3.640625 2.625 -3.1875 C 2.703125 -2.875 2.71875 -2.4375 2.71875 -1.984375 C 2.71875 -1.59375 2.71875 -1 2.609375 -0.65625 C 2.453125 -0.140625 2.015625 -0.0625 1.828125 -0.0625 Z M 1.828125 -0.0625 "/>
</g>
<g id="glyph-7-3">
<path d="M 3.21875 -1.109375 L 2.984375 -1.109375 C 2.984375 -1.03125 2.921875 -0.640625 2.828125 -0.578125 C 2.78125 -0.53125 2.296875 -0.53125 2.21875 -0.53125 L 1.109375 -0.53125 L 1.875 -1.15625 C 2.078125 -1.3125 2.609375 -1.703125 2.78125 -1.875 C 2.96875 -2.0625 3.21875 -2.359375 3.21875 -2.78125 C 3.21875 -3.53125 2.53125 -3.96875 1.734375 -3.96875 C 0.96875 -3.96875 0.4375 -3.46875 0.4375 -2.90625 C 0.4375 -2.59375 0.6875 -2.5625 0.75 -2.5625 C 0.90625 -2.5625 1.078125 -2.671875 1.078125 -2.890625 C 1.078125 -3.015625 1 -3.203125 0.734375 -3.203125 C 0.875 -3.515625 1.234375 -3.734375 1.640625 -3.734375 C 2.28125 -3.734375 2.609375 -3.265625 2.609375 -2.78125 C 2.609375 -2.359375 2.328125 -1.921875 1.90625 -1.546875 L 0.5 -0.25 C 0.4375 -0.1875 0.4375 -0.1875 0.4375 0 L 3.03125 0 Z M 3.21875 -1.109375 "/>
</g>
</g>
<clipPath id="clip-0">
<path clip-rule="nonzero" d="M 39.257812 42 L 320.230469 42 L 320.230469 129 L 39.257812 129 Z M 39.257812 42 "/>
</clipPath>
<clipPath id="clip-1">
<path clip-rule="nonzero" d="M 39.257812 24.90625 L 309 24.90625 L 309 114 L 39.257812 114 Z M 39.257812 24.90625 "/>
</clipPath>
<clipPath id="clip-2">
<path clip-rule="nonzero" d="M 39.257812 49 L 291 49 L 291 132.863281 L 39.257812 132.863281 Z M 39.257812 49 "/>
</clipPath>
<clipPath id="clip-3">
<path clip-rule="nonzero" d="M 39.257812 49 L 265 49 L 265 132.863281 L 39.257812 132.863281 Z M 39.257812 49 "/>
</clipPath>
<clipPath id="clip-4">
<path clip-rule="nonzero" d="M 226 24.90625 L 227 24.90625 L 227 132.863281 L 226 132.863281 Z M 226 24.90625 "/>
</clipPath>
</defs>
<path fill="none" stroke-width="0.3985" stroke-linecap="butt" stroke-linejoin="miter" stroke="rgb(75%, 75%, 75%)" stroke-opacity="1" stroke-miterlimit="10" d="M 0.00127657 0.00143819 L 0.00127657 108.234741 M 46.949239 0.00143819 L 46.949239 108.234741 M 93.897201 0.00143819 L 93.897201 108.234741 M 140.845163 0.00143819 L 140.845163 108.234741 M 187.797041 0.00143819 L 187.797041 108.234741 M 234.745004 0.00143819 L 234.745004 108.234741 M 281.692966 0.00143819 L 281.692966 108.234741 " transform="matrix(0.997447, 0, 0, -0.997447, 39.256539, 132.864716)"/>
<path fill="none" stroke-width="0.3985" stroke-linecap="butt" stroke-linejoin="miter" stroke="rgb(75%, 75%, 75%)" stroke-opacity="1" stroke-miterlimit="10" d="M 0.00127657 0.00143819 L 281.692966 0.00143819 M 0.00127657 30.92412 L 281.692966 30.92412 M 0.00127657 61.846802 L 281.692966 61.846802 M 0.00127657 92.7734 L 281.692966 92.7734 " transform="matrix(0.997447, 0, 0, -0.997447, 39.256539, 132.864716)"/>
<path fill="none" stroke-width="0.19925" stroke-linecap="butt" stroke-linejoin="miter" stroke="rgb(50%, 50%, 50%)" stroke-opacity="1" stroke-miterlimit="10" d="M 0.00127657 0.00143819 L 0.00127657 4.250566 M 46.949239 0.00143819 L 46.949239 4.250566 M 93.897201 0.00143819 L 93.897201 4.250566 M 140.845163 0.00143819 L 140.845163 4.250566 M 187.797041 0.00143819 L 187.797041 4.250566 M 234.745004 0.00143819 L 234.745004 4.250566 M 281.692966 0.00143819 L 281.692966 4.250566 M 0.00127657 108.234741 L 0.00127657 103.981697 M 46.949239 108.234741 L 46.949239 103.981697 M 93.897201 108.234741 L 93.897201 103.981697 M 140.845163 108.234741 L 140.845163 103.981697 M 187.797041 108.234741 L 187.797041 103.981697 M 234.745004 108.234741 L 234.745004 103.981697 M 281.692966 108.234741 L 281.692966 103.981697 " transform="matrix(0.997447, 0, 0, -0.997447, 39.256539, 132.864716)"/>
<path fill="none" stroke-width="0.19925" stroke-linecap="butt" stroke-linejoin="miter" stroke="rgb(50%, 50%, 50%)" stroke-opacity="1" stroke-miterlimit="10" d="M 0.00127657 0.00143819 L 4.250404 0.00143819 M 0.00127657 30.92412 L 4.250404 30.92412 M 0.00127657 61.846802 L 4.250404 61.846802 M 0.00127657 92.7734 L 4.250404 92.7734 M 281.692966 0.00143819 L 277.443838 0.00143819 M 281.692966 30.92412 L 277.443838 30.92412 M 281.692966 61.846802 L 277.443838 61.846802 M 281.692966 92.7734 L 277.443838 92.7734 " transform="matrix(0.997447, 0, 0, -0.997447, 39.256539, 132.864716)"/>
<path fill="none" stroke-width="0.3985" stroke-linecap="butt" stroke-linejoin="miter" stroke="rgb(0%, 0%, 0%)" stroke-opacity="1" stroke-miterlimit="10" d="M 0.00127657 0.00143819 L 0.00127657 108.234741 L 281.692966 108.234741 L 281.692966 0.00143819 Z M 0.00127657 0.00143819 " transform="matrix(0.997447, 0, 0, -0.997447, 39.256539, 132.864716)"/>
<g fill="rgb(0%, 0%, 0%)" fill-opacity="1">
<use xlink:href="#glyph-0-0" x="32.565662" y="143.304001"/>
</g>
<g fill="rgb(0%, 0%, 0%)" fill-opacity="1">
<use xlink:href="#glyph-1-0" x="40.710818" y="143.304001"/>
</g>
<g fill="rgb(0%, 0%, 0%)" fill-opacity="1">
<use xlink:href="#glyph-0-0" x="75.321247" y="143.304001"/>
</g>
<g fill="rgb(0%, 0%, 0%)" fill-opacity="1">
<use xlink:href="#glyph-1-1" x="83.466402" y="143.304001"/>
</g>
<g fill="rgb(0%, 0%, 0%)" fill-opacity="1">
<use xlink:href="#glyph-2-0" x="88.703002" y="143.304001"/>
</g>
<g fill="rgb(0%, 0%, 0%)" fill-opacity="1">
<use xlink:href="#glyph-1-2" x="91.612556" y="143.304001"/>
</g>
<g fill="rgb(0%, 0%, 0%)" fill-opacity="1">
<use xlink:href="#glyph-1-1" x="130.29656" y="143.304001"/>
</g>
<g fill="rgb(0%, 0%, 0%)" fill-opacity="1">
<use xlink:href="#glyph-1-1" x="173.053142" y="143.304001"/>
</g>
<g fill="rgb(0%, 0%, 0%)" fill-opacity="1">
<use xlink:href="#glyph-2-0" x="178.289741" y="143.304001"/>
</g>
<g fill="rgb(0%, 0%, 0%)" fill-opacity="1">
<use xlink:href="#glyph-1-2" x="181.198298" y="143.304001"/>
</g>
<g fill="rgb(0%, 0%, 0%)" fill-opacity="1">
<use xlink:href="#glyph-1-0" x="223.95488" y="143.304001"/>
</g>
<g fill="rgb(0%, 0%, 0%)" fill-opacity="1">
<use xlink:href="#glyph-1-0" x="266.711463" y="143.304001"/>
</g>
<g fill="rgb(0%, 0%, 0%)" fill-opacity="1">
<use xlink:href="#glyph-2-0" x="271.948062" y="143.304001"/>
</g>
<g fill="rgb(0%, 0%, 0%)" fill-opacity="1">
<use xlink:href="#glyph-1-2" x="274.856619" y="143.304001"/>
</g>
<g fill="rgb(0%, 0%, 0%)" fill-opacity="1">
<use xlink:href="#glyph-1-3" x="317.613201" y="143.304001"/>
</g>
<g fill="rgb(0%, 0%, 0%)" fill-opacity="1">
<use xlink:href="#glyph-0-0" x="22.184229" y="135.803196"/>
</g>
<g fill="rgb(0%, 0%, 0%)" fill-opacity="1">
<use xlink:href="#glyph-1-4" x="30.329385" y="135.803196"/>
</g>
<g fill="rgb(0%, 0%, 0%)" fill-opacity="1">
<use xlink:href="#glyph-0-0" x="22.184229" y="104.958131"/>
</g>
<g fill="rgb(0%, 0%, 0%)" fill-opacity="1">
<use xlink:href="#glyph-1-3" x="30.329385" y="104.958131"/>
</g>
<g fill="rgb(0%, 0%, 0%)" fill-opacity="1">
<use xlink:href="#glyph-1-1" x="30.330382" y="74.549948"/>
</g>
<g fill="rgb(0%, 0%, 0%)" fill-opacity="1">
<use xlink:href="#glyph-1-3" x="30.330382" y="43.704883"/>
</g>
<g clip-path="url(#clip-0)">
<path fill="none" stroke-width="0.79701" stroke-linecap="butt" stroke-linejoin="miter" stroke="rgb(0%, 0%, 0%)" stroke-opacity="1" stroke-miterlimit="10" d="M 4.696856 15.529355 L 6.087124 19.543508 L 7.477391 22.7235 L 8.871575 25.366966 L 10.261842 27.618808 L 11.656026 29.584764 L 13.046293 31.33141 L 14.436561 32.897908 L 15.830745 34.319506 L 17.221012 35.623616 L 18.615196 36.821987 L 20.005463 37.942034 L 21.399647 38.979839 L 22.789915 39.954984 L 24.180182 40.871386 L 25.574366 41.736876 L 26.964633 42.555372 L 28.358817 43.334705 L 29.749084 44.074875 L 31.143268 44.783716 L 32.533536 45.45731 L 33.923803 46.107407 L 35.317987 46.726174 L 36.708254 47.32536 L 38.102438 47.901048 L 39.492706 48.457155 L 40.886889 48.989765 L 42.277157 49.510625 L 43.667424 50.011905 L 45.061608 50.49752 L 46.451875 50.967469 L 47.846059 51.421754 L 49.236327 51.86429 L 50.63051 52.295077 L 52.020778 52.714115 L 53.411045 53.125321 L 54.805229 53.520862 L 56.195497 53.90857 L 57.58968 54.288446 L 58.979948 54.656573 L 60.374131 55.016868 L 61.764399 55.36933 L 63.154666 55.71396 L 64.54885 56.050757 L 65.939118 56.379722 L 67.333301 56.70477 L 68.723569 57.021986 L 70.117753 57.33137 L 71.50802 57.636837 L 72.898288 57.930555 L 74.292471 58.224274 L 75.682739 58.514076 L 77.076922 58.796046 L 78.46719 59.070183 L 79.861374 59.34432 L 81.251641 59.610625 L 82.641909 59.873014 L 84.036092 60.131486 L 85.42636 60.386042 L 86.820544 60.636682 L 88.210811 60.883405 L 89.604995 61.122296 L 90.995262 61.361187 L 92.38553 61.596162 L 93.779713 61.82722 L 95.169981 62.054363 L 96.564165 62.281505 L 97.954432 62.500815 L 99.348616 62.720125 L 100.738883 62.935518 L 102.129151 63.146996 L 103.523335 63.354557 L 104.913602 63.562118 L 106.307786 63.765762 L 107.698053 63.969407 L 109.092237 64.16522 L 111.872772 64.556844 L 113.266956 64.74874 L 114.657223 64.93672 L 116.051407 65.120784 L 117.441674 65.308764 L 118.835858 65.488911 L 120.226126 65.669058 L 121.616393 65.845289 L 123.010577 66.02152 L 124.400844 66.197752 L 125.795028 66.370066 L 127.185295 66.538465 L 128.579479 66.706864 L 129.969747 66.875262 L 131.360014 67.039744 L 132.754198 67.200311 L 134.144465 67.360877 L 135.538649 67.521443 L 136.928917 67.682009 L 138.3231 67.834743 L 139.713368 67.991392 L 141.103635 68.144126 L 142.497819 68.29686 L 143.888086 68.445677 L 145.28227 68.594494 L 146.672538 68.743312 L 148.066721 68.888213 L 150.847256 69.178015 L 152.24144 69.319 L 153.631708 69.459985 L 155.025891 69.60097 L 156.416159 69.738038 L 157.810343 69.875107 L 159.20061 70.008259 L 160.590877 70.145328 L 161.985061 70.27848 L 163.375329 70.411633 L 164.769512 70.540869 L 166.15978 70.670105 L 167.553964 70.799341 L 170.334499 71.057813 L 171.728682 71.179217 L 173.11895 71.304537 L 174.513134 71.429857 L 175.903401 71.55126 L 177.297585 71.672664 L 180.07812 71.915471 L 181.472303 72.032959 L 182.862571 72.150446 L 184.256755 72.267933 L 185.647022 72.385421 L 187.041206 72.502908 L 189.821741 72.730051 L 191.215925 72.843622 L 192.606192 72.957193 L 194.000376 73.066848 L 195.390643 73.176503 L 196.784827 73.286158 L 199.565362 73.505467 L 200.959546 73.611206 L 202.349813 73.716945 L 203.743997 73.8266 L 205.134264 73.928422 L 206.528448 74.034161 L 207.918716 74.139899 L 209.308983 74.241722 L 210.703167 74.343544 L 212.093434 74.445366 L 213.487618 74.547189 L 214.877885 74.649011 L 216.272069 74.746917 L 217.662337 74.844824 L 219.052604 74.946646 L 220.446788 75.044552 L 221.837055 75.142458 L 223.231239 75.236448 L 224.621507 75.334354 L 226.01569 75.428344 L 227.405958 75.522334 L 228.796225 75.62024 L 230.190409 75.710314 L 231.580676 75.804304 L 232.97486 75.898294 L 234.365128 75.988368 L 235.759311 76.082357 L 238.539846 76.262505 L 239.93403 76.352578 L 241.324298 76.442652 L 242.718481 76.532726 L 244.108749 76.618883 L 245.502932 76.708957 L 248.283467 76.881272 L 249.677651 76.967429 L 251.067919 77.053587 L 252.462102 77.139744 L 253.85237 77.225901 L 255.246554 77.308143 L 256.636821 77.3943 L 258.027089 77.476541 L 259.421272 77.558782 L 260.81154 77.64494 L 262.205723 77.727181 L 263.595991 77.809422 L 264.990175 77.887747 L 267.77071 78.052229 L 269.164893 78.130554 L 270.555161 78.208879 L 271.949345 78.287204 L 273.339612 78.369445 L 274.733796 78.44777 L 277.514331 78.60442 L 278.908514 78.678829 L 280.298782 78.757154 L 281.692966 78.831562 " transform="matrix(0.997447, 0, 0, -0.997447, 39.256539, 132.864716)"/>
</g>
<g clip-path="url(#clip-1)">
<path fill="none" stroke-width="0.79701" stroke-linecap="butt" stroke-linejoin="miter" stroke="rgb(0%, 0%, 69.999695%)" stroke-opacity="1" stroke-dasharray="2.98883 2.98883" stroke-miterlimit="10" d="M 4.696856 30.223112 L 7.003525 31.899265 L 9.314111 33.497094 L 11.624696 35.020514 L 13.923533 36.469525 L 16.234118 37.848044 L 18.544703 39.163902 L 20.855289 40.417101 L 23.165874 41.615473 L 25.464711 42.7551 L 27.775296 43.839901 L 30.085882 44.877706 L 32.396467 45.872433 L 34.703136 46.816248 L 37.013722 47.724817 L 39.324307 48.590308 L 41.623144 49.420552 L 43.933729 50.21555 L 46.244314 50.975302 L 48.5549 51.70764 L 50.865485 52.408648 L 53.164322 53.082242 L 55.474907 53.728423 L 57.785493 54.355022 L 60.096078 54.954208 L 62.402747 55.533812 L 64.713332 56.093836 L 67.023918 56.634278 L 69.326671 57.159055 L 71.63334 57.664251 L 73.943925 58.153781 L 76.254511 58.627647 L 78.565096 59.089764 L 80.863933 59.536216 L 83.174518 59.974836 L 85.485104 60.397791 L 87.795689 60.808996 L 90.106274 61.208454 L 92.412943 61.600078 L 94.723529 61.98387 L 97.026282 62.355914 L 99.332951 62.720125 L 101.643536 63.072587 L 103.954122 63.421133 L 106.264707 63.761846 L 108.563544 64.090811 L 110.874129 64.419776 L 113.184714 64.736992 L 115.4953 65.050291 L 117.805885 65.355759 L 120.112554 65.657309 L 122.42314 65.951028 L 124.725893 66.24083 L 127.036478 66.526716 L 129.343147 66.80477 L 131.653733 67.082823 L 133.964318 67.353044 L 136.263155 67.623265 L 143.194911 68.410431 L 145.505496 68.668903 L 147.816082 68.923459 L 150.122751 69.181931 L 152.425504 69.436487 L 154.736089 69.69496 L 157.042758 69.953432 L 159.353344 70.211904 L 161.663929 70.474293 L 163.966682 70.740597 L 166.273351 71.010818 L 168.583936 71.284956 L 170.894522 71.566925 L 173.205107 71.860644 L 175.515693 72.158279 L 177.822362 72.467662 L 180.125115 72.788794 L 182.4357 73.125591 L 184.746285 73.474137 L 187.052955 73.838348 L 189.36354 74.22214 L 191.666293 74.625514 L 193.972962 75.052385 L 196.283547 75.498837 L 198.594133 75.976619 L 200.904718 76.477898 L 203.215304 77.014424 L 205.525889 77.58228 L 207.824726 78.185382 L 210.135311 78.831562 L 212.445896 79.516906 L 214.752566 80.245327 L 217.063151 81.02466 L 219.365904 81.850988 L 221.672573 82.73606 L 223.983158 83.679876 L 226.293744 84.682435 L 228.604329 85.75157 L 230.914915 86.895114 L 233.2255 88.10915 L 235.524337 89.401512 L 237.834922 90.78003 L 240.145507 92.244706 L 242.456093 93.803373 L 244.762762 95.459945 L 247.065515 97.218339 L 249.3761 99.086389 L 251.682769 101.06801 L 253.993355 103.171034 L 256.30394 105.403294 L 258.614525 107.764791 " transform="matrix(0.997447, 0, 0, -0.997447, 39.256539, 132.864716)"/>
</g>
<g clip-path="url(#clip-2)">
<path fill="none" stroke-width="0.79701" stroke-linecap="butt" stroke-linejoin="miter" stroke="rgb(84.999084%, 42.498779%, 0%)" stroke-opacity="1" stroke-dasharray="2.98883 1.99255 0.79701 1.99255" stroke-miterlimit="10" d="M 4.696856 23.495 L 7.003525 26.389107 L 9.314111 29.005159 L 11.624696 31.370572 L 13.923533 33.516675 L 16.234118 35.474798 L 18.544703 37.260607 L 20.855289 38.901514 L 23.165874 40.413185 L 25.464711 41.807369 L 27.775296 43.09973 L 30.085882 44.305934 L 32.396467 45.42598 L 34.703136 46.479451 L 37.013722 47.466345 L 39.324307 48.394495 L 41.623144 49.275651 L 43.933729 50.105895 L 46.244314 50.896977 L 48.5549 51.648896 L 50.865485 52.369485 L 53.164322 53.054829 L 55.474907 53.712758 L 57.785493 54.343274 L 60.096078 54.946376 L 62.402747 55.529896 L 64.713332 56.089919 L 67.023918 56.634278 L 69.326671 57.159055 L 71.63334 57.664251 L 73.943925 58.153781 L 76.254511 58.627647 L 78.565096 59.089764 L 80.863933 59.536216 L 83.174518 59.974836 L 85.485104 60.397791 L 87.795689 60.808996 L 90.106274 61.208454 L 92.412943 61.600078 L 94.723529 61.98387 L 97.026282 62.355914 L 99.332951 62.720125 L 101.643536 63.072587 L 103.954122 63.421133 L 106.264707 63.761846 L 108.563544 64.090811 L 110.874129 64.415859 L 113.184714 64.736992 L 115.4953 65.050291 L 117.805885 65.355759 L 120.112554 65.653393 L 122.42314 65.947112 L 124.725893 66.236914 L 127.036478 66.5228 L 129.343147 66.800853 L 131.653733 67.074991 L 133.964318 67.341295 L 136.263155 67.6076 L 138.57374 67.866072 L 140.884325 68.120628 L 143.194911 68.371268 L 145.505496 68.617992 L 147.816082 68.860799 L 150.122751 69.09969 L 152.425504 69.334665 L 154.736089 69.561807 L 157.042758 69.788949 L 159.353344 70.008259 L 161.663929 70.223653 L 163.966682 70.43513 L 166.273351 70.634859 L 168.583936 70.830671 L 170.894522 71.014735 L 173.205107 71.190966 L 175.515693 71.351532 L 177.822362 71.496433 L 180.125115 71.621753 L 182.4357 71.723575 L 184.746285 71.794068 L 187.052955 71.829314 L 189.36354 71.817565 L 191.666293 71.754905 L 193.972962 71.629585 L 196.283547 71.422024 L 198.594133 71.12439 L 200.904718 70.709267 L 203.215304 70.157077 L 205.525889 69.44432 L 207.824726 68.535751 L 210.135311 67.400039 L 212.445896 65.99019 L 214.752566 64.263126 L 217.063151 62.156185 L 219.365904 59.610625 L 221.672573 56.54812 L 223.983158 52.890346 L 226.293744 48.531564 L 228.604329 43.366035 L 230.914915 37.272355 L 233.2255 30.097792 L 235.524337 21.693527 L 237.834922 11.867665 L 240.145507 0.41656 " transform="matrix(0.997447, 0, 0, -0.997447, 39.256539, 132.864716)"/>
</g>
<g clip-path="url(#clip-3)">
<path fill="none" stroke-width="0.79701" stroke-linecap="butt" stroke-linejoin="miter" stroke="rgb(0%, 44.999695%, 0%)" stroke-opacity="1" stroke-miterlimit="10" d="M 4.696856 18.638855 L 7.003525 23.06813 L 9.314111 26.737653 L 11.624696 29.831487 L 13.923533 32.482786 L 16.234118 34.777706 L 18.544703 36.79849 L 20.855289 38.596047 L 23.165874 40.213456 L 25.464711 41.678133 L 27.775296 43.017489 L 30.085882 44.251107 L 32.396467 45.39465 L 34.703136 46.455953 L 37.013722 47.454596 L 39.324307 48.386663 L 41.623144 49.271734 L 43.933729 50.105895 L 46.244314 50.896977 L 48.5549 51.648896 L 50.865485 52.369485 L 53.164322 53.054829 L 55.474907 53.712758 L 57.785493 54.343274 L 60.096078 54.946376 L 62.402747 55.529896 L 64.713332 56.089919 L 67.023918 56.634278 L 69.326671 57.159055 L 71.63334 57.664251 L 73.943925 58.153781 L 76.254511 58.627647 L 78.565096 59.089764 L 80.863933 59.536216 L 83.174518 59.974836 L 85.485104 60.397791 L 87.795689 60.808996 L 90.106274 61.208454 L 92.412943 61.600078 L 94.723529 61.98387 L 97.026282 62.355914 L 99.332951 62.720125 L 101.643536 63.072587 L 103.954122 63.421133 L 106.264707 63.761846 L 108.563544 64.090811 L 110.874129 64.415859 L 113.184714 64.736992 L 115.4953 65.050291 L 117.805885 65.355759 L 120.112554 65.653393 L 122.42314 65.947112 L 124.725893 66.236914 L 127.036478 66.5228 L 129.343147 66.800853 L 131.653733 67.074991 L 133.964318 67.341295 L 136.263155 67.6076 L 138.57374 67.866072 L 140.884325 68.120628 L 143.194911 68.371268 L 147.816082 68.864715 L 150.122751 69.103606 L 152.425504 69.338581 L 154.736089 69.56964 L 157.042758 69.800698 L 161.663929 70.24715 L 163.966682 70.46646 L 166.273351 70.681854 L 168.583936 70.893331 L 170.894522 71.100892 L 173.205107 71.300621 L 175.515693 71.496433 L 177.822362 71.684413 L 180.125115 71.856728 L 182.4357 72.005545 L 184.746285 72.119116 L 187.052955 72.181776 L 189.36354 72.166111 L 191.666293 72.017294 L 193.972962 71.672664 L 196.283547 71.026483 L 198.594133 69.918186 L 200.904718 68.120628 L 203.215304 65.293099 L 205.525889 60.9304 L 207.824726 54.323692 L 210.135311 44.446919 L 212.445896 29.827571 L 214.752566 8.409619 " transform="matrix(0.997447, 0, 0, -0.997447, 39.256539, 132.864716)"/>
</g>
<g clip-path="url(#clip-4)">
<path fill="none" stroke-width="0.79701" stroke-linecap="butt" stroke-linejoin="miter" stroke="rgb(69.999695%, 0%, 0%)" stroke-opacity="1" stroke-dasharray="2.98883 2.98883" stroke-miterlimit="10" d="M 187.797041 0.00143819 L 187.797041 108.234741 " transform="matrix(0.997447, 0, 0, -0.997447, 39.256539, 132.864716)"/>
</g>
<g fill="rgb(69.999695%, 0%, 0%)" fill-opacity="1">
<use xlink:href="#glyph-3-0" x="234.441045" y="38.768516"/>
<use xlink:href="#glyph-3-1" x="238.031856" y="38.768516"/>
<use xlink:href="#glyph-3-2" x="243.157739" y="38.768516"/>
</g>
<g fill="rgb(69.999695%, 0%, 0%)" fill-opacity="1">
<use xlink:href="#glyph-3-3" x="250.330383" y="38.768516"/>
</g>
<g fill="rgb(69.999695%, 0%, 0%)" fill-opacity="1">
<use xlink:href="#glyph-3-4" x="256.739981" y="38.768516"/>
<use xlink:href="#glyph-3-5" x="261.354173" y="38.768516"/>
<use xlink:href="#glyph-3-5" x="263.921602" y="38.768516"/>
</g>
<g fill="rgb(69.999695%, 0%, 0%)" fill-opacity="1">
<use xlink:href="#glyph-3-4" x="269.559175" y="38.768516"/>
<use xlink:href="#glyph-3-0" x="274.173367" y="38.768516"/>
</g>
<g fill="rgb(69.999695%, 0%, 0%)" fill-opacity="1">
<use xlink:href="#glyph-4-0" x="280.852275" y="38.768516"/>
</g>
<g fill="rgb(69.999695%, 0%, 0%)" fill-opacity="1">
<use xlink:href="#glyph-5-0" x="288.644335" y="38.768516"/>
</g>
<g fill="rgb(69.999695%, 0%, 0%)" fill-opacity="1">
<use xlink:href="#glyph-5-1" x="298.375432" y="38.768516"/>
</g>
<g fill="rgb(0%, 0%, 0%)" fill-opacity="1">
<use xlink:href="#glyph-2-1" x="176.751677" y="155.865854"/>
</g>
<g fill="rgb(0%, 0%, 0%)" fill-opacity="1">
<use xlink:href="#glyph-6-0" x="12.966817" y="81.6418"/>
</g>
<path fill-rule="nonzero" fill="rgb(100%, 100%, 100%)" fill-opacity="1" stroke-width="0.3985" stroke-linecap="butt" stroke-linejoin="miter" stroke="rgb(0%, 0%, 0%)" stroke-opacity="1" stroke-miterlimit="10" d="M 57.499607 111.681037 L 224.194636 111.681037 L 224.194636 127.976539 L 57.499607 127.976539 Z M 57.499607 111.681037 " transform="matrix(0.997447, 0, 0, -0.997447, 39.256539, 132.864716)"/>
<path fill="none" stroke-width="0.79701" stroke-linecap="butt" stroke-linejoin="miter" stroke="rgb(0%, 0%, 0%)" stroke-opacity="1" stroke-miterlimit="10" d="M -0.00175651 -0.000169953 L 17.006502 -0.000169953 " transform="matrix(0.997447, 0, 0, -0.997447, 99.986127, 13.34358)"/>
<g fill="rgb(0%, 0%, 0%)" fill-opacity="1">
<use xlink:href="#glyph-3-5" x="119.33561" y="15.924974"/>
<use xlink:href="#glyph-3-6" x="121.90304" y="15.924974"/>
</g>
<g fill="rgb(0%, 0%, 0%)" fill-opacity="1">
<use xlink:href="#glyph-5-2" x="127.028922" y="15.924974"/>
<use xlink:href="#glyph-5-1" x="130.610756" y="15.924974"/>
</g>
<g fill="rgb(0%, 0%, 0%)" fill-opacity="1">
<use xlink:href="#glyph-5-3" x="137.262733" y="15.924974"/>
</g>
<g fill="rgb(0%, 0%, 0%)" fill-opacity="1">
<use xlink:href="#glyph-4-0" x="146.506079" y="15.924974"/>
</g>
<g fill="rgb(0%, 0%, 0%)" fill-opacity="1">
<use xlink:href="#glyph-5-4" x="151.735695" y="15.924974"/>
</g>
<path fill="none" stroke-width="0.79701" stroke-linecap="butt" stroke-linejoin="miter" stroke="rgb(0%, 0%, 69.999695%)" stroke-opacity="1" stroke-dasharray="2.98883 2.98883" stroke-miterlimit="10" d="M 0.00153316 -0.000169953 L 17.009791 -0.000169953 " transform="matrix(0.997447, 0, 0, -0.997447, 157.709408, 13.34358)"/>
<g fill="rgb(0%, 0%, 0%)" fill-opacity="1">
<use xlink:href="#glyph-4-1" x="177.058891" y="15.62574"/>
</g>
<g fill="rgb(0%, 0%, 0%)" fill-opacity="1">
<use xlink:href="#glyph-7-0" x="182.948818" y="16.623188"/>
</g>
<path fill="none" stroke-width="0.79701" stroke-linecap="butt" stroke-linejoin="miter" stroke="rgb(84.999084%, 42.498779%, 0%)" stroke-opacity="1" stroke-dasharray="2.98883 1.99255 0.79701 1.99255" stroke-miterlimit="10" d="M 0.00144908 -0.000169953 L 17.009707 -0.000169953 " transform="matrix(0.997447, 0, 0, -0.997447, 189.475117, 13.34358)"/>
<g fill="rgb(0%, 0%, 0%)" fill-opacity="1">
<use xlink:href="#glyph-4-1" x="208.8246" y="15.62574"/>
</g>
<g fill="rgb(0%, 0%, 0%)" fill-opacity="1">
<use xlink:href="#glyph-7-1" x="214.715525" y="16.623188"/>
<use xlink:href="#glyph-7-2" x="218.358516" y="16.623188"/>
</g>
<path fill="none" stroke-width="0.79701" stroke-linecap="butt" stroke-linejoin="miter" stroke="rgb(0%, 44.999695%, 0%)" stroke-opacity="1" stroke-miterlimit="10" d="M -0.00169332 -0.000169953 L 17.006565 -0.000169953 " transform="matrix(0.997447, 0, 0, -0.997447, 224.884502, 13.34358)"/>
<g fill="rgb(0%, 0%, 0%)" fill-opacity="1">
<use xlink:href="#glyph-4-1" x="244.233985" y="15.62574"/>
</g>
<g fill="rgb(0%, 0%, 0%)" fill-opacity="1">
<use xlink:href="#glyph-7-3" x="250.124909" y="16.623188"/>
<use xlink:href="#glyph-7-2" x="253.7679" y="16.623188"/>
</g>
</svg>
