<?xml version="1.0" encoding="UTF-8"?>
<svg xmlns="http://www.w3.org/2000/svg" xmlns:xlink="http://www.w3.org/1999/xlink" width="314.71pt" height="104.4pt" viewBox="0 0 314.71 104.4">
<defs>
<g>
<g id="glyph-0-0">
<path d="M 4.796875 -3.34375 C 4.796875 -4.171875 4.75 -5.015625 4.390625 -5.78125 C 3.90625 -6.78125 3.046875 -6.953125 2.609375 -6.953125 C 1.984375 -6.953125 1.21875 -6.6875 0.796875 -5.703125 C 0.453125 -4.984375 0.40625 -4.171875 0.40625 -3.34375 C 0.40625 -2.5625 0.453125 -1.625 0.875 -0.828125 C 1.328125 0.015625 2.09375 0.234375 2.59375 0.234375 C 3.15625 0.234375 3.953125 0.015625 4.421875 -0.984375 C 4.75 -1.703125 4.796875 -2.515625 4.796875 -3.34375 Z M 2.59375 0 C 2.1875 0 1.578125 -0.265625 1.390625 -1.265625 C 1.265625 -1.890625 1.265625 -2.84375 1.265625 -3.46875 C 1.265625 -4.140625 1.265625 -4.828125 1.359375 -5.390625 C 1.5625 -6.625 2.34375 -6.71875 2.59375 -6.71875 C 2.9375 -6.71875 3.625 -6.53125 3.828125 -5.5 C 3.9375 -4.921875 3.9375 -4.125 3.9375 -3.46875 C 3.9375 -2.6875 3.9375 -1.96875 3.8125 -1.296875 C 3.65625 -0.3125 3.0625 0 2.59375 0 Z M 2.59375 0 "/>
</g>
<g id="glyph-0-1">
<path d="M 4.6875 -2.09375 C 4.6875 -3.34375 3.828125 -4.390625 2.703125 -4.390625 C 2.203125 -4.390625 1.75 -4.21875 1.375 -3.84375 L 1.375 -5.890625 C 1.59375 -5.828125 1.9375 -5.75 2.265625 -5.75 C 3.546875 -5.75 4.28125 -6.703125 4.28125 -6.84375 C 4.28125 -6.90625 4.25 -6.953125 4.171875 -6.953125 C 4.171875 -6.953125 4.140625 -6.953125 4.09375 -6.921875 C 3.875 -6.828125 3.375 -6.625 2.671875 -6.625 C 2.25 -6.625 1.78125 -6.6875 1.28125 -6.90625 C 1.203125 -6.9375 1.171875 -6.9375 1.15625 -6.9375 C 1.046875 -6.9375 1.046875 -6.859375 1.046875 -6.6875 L 1.046875 -3.59375 C 1.046875 -3.40625 1.046875 -3.328125 1.203125 -3.328125 C 1.265625 -3.328125 1.296875 -3.359375 1.34375 -3.421875 C 1.453125 -3.59375 1.84375 -4.15625 2.6875 -4.15625 C 3.21875 -4.15625 3.484375 -3.671875 3.5625 -3.484375 C 3.734375 -3.09375 3.75 -2.6875 3.75 -2.171875 C 3.75 -1.8125 3.75 -1.171875 3.5 -0.734375 C 3.25 -0.328125 2.875 -0.0625 2.390625 -0.0625 C 1.625 -0.0625 1.03125 -0.609375 0.859375 -1.234375 C 0.890625 -1.21875 0.921875 -1.203125 1.03125 -1.203125 C 1.375 -1.203125 1.5625 -1.46875 1.5625 -1.71875 C 1.5625 -1.96875 1.375 -2.234375 1.03125 -2.234375 C 0.890625 -2.234375 0.515625 -2.15625 0.515625 -1.6875 C 0.515625 -0.78125 1.234375 0.234375 2.40625 0.234375 C 3.625 0.234375 4.6875 -0.765625 4.6875 -2.09375 Z M 4.6875 -2.09375 "/>
</g>
<g id="glyph-0-2">
<path d="M 3.0625 -6.6875 C 3.0625 -6.9375 3.0625 -6.953125 2.828125 -6.953125 C 2.1875 -6.28125 1.265625 -6.28125 0.921875 -6.28125 L 0.921875 -5.953125 C 1.140625 -5.953125 1.75 -5.953125 2.296875 -6.234375 L 2.296875 -0.828125 C 2.296875 -0.453125 2.265625 -0.328125 1.328125 -0.328125 L 0.984375 -0.328125 L 0.984375 0 C 1.359375 -0.03125 2.265625 -0.03125 2.6875 -0.03125 C 3.09375 -0.03125 4.015625 -0.03125 4.375 0 L 4.375 -0.328125 L 4.046875 -0.328125 C 3.09375 -0.328125 3.0625 -0.4375 3.0625 -0.828125 Z M 3.0625 -6.6875 "/>
</g>
<g id="glyph-0-3">
<path d="M 1.328125 -0.796875 L 2.4375 -1.875 C 4.0625 -3.3125 4.6875 -3.875 4.6875 -4.921875 C 4.6875 -6.109375 3.75 -6.953125 2.46875 -6.953125 C 1.296875 -6.953125 0.515625 -5.984375 0.515625 -5.0625 C 0.515625 -4.484375 1.046875 -4.484375 1.078125 -4.484375 C 1.25 -4.484375 1.625 -4.609375 1.625 -5.03125 C 1.625 -5.296875 1.4375 -5.578125 1.0625 -5.578125 C 0.984375 -5.578125 0.953125 -5.578125 0.921875 -5.5625 C 1.171875 -6.234375 1.734375 -6.625 2.34375 -6.625 C 3.28125 -6.625 3.734375 -5.78125 3.734375 -4.921875 C 3.734375 -4.09375 3.21875 -3.265625 2.640625 -2.625 L 0.640625 -0.390625 C 0.515625 -0.265625 0.515625 -0.25 0.515625 0 L 4.390625 0 L 4.6875 -1.8125 L 4.421875 -1.8125 C 4.375 -1.5 4.296875 -1.046875 4.203125 -0.890625 C 4.125 -0.796875 3.4375 -0.796875 3.203125 -0.796875 Z M 1.328125 -0.796875 "/>
</g>
<g id="glyph-0-4">
<path d="M 3.03125 -3.671875 C 3.875 -3.953125 4.484375 -4.6875 4.484375 -5.515625 C 4.484375 -6.359375 3.5625 -6.953125 2.5625 -6.953125 C 1.515625 -6.953125 0.71875 -6.328125 0.71875 -5.53125 C 0.71875 -5.1875 0.953125 -4.984375 1.25 -4.984375 C 1.578125 -4.984375 1.78125 -5.21875 1.78125 -5.515625 C 1.78125 -6.046875 1.296875 -6.046875 1.140625 -6.046875 C 1.46875 -6.5625 2.15625 -6.6875 2.53125 -6.6875 C 2.953125 -6.6875 3.53125 -6.453125 3.53125 -5.515625 C 3.53125 -5.390625 3.5 -4.796875 3.234375 -4.328125 C 2.921875 -3.828125 2.5625 -3.796875 2.3125 -3.78125 C 2.21875 -3.78125 1.96875 -3.75 1.90625 -3.75 C 1.8125 -3.75 1.75 -3.734375 1.75 -3.625 C 1.75 -3.515625 1.8125 -3.515625 2 -3.515625 L 2.453125 -3.515625 C 3.3125 -3.515625 3.6875 -2.8125 3.6875 -1.78125 C 3.6875 -0.359375 2.96875 -0.0625 2.515625 -0.0625 C 2.0625 -0.0625 1.28125 -0.234375 0.921875 -0.859375 C 1.28125 -0.796875 1.609375 -1.03125 1.609375 -1.4375 C 1.609375 -1.8125 1.328125 -2.015625 1.015625 -2.015625 C 0.765625 -2.015625 0.4375 -1.875 0.4375 -1.40625 C 0.4375 -0.453125 1.40625 0.234375 2.546875 0.234375 C 3.8125 0.234375 4.765625 -0.71875 4.765625 -1.78125 C 4.765625 -2.640625 4.109375 -3.453125 3.03125 -3.671875 Z M 3.03125 -3.671875 "/>
</g>
<g id="glyph-0-5">
<path d="M 3.0625 -1.71875 L 3.0625 -0.8125 C 3.0625 -0.4375 3.046875 -0.328125 2.28125 -0.328125 L 2.0625 -0.328125 L 2.0625 0 C 2.484375 -0.03125 3.03125 -0.03125 3.46875 -0.03125 C 3.90625 -0.03125 4.453125 -0.03125 4.890625 0 L 4.890625 -0.328125 L 4.671875 -0.328125 C 3.890625 -0.328125 3.875 -0.4375 3.875 -0.8125 L 3.875 -1.71875 L 4.921875 -1.71875 L 4.921875 -2.046875 L 3.875 -2.046875 L 3.875 -6.796875 C 3.875 -7 3.875 -7.0625 3.703125 -7.0625 C 3.609375 -7.0625 3.578125 -7.0625 3.5 -6.9375 L 0.296875 -2.046875 L 0.296875 -1.71875 Z M 3.125 -2.046875 L 0.578125 -2.046875 L 3.125 -5.9375 Z M 3.125 -2.046875 "/>
</g>
<g id="glyph-0-6">
<path d="M 1.375 -3.421875 L 1.375 -3.671875 C 1.375 -6.3125 2.671875 -6.6875 3.203125 -6.6875 C 3.453125 -6.6875 3.890625 -6.625 4.125 -6.265625 C 3.96875 -6.265625 3.546875 -6.265625 3.546875 -5.796875 C 3.546875 -5.484375 3.796875 -5.328125 4.03125 -5.328125 C 4.203125 -5.328125 4.515625 -5.421875 4.515625 -5.828125 C 4.515625 -6.453125 4.046875 -6.953125 3.1875 -6.953125 C 1.84375 -6.953125 0.4375 -5.609375 0.4375 -3.296875 C 0.4375 -0.515625 1.65625 0.234375 2.625 0.234375 C 3.78125 0.234375 4.765625 -0.75 4.765625 -2.125 C 4.765625 -3.453125 3.84375 -4.453125 2.6875 -4.453125 C 1.96875 -4.453125 1.59375 -3.921875 1.375 -3.421875 Z M 2.625 -0.0625 C 1.96875 -0.0625 1.65625 -0.6875 1.59375 -0.84375 C 1.40625 -1.34375 1.40625 -2.171875 1.40625 -2.359375 C 1.40625 -3.171875 1.734375 -4.21875 2.671875 -4.21875 C 2.84375 -4.21875 3.3125 -4.21875 3.640625 -3.5625 C 3.828125 -3.1875 3.828125 -2.65625 3.828125 -2.140625 C 3.828125 -1.640625 3.828125 -1.109375 3.65625 -0.734375 C 3.34375 -0.109375 2.859375 -0.0625 2.625 -0.0625 Z M 2.625 -0.0625 "/>
</g>
<g id="glyph-0-7">
<path d="M 4.96875 -6.359375 C 5.0625 -6.484375 5.0625 -6.5 5.0625 -6.71875 L 2.53125 -6.71875 C 1.25 -6.71875 1.234375 -6.859375 1.1875 -7.0625 L 0.921875 -7.0625 L 0.578125 -4.90625 L 0.84375 -4.90625 C 0.875 -5.078125 0.96875 -5.734375 1.109375 -5.859375 C 1.171875 -5.921875 2 -5.921875 2.125 -5.921875 L 4.296875 -5.921875 C 4.171875 -5.75 3.34375 -4.609375 3.125 -4.265625 C 2.1875 -2.859375 1.84375 -1.40625 1.84375 -0.34375 C 1.84375 -0.234375 1.84375 0.234375 2.3125 0.234375 C 2.796875 0.234375 2.796875 -0.234375 2.796875 -0.34375 L 2.796875 -0.875 C 2.796875 -1.453125 2.828125 -2.03125 2.90625 -2.59375 C 2.953125 -2.828125 3.09375 -3.71875 3.5625 -4.375 Z M 4.96875 -6.359375 "/>
</g>
<g id="glyph-1-0">
<path d="M 2 -0.546875 C 2 -0.859375 1.75 -1.109375 1.453125 -1.109375 C 1.140625 -1.109375 0.890625 -0.859375 0.890625 -0.546875 C 0.890625 -0.25 1.140625 0 1.453125 0 C 1.75 0 2 -0.25 2 -0.546875 Z M 2 -0.546875 "/>
</g>
<g id="glyph-1-1">
<path d="M 0.921875 -0.609375 C 0.890625 -0.453125 0.828125 -0.21875 0.828125 -0.171875 C 0.828125 0.015625 0.96875 0.109375 1.125 0.109375 C 1.25 0.109375 1.4375 0.03125 1.515625 -0.171875 C 1.53125 -0.203125 1.65625 -0.6875 1.71875 -0.953125 L 1.9375 -1.890625 C 2 -2.125 2.0625 -2.34375 2.125 -2.59375 C 2.15625 -2.765625 2.25 -3.0625 2.25 -3.109375 C 2.40625 -3.4375 2.96875 -4.390625 3.953125 -4.390625 C 4.421875 -4.390625 4.515625 -4 4.515625 -3.65625 C 4.515625 -3 4.015625 -1.671875 3.84375 -1.21875 C 3.75 -0.984375 3.734375 -0.859375 3.734375 -0.734375 C 3.734375 -0.25 4.109375 0.109375 4.59375 0.109375 C 5.578125 0.109375 5.953125 -1.40625 5.953125 -1.5 C 5.953125 -1.59375 5.859375 -1.59375 5.828125 -1.59375 C 5.734375 -1.59375 5.734375 -1.5625 5.671875 -1.40625 C 5.46875 -0.703125 5.125 -0.109375 4.609375 -0.109375 C 4.4375 -0.109375 4.359375 -0.21875 4.359375 -0.453125 C 4.359375 -0.71875 4.453125 -0.96875 4.546875 -1.203125 C 4.75 -1.75 5.1875 -2.90625 5.1875 -3.5 C 5.1875 -4.203125 4.734375 -4.609375 3.984375 -4.609375 C 3.046875 -4.609375 2.53125 -3.953125 2.359375 -3.703125 C 2.3125 -4.296875 1.875 -4.609375 1.40625 -4.609375 C 0.921875 -4.609375 0.71875 -4.203125 0.609375 -4.015625 C 0.453125 -3.65625 0.296875 -3.046875 0.296875 -3 C 0.296875 -2.90625 0.40625 -2.90625 0.421875 -2.90625 C 0.53125 -2.90625 0.546875 -2.90625 0.609375 -3.140625 C 0.78125 -3.875 0.984375 -4.390625 1.375 -4.390625 C 1.578125 -4.390625 1.6875 -4.25 1.6875 -3.90625 C 1.6875 -3.6875 1.65625 -3.5625 1.53125 -3.03125 Z M 0.921875 -0.609375 "/>
</g>
<g id="glyph-2-0">
<path d="M -7.125 -5.390625 C -7.140625 -5.390625 -7.25 -5.390625 -7.25 -5.25 C -7.25 -5.09375 -7.15625 -4.109375 -7.125 -3.921875 C -7.125 -3.84375 -7.0625 -3.78125 -6.9375 -3.78125 C -6.8125 -3.78125 -6.8125 -3.875 -6.8125 -4.03125 C -6.8125 -4.53125 -6.734375 -4.546875 -6.625 -4.546875 L -6.421875 -4.515625 L -3.953125 -3.890625 C -4.328125 -3.703125 -4.609375 -3.40625 -4.609375 -2.9375 C -4.609375 -1.71875 -3.078125 -0.421875 -1.5625 -0.421875 C -0.578125 -0.421875 0.109375 -0.984375 0.109375 -1.8125 C 0.109375 -2.015625 0.078125 -2.53125 -0.671875 -3.15625 C -0.234375 -3.25 0.109375 -3.609375 0.109375 -4.109375 C 0.109375 -4.484375 -0.125 -4.71875 -0.453125 -4.890625 C -0.828125 -5.0625 -1.46875 -5.203125 -1.5 -5.203125 C -1.59375 -5.203125 -1.59375 -5.109375 -1.59375 -5.078125 C -1.59375 -4.96875 -1.5625 -4.953125 -1.40625 -4.921875 C -0.734375 -4.75 -0.109375 -4.5625 -0.109375 -4.140625 C -0.109375 -3.84375 -0.390625 -3.8125 -0.59375 -3.8125 C -0.84375 -3.8125 -0.921875 -3.84375 -1.09375 -3.875 Z M -1.234375 -3.21875 C -1.046875 -3.15625 -1.03125 -3.15625 -0.859375 -3 C -0.28125 -2.546875 -0.109375 -2.125 -0.109375 -1.828125 C -0.109375 -1.296875 -0.6875 -1.15625 -1.09375 -1.15625 C -1.625 -1.15625 -2.90625 -1.5 -3.375 -1.734375 C -4 -2.0625 -4.390625 -2.53125 -4.390625 -2.9375 C -4.390625 -3.625 -3.53125 -3.765625 -3.46875 -3.765625 C -3.40625 -3.765625 -3.34375 -3.75 -3.28125 -3.734375 Z M -1.234375 -3.21875 "/>
</g>
<g id="glyph-3-0">
<path d="M -0.4375 -0.84375 C -0.34375 -0.8125 -0.171875 -0.78125 -0.15625 -0.78125 C 0 -0.78125 0.0625 -0.90625 0.0625 -1.015625 C 0.0625 -1.140625 -0.015625 -1.25 -0.078125 -1.28125 C -0.140625 -1.3125 -0.375 -1.375 -0.515625 -1.40625 C -0.640625 -1.4375 -0.96875 -1.515625 -1.140625 -1.5625 C -1.296875 -1.609375 -1.4375 -1.640625 -1.609375 -1.671875 C -1.890625 -1.75 -1.9375 -1.765625 -2.234375 -1.96875 C -2.5 -2.171875 -2.859375 -2.484375 -2.859375 -3.015625 C -2.859375 -3.40625 -2.515625 -3.421875 -2.375 -3.421875 C -1.96875 -3.421875 -1.1875 -3.125 -0.90625 -3.015625 C -0.703125 -2.9375 -0.640625 -2.90625 -0.53125 -2.90625 C -0.15625 -2.90625 0.0625 -3.21875 0.0625 -3.5625 C 0.0625 -4.265625 -0.890625 -4.5625 -0.984375 -4.5625 C -1.078125 -4.5625 -1.078125 -4.46875 -1.078125 -4.453125 C -1.078125 -4.359375 -1.046875 -4.34375 -0.96875 -4.328125 C -0.40625 -4.15625 -0.125 -3.859375 -0.125 -3.59375 C -0.125 -3.4375 -0.21875 -3.40625 -0.375 -3.40625 C -0.53125 -3.40625 -0.625 -3.453125 -0.921875 -3.578125 C -1.140625 -3.65625 -1.875 -3.9375 -2.265625 -3.9375 C -2.9375 -3.9375 -3.0625 -3.40625 -3.0625 -3.03125 C -3.0625 -2.46875 -2.703125 -2.078125 -2.421875 -1.859375 C -2.90625 -1.8125 -3.0625 -1.40625 -3.0625 -1.125 C -3.0625 -0.828125 -2.84375 -0.671875 -2.6875 -0.578125 C -2.421875 -0.421875 -2.03125 -0.328125 -2 -0.328125 C -1.90625 -0.328125 -1.90625 -0.421875 -1.90625 -0.4375 C -1.90625 -0.546875 -1.921875 -0.546875 -2.109375 -0.59375 C -2.53125 -0.703125 -2.859375 -0.828125 -2.859375 -1.109375 C -2.859375 -1.28125 -2.71875 -1.328125 -2.53125 -1.328125 C -2.390625 -1.328125 -2.140625 -1.265625 -1.953125 -1.21875 C -1.765625 -1.171875 -1.484375 -1.109375 -1.328125 -1.0625 Z M -0.4375 -0.84375 "/>
</g>
<g id="glyph-4-0">
<path d="M 4.6875 -5.90625 C 4.734375 -6.03125 4.734375 -6.046875 4.734375 -6.09375 C 4.734375 -6.171875 4.671875 -6.21875 4.59375 -6.21875 C 4.46875 -6.21875 3.6875 -6.140625 3.5 -6.125 C 3.40625 -6.109375 3.3125 -6.109375 3.3125 -5.953125 C 3.3125 -5.84375 3.40625 -5.84375 3.546875 -5.84375 C 3.96875 -5.84375 3.96875 -5.78125 3.96875 -5.6875 C 3.96875 -5.625 3.890625 -5.3125 3.84375 -5.125 L 3.6875 -4.4375 C 3.59375 -4.09375 3.5 -3.75 3.421875 -3.40625 C 3.25 -3.71875 2.96875 -3.953125 2.5625 -3.953125 C 1.53125 -3.953125 0.375 -2.71875 0.375 -1.359375 C 0.375 -0.359375 1 0.09375 1.609375 0.09375 C 2.1875 0.09375 2.65625 -0.390625 2.796875 -0.5625 C 2.90625 -0.0625 3.34375 0.09375 3.640625 0.09375 C 3.890625 0.09375 4.125 -0.015625 4.3125 -0.390625 C 4.46875 -0.6875 4.609375 -1.25 4.609375 -1.28125 C 4.609375 -1.328125 4.578125 -1.390625 4.484375 -1.390625 C 4.375 -1.390625 4.375 -1.34375 4.328125 -1.171875 C 4.140625 -0.390625 3.9375 -0.125 3.65625 -0.125 C 3.4375 -0.125 3.390625 -0.34375 3.390625 -0.53125 C 3.390625 -0.65625 3.421875 -0.90625 3.4375 -0.9375 Z M 2.84375 -1.078125 C 2.796875 -0.9375 2.796875 -0.921875 2.65625 -0.75 C 2.328125 -0.359375 1.953125 -0.125 1.625 -0.125 C 1.1875 -0.125 1.03125 -0.578125 1.03125 -0.96875 C 1.03125 -1.40625 1.296875 -2.4375 1.515625 -2.859375 C 1.796875 -3.40625 2.21875 -3.734375 2.5625 -3.734375 C 3.171875 -3.734375 3.296875 -3.015625 3.296875 -2.96875 C 3.296875 -2.921875 3.28125 -2.859375 3.28125 -2.828125 Z M 2.84375 -1.078125 "/>
</g>
<g id="glyph-4-1">
<path d="M 1.6875 -1.40625 C 1.796875 -1.828125 1.953125 -2.484375 1.96875 -2.546875 C 1.984375 -2.609375 2.21875 -3.03125 2.53125 -3.34375 C 2.796875 -3.59375 3.140625 -3.734375 3.484375 -3.734375 C 3.96875 -3.734375 3.96875 -3.265625 3.96875 -3.109375 C 3.96875 -2.5625 3.546875 -1.46875 3.453125 -1.1875 C 3.34375 -0.90625 3.296875 -0.828125 3.296875 -0.65625 C 3.296875 -0.171875 3.671875 0.09375 4.078125 0.09375 C 4.9375 0.09375 5.28125 -1.1875 5.28125 -1.28125 C 5.28125 -1.328125 5.25 -1.390625 5.171875 -1.390625 C 5.0625 -1.390625 5.0625 -1.34375 5.015625 -1.234375 C 4.796875 -0.46875 4.421875 -0.125 4.09375 -0.125 C 4.03125 -0.125 3.875 -0.125 3.875 -0.40625 C 3.875 -0.640625 3.96875 -0.875 4.03125 -1.0625 C 4.21875 -1.515625 4.578125 -2.46875 4.578125 -2.96875 C 4.578125 -3.765625 3.984375 -3.953125 3.515625 -3.953125 C 2.671875 -3.953125 2.234375 -3.359375 2.09375 -3.171875 C 2.046875 -3.65625 1.671875 -3.953125 1.234375 -3.953125 C 0.84375 -3.953125 0.65625 -3.6875 0.53125 -3.4375 C 0.390625 -3.125 0.265625 -2.609375 0.265625 -2.578125 C 0.265625 -2.5 0.328125 -2.46875 0.390625 -2.46875 C 0.484375 -2.46875 0.5 -2.515625 0.546875 -2.6875 C 0.71875 -3.40625 0.90625 -3.734375 1.203125 -3.734375 C 1.484375 -3.734375 1.484375 -3.453125 1.484375 -3.3125 C 1.484375 -3.125 1.40625 -2.84375 1.359375 -2.609375 C 1.296875 -2.375 1.203125 -2 1.15625 -1.890625 L 0.8125 -0.421875 C 0.75 -0.203125 0.75 -0.1875 0.75 -0.15625 C 0.75 -0.046875 0.828125 0.09375 1.015625 0.09375 C 1.140625 0.09375 1.28125 0.015625 1.34375 -0.09375 C 1.375 -0.140625 1.4375 -0.4375 1.484375 -0.609375 Z M 1.6875 -1.40625 "/>
</g>
<g id="glyph-4-2">
<path d="M 1.234375 -2.046875 C 1.765625 -2.046875 2.359375 -2.046875 2.828125 -2.171875 C 3.671875 -2.375 3.828125 -2.875 3.828125 -3.171875 C 3.828125 -3.6875 3.34375 -3.953125 2.8125 -3.953125 C 1.78125 -3.953125 0.421875 -3.078125 0.421875 -1.546875 C 0.421875 -0.6875 0.921875 0.09375 1.890625 0.09375 C 3.234375 0.09375 3.984375 -0.828125 3.984375 -0.953125 C 3.984375 -1 3.921875 -1.078125 3.859375 -1.078125 C 3.8125 -1.078125 3.8125 -1.0625 3.71875 -0.96875 C 3.1875 -0.296875 2.375 -0.125 1.90625 -0.125 C 1.265625 -0.125 1.09375 -0.71875 1.09375 -1.171875 C 1.09375 -1.1875 1.09375 -1.5 1.234375 -2.046875 Z M 1.296875 -2.28125 C 1.6875 -3.6875 2.671875 -3.734375 2.8125 -3.734375 C 3.125 -3.734375 3.484375 -3.59375 3.484375 -3.171875 C 3.484375 -2.28125 2.140625 -2.28125 1.296875 -2.28125 Z M 1.296875 -2.28125 "/>
</g>
<g id="glyph-4-3">
<path d="M 2.4375 -3.296875 L 3.46875 -3.296875 C 3.328125 -2.734375 3.09375 -1.8125 3.09375 -1.0625 C 3.09375 -1 3.09375 -0.671875 3.171875 -0.34375 C 3.265625 -0.015625 3.34375 0.09375 3.53125 0.09375 C 3.71875 0.09375 3.90625 -0.0625 3.90625 -0.265625 C 3.90625 -0.328125 3.90625 -0.359375 3.84375 -0.46875 C 3.578125 -1.09375 3.578125 -1.765625 3.578125 -1.96875 C 3.578125 -2.1875 3.578125 -2.59375 3.71875 -3.296875 L 4.765625 -3.296875 C 4.890625 -3.296875 5.21875 -3.296875 5.21875 -3.625 C 5.21875 -3.859375 5.015625 -3.859375 4.859375 -3.859375 L 1.75 -3.859375 C 1.546875 -3.859375 1.234375 -3.859375 0.8125 -3.4375 C 0.5625 -3.203125 0.234375 -2.703125 0.234375 -2.625 C 0.234375 -2.53125 0.34375 -2.53125 0.359375 -2.53125 C 0.4375 -2.53125 0.453125 -2.546875 0.515625 -2.640625 C 0.953125 -3.296875 1.5 -3.296875 1.671875 -3.296875 L 2.1875 -3.296875 C 1.796875 -1.953125 1.1875 -0.6875 1.125 -0.546875 C 1.0625 -0.421875 0.96875 -0.234375 0.96875 -0.15625 C 0.96875 -0.046875 1.046875 0.09375 1.25 0.09375 C 1.5625 0.09375 1.640625 -0.21875 1.828125 -0.953125 Z M 2.4375 -3.296875 "/>
</g>
<g id="glyph-4-4">
<path d="M 1.75 -0.484375 C 1.75 -0.75 1.546875 -0.96875 1.265625 -0.96875 C 1 -0.96875 0.78125 -0.75 0.78125 -0.484375 C 0.78125 -0.21875 1 0 1.265625 0 C 1.546875 0 1.75 -0.21875 1.75 -0.484375 Z M 1.75 -0.484375 "/>
</g>
<g id="glyph-5-0">
<path d="M 1.734375 -2.046875 C 1.703125 -2.5 1.296875 -2.625 1.0625 -2.625 C 0.84375 -2.625 0.6875 -2.484375 0.578125 -2.296875 C 0.4375 -2.046875 0.359375 -1.734375 0.359375 -1.703125 C 0.359375 -1.640625 0.421875 -1.625 0.46875 -1.625 C 0.5625 -1.625 0.5625 -1.65625 0.59375 -1.75 C 0.71875 -2.234375 0.859375 -2.421875 1.046875 -2.421875 C 1.265625 -2.421875 1.265625 -2.171875 1.265625 -2.125 C 1.265625 -2.03125 1.203125 -1.78125 1.15625 -1.625 C 1.125 -1.453125 1.0625 -1.21875 1.03125 -1.09375 C 0.984375 -0.9375 0.953125 -0.78125 0.921875 -0.640625 C 0.875 -0.46875 0.796875 -0.171875 0.796875 -0.140625 C 0.796875 0 0.90625 0.0625 1.015625 0.0625 C 1.109375 0.0625 1.21875 -0.015625 1.265625 -0.09375 C 1.28125 -0.140625 1.328125 -0.34375 1.359375 -0.46875 L 1.484375 -1 C 1.53125 -1.15625 1.5625 -1.265625 1.59375 -1.390625 C 1.640625 -1.59375 1.859375 -1.90625 2.078125 -2.125 C 2.1875 -2.25 2.453125 -2.421875 2.765625 -2.421875 C 3.140625 -2.421875 3.140625 -2.125 3.140625 -2 C 3.140625 -1.65625 2.890625 -1.015625 2.78125 -0.75 C 2.75 -0.65625 2.703125 -0.5625 2.703125 -0.453125 C 2.703125 -0.15625 2.984375 0.0625 3.3125 0.0625 C 3.90625 0.0625 4.203125 -0.71875 4.203125 -0.859375 C 4.203125 -0.859375 4.203125 -0.9375 4.09375 -0.9375 C 4.015625 -0.9375 4 -0.90625 3.96875 -0.796875 C 3.875 -0.484375 3.625 -0.140625 3.328125 -0.140625 C 3.21875 -0.140625 3.171875 -0.21875 3.171875 -0.34375 C 3.171875 -0.46875 3.203125 -0.5625 3.265625 -0.6875 C 3.34375 -0.921875 3.609375 -1.59375 3.609375 -1.9375 C 3.609375 -2.421875 3.25 -2.625 2.796875 -2.625 C 2.5 -2.625 2.125 -2.53125 1.734375 -2.046875 Z M 1.734375 -2.046875 "/>
</g>
<g id="glyph-6-0">
<path d="M 6.34375 -2.96875 C 6.46875 -2.96875 6.640625 -2.96875 6.640625 -3.15625 C 6.640625 -3.34375 6.4375 -3.34375 6.296875 -3.34375 L 0.84375 -3.34375 C 0.703125 -3.34375 0.515625 -3.34375 0.515625 -3.15625 C 0.515625 -2.96875 0.6875 -2.96875 0.8125 -2.96875 Z M 6.296875 -1.140625 C 6.4375 -1.140625 6.640625 -1.140625 6.640625 -1.328125 C 6.640625 -1.515625 6.46875 -1.515625 6.34375 -1.515625 L 0.8125 -1.515625 C 0.6875 -1.515625 0.515625 -1.515625 0.515625 -1.328125 C 0.515625 -1.140625 0.703125 -1.140625 0.84375 -1.140625 Z M 6.296875 -1.140625 "/>
</g>
<g id="glyph-6-1">
<path d="M 1.75 -5.9375 C 1.75 -6.265625 1.484375 -6.40625 1.265625 -6.40625 C 1.0625 -6.40625 0.78125 -6.265625 0.78125 -5.9375 L 1.140625 -1.875 C 1.140625 -1.75 1.15625 -1.6875 1.265625 -1.6875 C 1.390625 -1.6875 1.390625 -1.75 1.40625 -1.875 Z M 1.75 -0.484375 C 1.75 -0.75 1.546875 -0.96875 1.265625 -0.96875 C 1 -0.96875 0.78125 -0.75 0.78125 -0.484375 C 0.78125 -0.21875 1 0 1.265625 0 C 1.546875 0 1.75 -0.21875 1.75 -0.484375 Z M 1.75 -0.484375 "/>
</g>
<g id="glyph-6-2">
<path d="M 4.03125 -6.359375 C 4.0625 -6.453125 4.078125 -6.484375 4.078125 -6.515625 C 4.078125 -6.65625 3.96875 -6.71875 3.890625 -6.71875 C 3.75 -6.71875 3.71875 -6.609375 3.6875 -6.515625 L 0.5625 1.890625 C 0.53125 1.96875 0.515625 2 0.515625 2.046875 C 0.515625 2.171875 0.625 2.234375 0.703125 2.234375 C 0.84375 2.234375 0.875 2.140625 0.90625 2.03125 Z M 4.03125 -6.359375 "/>
</g>
<g id="glyph-6-3">
<path d="M 3.046875 2.125 C 3.046875 2.09375 3.03125 2.0625 2.96875 2 C 1.8125 0.9375 1.46875 -0.671875 1.46875 -2.234375 C 1.46875 -3.625 1.734375 -5.3125 3 -6.515625 C 3.03125 -6.546875 3.046875 -6.578125 3.046875 -6.609375 C 3.046875 -6.671875 3.015625 -6.71875 2.953125 -6.71875 C 2.84375 -6.71875 2.03125 -6.0625 1.546875 -5.09375 C 1.125 -4.234375 0.90625 -3.3125 0.90625 -2.25 C 0.90625 -1.609375 0.984375 -0.578125 1.484375 0.46875 C 2 1.578125 2.84375 2.234375 2.953125 2.234375 C 3.015625 2.234375 3.046875 2.1875 3.046875 2.125 Z M 3.046875 2.125 "/>
</g>
<g id="glyph-6-4">
<path d="M 2.671875 -2.25 C 2.671875 -2.984375 2.5625 -3.96875 2.09375 -4.953125 C 1.5625 -6.0625 0.734375 -6.71875 0.625 -6.71875 C 0.53125 -6.71875 0.515625 -6.640625 0.515625 -6.609375 C 0.515625 -6.578125 0.53125 -6.546875 0.59375 -6.484375 C 1.125 -6.015625 2.109375 -4.796875 2.109375 -2.25 C 2.109375 -0.96875 1.875 0.8125 0.578125 2.015625 C 0.5625 2.046875 0.515625 2.09375 0.515625 2.125 C 0.515625 2.15625 0.53125 2.234375 0.625 2.234375 C 0.734375 2.234375 1.546875 1.578125 2.015625 0.609375 C 2.453125 -0.25 2.671875 -1.171875 2.671875 -2.25 Z M 2.671875 -2.25 "/>
</g>
<g id="glyph-6-5">
<path d="M 4.140625 -1.578125 L 3.890625 -1.578125 C 3.875 -1.46875 3.796875 -0.9375 3.6875 -0.796875 C 3.625 -0.71875 3.015625 -0.71875 2.828125 -0.71875 L 1.234375 -0.71875 L 2.125 -1.5625 C 3.59375 -2.828125 4.140625 -3.296875 4.140625 -4.21875 C 4.140625 -5.25 3.28125 -5.96875 2.1875 -5.96875 C 1.15625 -5.96875 0.453125 -5.140625 0.453125 -4.328125 C 0.453125 -3.890625 0.84375 -3.84375 0.921875 -3.84375 C 1.125 -3.84375 1.390625 -3.984375 1.390625 -4.3125 C 1.390625 -4.578125 1.203125 -4.765625 0.921875 -4.765625 C 0.875 -4.765625 0.84375 -4.765625 0.8125 -4.765625 C 1.03125 -5.40625 1.609375 -5.6875 2.09375 -5.6875 C 3 -5.6875 3.3125 -4.828125 3.3125 -4.21875 C 3.3125 -3.296875 2.625 -2.5625 2.1875 -2.09375 L 0.5625 -0.328125 C 0.453125 -0.21875 0.453125 -0.203125 0.453125 0 L 3.890625 0 Z M 4.140625 -1.578125 "/>
</g>
<g id="glyph-6-6">
<path d="M 0.9375 -3.09375 C 0.9375 -2.921875 0.9375 -2.828125 1.0625 -2.828125 C 1.125 -2.828125 1.15625 -2.859375 1.203125 -2.953125 C 1.484375 -3.328125 1.90625 -3.53125 2.375 -3.53125 C 3.328125 -3.53125 3.328125 -2.15625 3.328125 -1.828125 C 3.328125 -1.5625 3.328125 -1 3.078125 -0.59375 C 2.84375 -0.21875 2.46875 -0.046875 2.109375 -0.046875 C 1.578125 -0.046875 0.984375 -0.390625 0.765625 -1.046875 C 0.78125 -1.046875 0.828125 -1.03125 0.890625 -1.03125 C 1.078125 -1.03125 1.328125 -1.140625 1.328125 -1.46875 C 1.328125 -1.75 1.140625 -1.90625 0.890625 -1.90625 C 0.703125 -1.90625 0.453125 -1.796875 0.453125 -1.4375 C 0.453125 -0.625 1.140625 0.203125 2.125 0.203125 C 3.21875 0.203125 4.140625 -0.6875 4.140625 -1.796875 C 4.140625 -2.875 3.359375 -3.765625 2.390625 -3.765625 C 1.953125 -3.765625 1.515625 -3.609375 1.203125 -3.296875 L 1.203125 -5.0625 C 1.484375 -4.984375 1.75 -4.9375 2.03125 -4.9375 C 3.140625 -4.9375 3.78125 -5.734375 3.78125 -5.84375 C 3.78125 -5.921875 3.71875 -5.96875 3.6875 -5.96875 C 3.65625 -5.96875 3.640625 -5.96875 3.5625 -5.921875 C 3.140625 -5.75 2.734375 -5.671875 2.359375 -5.671875 C 1.96875 -5.671875 1.5625 -5.75 1.15625 -5.921875 C 1.0625 -5.96875 1.046875 -5.96875 1.03125 -5.96875 C 0.9375 -5.96875 0.9375 -5.875 0.9375 -5.71875 Z M 0.9375 -3.09375 "/>
</g>
<g id="glyph-6-7">
<path d="M 4.234375 -2.859375 C 4.234375 -3.46875 4.203125 -4.234375 3.890625 -4.90625 C 3.5 -5.75 2.8125 -5.96875 2.296875 -5.96875 C 1.765625 -5.96875 1.078125 -5.75 0.6875 -4.890625 C 0.40625 -4.265625 0.359375 -3.546875 0.359375 -2.859375 C 0.359375 -2.28125 0.375 -1.421875 0.765625 -0.703125 C 1.1875 0.046875 1.875 0.203125 2.296875 0.203125 C 2.875 0.203125 3.53125 -0.046875 3.90625 -0.875 C 4.1875 -1.484375 4.234375 -2.15625 4.234375 -2.859375 Z M 2.296875 -0.03125 C 2.03125 -0.03125 1.390625 -0.15625 1.21875 -1.15625 C 1.125 -1.6875 1.125 -2.46875 1.125 -2.96875 C 1.125 -3.578125 1.125 -4.28125 1.234375 -4.78125 C 1.421875 -5.578125 1.984375 -5.734375 2.296875 -5.734375 C 2.625 -5.734375 3.203125 -5.5625 3.359375 -4.734375 C 3.46875 -4.234375 3.46875 -3.53125 3.46875 -2.96875 C 3.46875 -2.421875 3.46875 -1.671875 3.375 -1.140625 C 3.1875 -0.109375 2.53125 -0.03125 2.296875 -0.03125 Z M 2.296875 -0.03125 "/>
</g>
<g id="glyph-6-8">
<path d="M 1.203125 -2.96875 C 1.203125 -3.875 1.296875 -4.390625 1.546875 -4.859375 C 1.71875 -5.21875 2.15625 -5.734375 2.8125 -5.734375 C 3 -5.734375 3.40625 -5.703125 3.609375 -5.375 C 3.28125 -5.375 3.140625 -5.203125 3.140625 -4.96875 C 3.140625 -4.734375 3.296875 -4.5625 3.546875 -4.5625 C 3.8125 -4.5625 3.96875 -4.71875 3.96875 -4.984375 C 3.96875 -5.484375 3.609375 -5.96875 2.796875 -5.96875 C 1.640625 -5.96875 0.390625 -4.828125 0.390625 -2.828125 C 0.390625 -0.40625 1.484375 0.203125 2.3125 0.203125 C 3.3125 0.203125 4.203125 -0.640625 4.203125 -1.8125 C 4.203125 -2.953125 3.390625 -3.8125 2.375 -3.8125 C 1.828125 -3.8125 1.453125 -3.5 1.203125 -2.96875 Z M 2.3125 -0.046875 C 1.796875 -0.046875 1.5 -0.46875 1.390625 -0.734375 C 1.234375 -1.140625 1.21875 -1.875 1.21875 -2.015625 C 1.21875 -2.625 1.5 -3.59375 2.359375 -3.59375 C 2.5 -3.59375 2.9375 -3.59375 3.21875 -3.03125 C 3.390625 -2.6875 3.390625 -2.25 3.390625 -1.828125 C 3.390625 -1.390625 3.390625 -0.953125 3.21875 -0.625 C 2.953125 -0.109375 2.546875 -0.046875 2.3125 -0.046875 Z M 2.3125 -0.046875 "/>
</g>
<g id="glyph-6-9">
<path d="M 1.546875 -4.0625 C 1.265625 -4.234375 1.0625 -4.46875 1.0625 -4.8125 C 1.0625 -5.390625 1.6875 -5.734375 2.28125 -5.734375 C 2.96875 -5.734375 3.53125 -5.25 3.53125 -4.625 C 3.53125 -4 2.984375 -3.59375 2.625 -3.390625 Z M 2.859375 -3.234375 C 3.296875 -3.453125 3.953125 -3.90625 3.953125 -4.625 C 3.953125 -5.46875 3.109375 -5.96875 2.3125 -5.96875 C 1.375 -5.96875 0.640625 -5.296875 0.640625 -4.46875 C 0.640625 -4.125 0.765625 -3.8125 0.96875 -3.546875 C 1.125 -3.375 1.1875 -3.34375 1.703125 -3.015625 C 0.90625 -2.625 0.390625 -2.09375 0.390625 -1.359375 C 0.390625 -0.40625 1.328125 0.203125 2.296875 0.203125 C 3.328125 0.203125 4.203125 -0.53125 4.203125 -1.5 C 4.203125 -2.375 3.546875 -2.796875 3.328125 -2.953125 C 3.21875 -3.015625 2.96875 -3.171875 2.859375 -3.234375 Z M 1.9375 -2.859375 L 3.078125 -2.15625 C 3.28125 -2.015625 3.71875 -1.734375 3.71875 -1.1875 C 3.71875 -0.484375 3.015625 -0.046875 2.296875 -0.046875 C 1.515625 -0.046875 0.875 -0.609375 0.875 -1.359375 C 0.875 -2 1.3125 -2.53125 1.9375 -2.859375 Z M 1.9375 -2.859375 "/>
</g>
<g id="glyph-6-10">
<path d="M 4.390625 -5.46875 C 4.46875 -5.5625 4.46875 -5.578125 4.46875 -5.765625 L 2.234375 -5.765625 C 1.109375 -5.765625 1.078125 -5.875 1.0625 -6.046875 L 0.8125 -6.046875 L 0.515625 -4.1875 L 0.765625 -4.1875 C 0.796875 -4.390625 0.875 -4.890625 0.984375 -5 C 1.046875 -5.046875 1.75 -5.046875 1.875 -5.046875 L 3.765625 -5.046875 L 2.90625 -3.875 C 1.734375 -2.28125 1.625 -0.8125 1.625 -0.296875 C 1.625 -0.203125 1.625 0.203125 2.046875 0.203125 C 2.46875 0.203125 2.46875 -0.203125 2.46875 -0.3125 L 2.46875 -0.75 C 2.46875 -2.0625 2.65625 -3.109375 3.140625 -3.75 Z M 4.390625 -5.46875 "/>
</g>
<g id="glyph-6-11">
<path d="M 0.265625 -1.75 L 0.265625 -1.484375 L 2.703125 -1.484375 L 2.703125 -0.703125 C 2.703125 -0.375 2.671875 -0.28125 2 -0.28125 L 1.8125 -0.28125 L 1.8125 0 C 2.375 -0.03125 3 -0.03125 3.0625 -0.03125 C 3.109375 -0.03125 3.75 -0.03125 4.3125 0 L 4.3125 -0.28125 L 4.125 -0.28125 C 3.453125 -0.28125 3.421875 -0.375 3.421875 -0.703125 L 3.421875 -1.484375 L 4.328125 -1.484375 L 4.328125 -1.75 L 3.421875 -1.75 L 3.421875 -5.8125 C 3.421875 -6 3.421875 -6.0625 3.25 -6.0625 C 3.140625 -6.0625 3.140625 -6.046875 3.046875 -5.921875 Z M 0.546875 -1.75 L 2.75 -5.0625 L 2.75 -1.75 Z M 0.546875 -1.75 "/>
</g>
<g id="glyph-7-0">
<path d="M 3.8125 10.265625 C 3.8125 10.21875 3.796875 10.1875 3.78125 10.171875 C 3.34375 9.71875 2.75 8.984375 2.40625 7.71875 C 2.21875 7.03125 2.0625 6.1875 2.0625 5 C 2.0625 2.265625 2.84375 0.78125 3.78125 -0.203125 C 3.8125 -0.21875 3.8125 -0.25 3.8125 -0.28125 C 3.8125 -0.34375 3.765625 -0.375 3.703125 -0.375 C 3.53125 -0.375 2.984375 0.234375 2.96875 0.25 C 1.921875 1.4375 1.40625 3.140625 1.40625 4.984375 C 1.40625 6.796875 1.90625 8.84375 3.453125 10.21875 C 3.609375 10.359375 3.640625 10.359375 3.703125 10.359375 C 3.765625 10.359375 3.8125 10.328125 3.8125 10.265625 Z M 3.8125 10.265625 "/>
</g>
<g id="glyph-7-1">
<path d="M 2.796875 5 C 2.796875 3.171875 2.296875 1.140625 0.75 -0.234375 C 0.59375 -0.375 0.578125 -0.375 0.515625 -0.375 C 0.390625 -0.375 0.390625 -0.296875 0.390625 -0.28125 C 0.390625 -0.25 0.390625 -0.234375 0.4375 -0.171875 C 0.9375 0.34375 1.484375 1.09375 1.796875 2.25 C 1.984375 2.953125 2.140625 3.796875 2.140625 4.984375 C 2.140625 7.640625 1.421875 9.15625 0.421875 10.171875 C 0.40625 10.203125 0.390625 10.21875 0.390625 10.265625 C 0.390625 10.28125 0.390625 10.359375 0.515625 10.359375 C 0.671875 10.359375 1.21875 9.75 1.234375 9.734375 C 2.28125 8.546875 2.796875 6.84375 2.796875 5 Z M 2.796875 5 "/>
</g>
<g id="glyph-8-0">
<path d="M 3.578125 7.609375 L 1.953125 4.125 C 1.890625 4 1.859375 3.984375 1.8125 3.984375 C 1.765625 3.984375 1.75 4 1.671875 4.0625 L 0.78125 4.703125 C 0.703125 4.765625 0.65625 4.796875 0.65625 4.859375 C 0.65625 4.890625 0.6875 4.96875 0.765625 4.96875 C 0.828125 4.96875 0.875 4.921875 1.078125 4.765625 C 1.15625 4.71875 1.265625 4.625 1.375 4.5625 L 3.171875 8.421875 C 3.25 8.578125 3.296875 8.578125 3.375 8.578125 C 3.515625 8.578125 3.546875 8.546875 3.609375 8.390625 L 7.796875 -0.015625 C 7.8125 -0.0625 7.859375 -0.140625 7.859375 -0.1875 C 7.859375 -0.296875 7.765625 -0.390625 7.65625 -0.390625 C 7.578125 -0.390625 7.515625 -0.34375 7.4375 -0.1875 Z M 3.578125 7.609375 "/>
</g>
</g>
<clipPath id="clip-0">
<path clip-rule="nonzero" d="M 42.179688 5.152344 L 305.175781 5.152344 L 305.175781 73.3125 L 42.179688 73.3125 Z M 42.179688 5.152344 "/>
</clipPath>
<clipPath id="clip-1">
<path clip-rule="nonzero" d="M 42.179688 68 L 305.175781 68 L 305.175781 70 L 42.179688 70 Z M 42.179688 68 "/>
</clipPath>
</defs>
<path fill="none" stroke-width="0.3985" stroke-linecap="butt" stroke-linejoin="miter" stroke="rgb(75%, 75%, 75%)" stroke-opacity="1" stroke-miterlimit="10" d="M 0.00176042 0.00116379 L 0.00176042 68.553045 M 25.931179 0.00116379 L 25.931179 68.553045 M 51.864525 0.00116379 L 51.864525 68.553045 M 77.797872 0.00116379 L 77.797872 68.553045 M 103.72729 0.00116379 L 103.72729 68.553045 M 129.660637 0.00116379 L 129.660637 68.553045 M 155.593984 0.00116379 L 155.593984 68.553045 M 181.527331 0.00116379 L 181.527331 68.553045 M 207.456749 0.00116379 L 207.456749 68.553045 M 233.390096 0.00116379 L 233.390096 68.553045 M 259.323442 0.00116379 L 259.323442 68.553045 " transform="matrix(0.994286, 0, 0, -0.994286, 42.177937, 73.313657)"/>
<path fill="none" stroke-width="0.3985" stroke-linecap="butt" stroke-linejoin="miter" stroke="rgb(75%, 75%, 75%)" stroke-opacity="1" stroke-miterlimit="10" d="M 0.00176042 2.743396 L 264.509326 2.743396 M 0.00176042 30.161791 L 264.509326 30.161791 M 0.00176042 57.584115 L 264.509326 57.584115 " transform="matrix(0.994286, 0, 0, -0.994286, 42.177937, 73.313657)"/>
<path fill="none" stroke-width="0.19925" stroke-linecap="butt" stroke-linejoin="miter" stroke="rgb(50%, 50%, 50%)" stroke-opacity="1" stroke-miterlimit="10" d="M 0.00176042 0.00116379 L 0.00176042 4.252017 M 25.931179 0.00116379 L 25.931179 4.252017 M 51.864525 0.00116379 L 51.864525 4.252017 M 77.797872 0.00116379 L 77.797872 4.252017 M 103.72729 0.00116379 L 103.72729 4.252017 M 129.660637 0.00116379 L 129.660637 4.252017 M 155.593984 0.00116379 L 155.593984 4.252017 M 181.527331 0.00116379 L 181.527331 4.252017 M 207.456749 0.00116379 L 207.456749 4.252017 M 233.390096 0.00116379 L 233.390096 4.252017 M 259.323442 0.00116379 L 259.323442 4.252017 M 0.00176042 68.553045 L 0.00176042 64.302192 M 25.931179 68.553045 L 25.931179 64.302192 M 51.864525 68.553045 L 51.864525 64.302192 M 77.797872 68.553045 L 77.797872 64.302192 M 103.72729 68.553045 L 103.72729 64.302192 M 129.660637 68.553045 L 129.660637 64.302192 M 155.593984 68.553045 L 155.593984 64.302192 M 181.527331 68.553045 L 181.527331 64.302192 M 207.456749 68.553045 L 207.456749 64.302192 M 233.390096 68.553045 L 233.390096 64.302192 M 259.323442 68.553045 L 259.323442 64.302192 " transform="matrix(0.994286, 0, 0, -0.994286, 42.177937, 73.313657)"/>
<path fill="none" stroke-width="0.19925" stroke-linecap="butt" stroke-linejoin="miter" stroke="rgb(50%, 50%, 50%)" stroke-opacity="1" stroke-miterlimit="10" d="M 0.00176042 2.743396 L 4.252614 2.743396 M 0.00176042 30.161791 L 4.252614 30.161791 M 0.00176042 57.584115 L 4.252614 57.584115 M 264.509326 2.743396 L 260.258473 2.743396 M 264.509326 30.161791 L 260.258473 30.161791 M 264.509326 57.584115 L 260.258473 57.584115 " transform="matrix(0.994286, 0, 0, -0.994286, 42.177937, 73.313657)"/>
<path fill="none" stroke-width="0.3985" stroke-linecap="butt" stroke-linejoin="miter" stroke="rgb(0%, 0%, 0%)" stroke-opacity="1" stroke-miterlimit="10" d="M 0.00176042 0.00116379 L 0.00176042 68.553045 L 264.509326 68.553045 L 264.509326 0.00116379 Z M 0.00176042 0.00116379 " transform="matrix(0.994286, 0, 0, -0.994286, 42.177937, 73.313657)"/>
<g fill="rgb(0%, 0%, 0%)" fill-opacity="1">
<use xlink:href="#glyph-0-0" x="39.567937" y="83.719851"/>
</g>
<g fill="rgb(0%, 0%, 0%)" fill-opacity="1">
<use xlink:href="#glyph-0-1" x="65.351754" y="83.719851"/>
</g>
<g fill="rgb(0%, 0%, 0%)" fill-opacity="1">
<use xlink:href="#glyph-0-2" x="88.525571" y="83.719851"/>
<use xlink:href="#glyph-0-0" x="93.745571" y="83.719851"/>
</g>
<g fill="rgb(0%, 0%, 0%)" fill-opacity="1">
<use xlink:href="#glyph-0-2" x="114.310383" y="83.719851"/>
<use xlink:href="#glyph-0-1" x="119.530383" y="83.719851"/>
</g>
<g fill="rgb(0%, 0%, 0%)" fill-opacity="1">
<use xlink:href="#glyph-0-3" x="140.0942" y="83.719851"/>
<use xlink:href="#glyph-0-0" x="145.3142" y="83.719851"/>
</g>
<g fill="rgb(0%, 0%, 0%)" fill-opacity="1">
<use xlink:href="#glyph-0-3" x="165.878017" y="83.719851"/>
<use xlink:href="#glyph-0-1" x="171.098017" y="83.719851"/>
</g>
<g fill="rgb(0%, 0%, 0%)" fill-opacity="1">
<use xlink:href="#glyph-0-4" x="191.662829" y="83.719851"/>
<use xlink:href="#glyph-0-0" x="196.882829" y="83.719851"/>
</g>
<g fill="rgb(0%, 0%, 0%)" fill-opacity="1">
<use xlink:href="#glyph-0-4" x="217.446646" y="83.719851"/>
<use xlink:href="#glyph-0-1" x="222.666646" y="83.719851"/>
</g>
<g fill="rgb(0%, 0%, 0%)" fill-opacity="1">
<use xlink:href="#glyph-0-5" x="243.230463" y="83.719851"/>
<use xlink:href="#glyph-0-0" x="248.450463" y="83.719851"/>
</g>
<g fill="rgb(0%, 0%, 0%)" fill-opacity="1">
<use xlink:href="#glyph-0-5" x="269.015274" y="83.719851"/>
<use xlink:href="#glyph-0-1" x="274.235274" y="83.719851"/>
</g>
<g fill="rgb(0%, 0%, 0%)" fill-opacity="1">
<use xlink:href="#glyph-0-1" x="294.799091" y="83.719851"/>
<use xlink:href="#glyph-0-0" x="300.019091" y="83.719851"/>
</g>
<g fill="rgb(0%, 0%, 0%)" fill-opacity="1">
<use xlink:href="#glyph-0-3" x="25.159743" y="73.950994"/>
</g>
<g fill="rgb(0%, 0%, 0%)" fill-opacity="1">
<use xlink:href="#glyph-1-0" x="30.379743" y="73.950994"/>
</g>
<g fill="rgb(0%, 0%, 0%)" fill-opacity="1">
<use xlink:href="#glyph-0-1" x="33.280074" y="73.950994"/>
</g>
<g fill="rgb(0%, 0%, 0%)" fill-opacity="1">
<use xlink:href="#glyph-0-3" x="25.159743" y="46.686686"/>
</g>
<g fill="rgb(0%, 0%, 0%)" fill-opacity="1">
<use xlink:href="#glyph-1-0" x="30.379743" y="46.686686"/>
</g>
<g fill="rgb(0%, 0%, 0%)" fill-opacity="1">
<use xlink:href="#glyph-0-6" x="33.280074" y="46.686686"/>
</g>
<g fill="rgb(0%, 0%, 0%)" fill-opacity="1">
<use xlink:href="#glyph-0-3" x="25.159743" y="19.422377"/>
</g>
<g fill="rgb(0%, 0%, 0%)" fill-opacity="1">
<use xlink:href="#glyph-1-0" x="30.379743" y="19.422377"/>
</g>
<g fill="rgb(0%, 0%, 0%)" fill-opacity="1">
<use xlink:href="#glyph-0-7" x="33.280074" y="19.422377"/>
</g>
<g clip-path="url(#clip-0)">
<path fill="none" stroke-width="0.3985" stroke-linecap="butt" stroke-linejoin="miter" stroke="rgb(0%, 0%, 69.999695%)" stroke-opacity="1" stroke-miterlimit="10" d="M 5.187644 62.597136 L 10.373528 33.571903 L 15.559411 23.848371 L 20.745295 19.000356 L 25.931179 16.097047 L 31.117062 14.164126 L 36.306874 12.785153 L 41.492758 11.751905 L 46.678642 10.95045 L 51.864525 10.310072 L 57.050409 9.783626 L 62.236293 9.34754 L 67.422176 8.978243 L 72.611989 8.663947 L 77.797872 8.388938 L 82.983756 8.149287 L 88.169639 7.937137 L 93.355523 7.74856 L 98.541407 7.579626 L 103.72729 7.430335 L 108.917103 7.29283 L 114.102986 7.167112 L 119.28887 7.05318 L 124.474753 6.951034 L 129.660637 6.852816 L 134.846521 6.766385 L 140.036333 6.683882 L 145.222217 6.609237 L 150.4081 6.53852 L 155.593984 6.471732 L 160.779867 6.408873 L 171.151635 6.298869 L 176.341447 6.247796 L 181.527331 6.196723 L 197.084982 6.067076 L 202.270865 6.031718 L 207.456749 5.992431 L 212.646561 5.957073 L 228.204212 5.862784 L 243.761863 5.780281 L 248.951675 5.75278 L 259.323442 5.705636 " transform="matrix(0.994286, 0, 0, -0.994286, 42.177937, 73.313657)"/>
</g>
<g clip-path="url(#clip-1)">
<path fill="none" stroke-width="0.79701" stroke-linecap="butt" stroke-linejoin="miter" stroke="rgb(75%, 0%, 0%)" stroke-opacity="1" stroke-dasharray="2.98883 2.98883" stroke-miterlimit="10" d="M 0.00176042 4.558455 L 264.509326 4.558455 " transform="matrix(0.994286, 0, 0, -0.994286, 42.177937, 73.313657)"/>
</g>
<path fill-rule="nonzero" fill="rgb(0%, 0%, 69.999695%)" fill-opacity="1" stroke-width="0.3985" stroke-linecap="butt" stroke-linejoin="miter" stroke="rgb(0%, 0%, 69.999695%)" stroke-opacity="1" stroke-miterlimit="10" d="M 6.283751 62.597136 C 6.283751 63.202156 5.792664 63.693244 5.187644 63.693244 C 4.582624 63.693244 4.091537 63.202156 4.091537 62.597136 C 4.091537 61.992117 4.582624 61.501029 5.187644 61.501029 C 5.792664 61.501029 6.283751 61.992117 6.283751 62.597136 Z M 6.283751 62.597136 " transform="matrix(0.994286, 0, 0, -0.994286, 42.177937, 73.313657)"/>
<path fill-rule="nonzero" fill="rgb(0%, 0%, 69.999695%)" fill-opacity="1" stroke-width="0.3985" stroke-linecap="butt" stroke-linejoin="miter" stroke="rgb(0%, 0%, 69.999695%)" stroke-opacity="1" stroke-miterlimit="10" d="M 11.469635 33.571903 C 11.469635 34.176923 10.978547 34.66801 10.373528 34.66801 C 9.768508 34.66801 9.27742 34.176923 9.27742 33.571903 C 9.27742 32.966883 9.768508 32.475796 10.373528 32.475796 C 10.978547 32.475796 11.469635 32.966883 11.469635 33.571903 Z M 11.469635 33.571903 " transform="matrix(0.994286, 0, 0, -0.994286, 42.177937, 73.313657)"/>
<path fill-rule="nonzero" fill="rgb(0%, 0%, 69.999695%)" fill-opacity="1" stroke-width="0.3985" stroke-linecap="butt" stroke-linejoin="miter" stroke="rgb(0%, 0%, 69.999695%)" stroke-opacity="1" stroke-miterlimit="10" d="M 16.655518 23.848371 C 16.655518 24.453391 16.164431 24.944478 15.559411 24.944478 C 14.954392 24.944478 14.463304 24.453391 14.463304 23.848371 C 14.463304 23.243351 14.954392 22.752264 15.559411 22.752264 C 16.164431 22.752264 16.655518 23.243351 16.655518 23.848371 Z M 16.655518 23.848371 " transform="matrix(0.994286, 0, 0, -0.994286, 42.177937, 73.313657)"/>
<path fill-rule="nonzero" fill="rgb(0%, 0%, 69.999695%)" fill-opacity="1" stroke-width="0.3985" stroke-linecap="butt" stroke-linejoin="miter" stroke="rgb(0%, 0%, 69.999695%)" stroke-opacity="1" stroke-miterlimit="10" d="M 21.841402 19.000356 C 21.841402 19.605375 21.350315 20.096463 20.745295 20.096463 C 20.140275 20.096463 19.649188 19.605375 19.649188 19.000356 C 19.649188 18.395336 20.140275 17.904248 20.745295 17.904248 C 21.350315 17.904248 21.841402 18.395336 21.841402 19.000356 Z M 21.841402 19.000356 " transform="matrix(0.994286, 0, 0, -0.994286, 42.177937, 73.313657)"/>
<path fill-rule="nonzero" fill="rgb(0%, 0%, 69.999695%)" fill-opacity="1" stroke-width="0.3985" stroke-linecap="butt" stroke-linejoin="miter" stroke="rgb(0%, 0%, 69.999695%)" stroke-opacity="1" stroke-miterlimit="10" d="M 27.027286 16.097047 C 27.027286 16.702066 26.536198 17.193154 25.931179 17.193154 C 25.326159 17.193154 24.835071 16.702066 24.835071 16.097047 C 24.835071 15.492027 25.326159 15.000939 25.931179 15.000939 C 26.536198 15.000939 27.027286 15.492027 27.027286 16.097047 Z M 27.027286 16.097047 " transform="matrix(0.994286, 0, 0, -0.994286, 42.177937, 73.313657)"/>
<path fill-rule="nonzero" fill="rgb(0%, 0%, 69.999695%)" fill-opacity="1" stroke-width="0.3985" stroke-linecap="butt" stroke-linejoin="miter" stroke="rgb(0%, 0%, 69.999695%)" stroke-opacity="1" stroke-miterlimit="10" d="M 32.213169 14.164126 C 32.213169 14.769146 31.722082 15.260233 31.117062 15.260233 C 30.512042 15.260233 30.020955 14.769146 30.020955 14.164126 C 30.020955 13.559107 30.512042 13.068019 31.117062 13.068019 C 31.722082 13.068019 32.213169 13.559107 32.213169 14.164126 Z M 32.213169 14.164126 " transform="matrix(0.994286, 0, 0, -0.994286, 42.177937, 73.313657)"/>
<path fill-rule="nonzero" fill="rgb(0%, 0%, 69.999695%)" fill-opacity="1" stroke-width="0.3985" stroke-linecap="butt" stroke-linejoin="miter" stroke="rgb(0%, 0%, 69.999695%)" stroke-opacity="1" stroke-miterlimit="10" d="M 37.402982 12.785153 C 37.402982 13.390172 36.911894 13.88126 36.306874 13.88126 C 35.701855 13.88126 35.210767 13.390172 35.210767 12.785153 C 35.210767 12.180133 35.701855 11.689045 36.306874 11.689045 C 36.911894 11.689045 37.402982 12.180133 37.402982 12.785153 Z M 37.402982 12.785153 " transform="matrix(0.994286, 0, 0, -0.994286, 42.177937, 73.313657)"/>
<path fill-rule="nonzero" fill="rgb(0%, 0%, 69.999695%)" fill-opacity="1" stroke-width="0.3985" stroke-linecap="butt" stroke-linejoin="miter" stroke="rgb(0%, 0%, 69.999695%)" stroke-opacity="1" stroke-miterlimit="10" d="M 42.588865 11.751905 C 42.588865 12.356924 42.097778 12.848012 41.492758 12.848012 C 40.887738 12.848012 40.396651 12.356924 40.396651 11.751905 C 40.396651 11.146885 40.887738 10.655797 41.492758 10.655797 C 42.097778 10.655797 42.588865 11.146885 42.588865 11.751905 Z M 42.588865 11.751905 " transform="matrix(0.994286, 0, 0, -0.994286, 42.177937, 73.313657)"/>
<path fill-rule="nonzero" fill="rgb(0%, 0%, 69.999695%)" fill-opacity="1" stroke-width="0.3985" stroke-linecap="butt" stroke-linejoin="miter" stroke="rgb(0%, 0%, 69.999695%)" stroke-opacity="1" stroke-miterlimit="10" d="M 47.774749 10.95045 C 47.774749 11.55547 47.283661 12.046557 46.678642 12.046557 C 46.073622 12.046557 45.582534 11.55547 45.582534 10.95045 C 45.582534 10.34543 46.073622 9.854343 46.678642 9.854343 C 47.283661 9.854343 47.774749 10.34543 47.774749 10.95045 Z M 47.774749 10.95045 " transform="matrix(0.994286, 0, 0, -0.994286, 42.177937, 73.313657)"/>
<path fill-rule="nonzero" fill="rgb(0%, 0%, 69.999695%)" fill-opacity="1" stroke-width="0.3985" stroke-linecap="butt" stroke-linejoin="miter" stroke="rgb(0%, 0%, 69.999695%)" stroke-opacity="1" stroke-miterlimit="10" d="M 52.960633 10.310072 C 52.960633 10.915092 52.469545 11.406179 51.864525 11.406179 C 51.259506 11.406179 50.768418 10.915092 50.768418 10.310072 C 50.768418 9.705052 51.259506 9.213965 51.864525 9.213965 C 52.469545 9.213965 52.960633 9.705052 52.960633 10.310072 Z M 52.960633 10.310072 " transform="matrix(0.994286, 0, 0, -0.994286, 42.177937, 73.313657)"/>
<path fill-rule="nonzero" fill="rgb(0%, 0%, 69.999695%)" fill-opacity="1" stroke-width="0.3985" stroke-linecap="butt" stroke-linejoin="miter" stroke="rgb(0%, 0%, 69.999695%)" stroke-opacity="1" stroke-miterlimit="10" d="M 58.146516 9.783626 C 58.146516 10.388646 57.655429 10.879733 57.050409 10.879733 C 56.445389 10.879733 55.954302 10.388646 55.954302 9.783626 C 55.954302 9.178606 56.445389 8.687519 57.050409 8.687519 C 57.655429 8.687519 58.146516 9.178606 58.146516 9.783626 Z M 58.146516 9.783626 " transform="matrix(0.994286, 0, 0, -0.994286, 42.177937, 73.313657)"/>
<path fill-rule="nonzero" fill="rgb(0%, 0%, 69.999695%)" fill-opacity="1" stroke-width="0.3985" stroke-linecap="butt" stroke-linejoin="miter" stroke="rgb(0%, 0%, 69.999695%)" stroke-opacity="1" stroke-miterlimit="10" d="M 63.3324 9.34754 C 63.3324 9.95256 62.841312 10.443648 62.236293 10.443648 C 61.631273 10.443648 61.140185 9.95256 61.140185 9.34754 C 61.140185 8.742521 61.631273 8.251433 62.236293 8.251433 C 62.841312 8.251433 63.3324 8.742521 63.3324 9.34754 Z M 63.3324 9.34754 " transform="matrix(0.994286, 0, 0, -0.994286, 42.177937, 73.313657)"/>
<path fill-rule="nonzero" fill="rgb(0%, 0%, 69.999695%)" fill-opacity="1" stroke-width="0.3985" stroke-linecap="butt" stroke-linejoin="miter" stroke="rgb(0%, 0%, 69.999695%)" stroke-opacity="1" stroke-miterlimit="10" d="M 68.518283 8.978243 C 68.518283 9.583262 68.031125 10.07435 67.422176 10.07435 C 66.817156 10.07435 66.329998 9.583262 66.329998 8.978243 C 66.329998 8.373223 66.817156 7.882135 67.422176 7.882135 C 68.031125 7.882135 68.518283 8.373223 68.518283 8.978243 Z M 68.518283 8.978243 " transform="matrix(0.994286, 0, 0, -0.994286, 42.177937, 73.313657)"/>
<path fill-rule="nonzero" fill="rgb(0%, 0%, 69.999695%)" fill-opacity="1" stroke-width="0.3985" stroke-linecap="butt" stroke-linejoin="miter" stroke="rgb(0%, 0%, 69.999695%)" stroke-opacity="1" stroke-miterlimit="10" d="M 73.708096 8.663947 C 73.708096 9.268966 73.217008 9.760054 72.611989 9.760054 C 72.006969 9.760054 71.515881 9.268966 71.515881 8.663947 C 71.515881 8.058927 72.006969 7.567839 72.611989 7.567839 C 73.217008 7.567839 73.708096 8.058927 73.708096 8.663947 Z M 73.708096 8.663947 " transform="matrix(0.994286, 0, 0, -0.994286, 42.177937, 73.313657)"/>
<path fill-rule="nonzero" fill="rgb(0%, 0%, 69.999695%)" fill-opacity="1" stroke-width="0.3985" stroke-linecap="butt" stroke-linejoin="miter" stroke="rgb(0%, 0%, 69.999695%)" stroke-opacity="1" stroke-miterlimit="10" d="M 78.893979 8.388938 C 78.893979 8.993957 78.402892 9.485045 77.797872 9.485045 C 77.192852 9.485045 76.701765 8.993957 76.701765 8.388938 C 76.701765 7.783918 77.192852 7.29283 77.797872 7.29283 C 78.402892 7.29283 78.893979 7.783918 78.893979 8.388938 Z M 78.893979 8.388938 " transform="matrix(0.994286, 0, 0, -0.994286, 42.177937, 73.313657)"/>
<path fill-rule="nonzero" fill="rgb(0%, 0%, 69.999695%)" fill-opacity="1" stroke-width="0.3985" stroke-linecap="butt" stroke-linejoin="miter" stroke="rgb(0%, 0%, 69.999695%)" stroke-opacity="1" stroke-miterlimit="10" d="M 84.079863 8.149287 C 84.079863 8.754307 83.588776 9.245394 82.983756 9.245394 C 82.378736 9.245394 81.887649 8.754307 81.887649 8.149287 C 81.887649 7.544267 82.378736 7.05318 82.983756 7.05318 C 83.588776 7.05318 84.079863 7.544267 84.079863 8.149287 Z M 84.079863 8.149287 " transform="matrix(0.994286, 0, 0, -0.994286, 42.177937, 73.313657)"/>
<path fill-rule="nonzero" fill="rgb(0%, 0%, 69.999695%)" fill-opacity="1" stroke-width="0.3985" stroke-linecap="butt" stroke-linejoin="miter" stroke="rgb(0%, 0%, 69.999695%)" stroke-opacity="1" stroke-miterlimit="10" d="M 89.265747 7.937137 C 89.265747 8.542157 88.774659 9.033244 88.169639 9.033244 C 87.56462 9.033244 87.073532 8.542157 87.073532 7.937137 C 87.073532 7.332117 87.56462 6.84103 88.169639 6.84103 C 88.774659 6.84103 89.265747 7.332117 89.265747 7.937137 Z M 89.265747 7.937137 " transform="matrix(0.994286, 0, 0, -0.994286, 42.177937, 73.313657)"/>
<path fill-rule="nonzero" fill="rgb(0%, 0%, 69.999695%)" fill-opacity="1" stroke-width="0.3985" stroke-linecap="butt" stroke-linejoin="miter" stroke="rgb(0%, 0%, 69.999695%)" stroke-opacity="1" stroke-miterlimit="10" d="M 94.45163 7.74856 C 94.45163 8.353579 93.960543 8.844667 93.355523 8.844667 C 92.750503 8.844667 92.259416 8.353579 92.259416 7.74856 C 92.259416 7.14354 92.750503 6.652452 93.355523 6.652452 C 93.960543 6.652452 94.45163 7.14354 94.45163 7.74856 Z M 94.45163 7.74856 " transform="matrix(0.994286, 0, 0, -0.994286, 42.177937, 73.313657)"/>
<path fill-rule="nonzero" fill="rgb(0%, 0%, 69.999695%)" fill-opacity="1" stroke-width="0.3985" stroke-linecap="butt" stroke-linejoin="miter" stroke="rgb(0%, 0%, 69.999695%)" stroke-opacity="1" stroke-miterlimit="10" d="M 99.637514 7.579626 C 99.637514 8.184645 99.146426 8.675733 98.541407 8.675733 C 97.936387 8.675733 97.445299 8.184645 97.445299 7.579626 C 97.445299 6.974606 97.936387 6.483518 98.541407 6.483518 C 99.146426 6.483518 99.637514 6.974606 99.637514 7.579626 Z M 99.637514 7.579626 " transform="matrix(0.994286, 0, 0, -0.994286, 42.177937, 73.313657)"/>
<path fill-rule="nonzero" fill="rgb(0%, 0%, 69.999695%)" fill-opacity="1" stroke-width="0.3985" stroke-linecap="butt" stroke-linejoin="miter" stroke="rgb(0%, 0%, 69.999695%)" stroke-opacity="1" stroke-miterlimit="10" d="M 104.823397 7.430335 C 104.823397 8.035355 104.336239 8.526442 103.72729 8.526442 C 103.12227 8.526442 102.635112 8.035355 102.635112 7.430335 C 102.635112 6.825315 103.12227 6.334228 103.72729 6.334228 C 104.336239 6.334228 104.823397 6.825315 104.823397 7.430335 Z M 104.823397 7.430335 " transform="matrix(0.994286, 0, 0, -0.994286, 42.177937, 73.313657)"/>
<path fill-rule="nonzero" fill="rgb(0%, 0%, 69.999695%)" fill-opacity="1" stroke-width="0.3985" stroke-linecap="butt" stroke-linejoin="miter" stroke="rgb(0%, 0%, 69.999695%)" stroke-opacity="1" stroke-miterlimit="10" d="M 110.01321 7.29283 C 110.01321 7.89785 109.522122 8.388938 108.917103 8.388938 C 108.312083 8.388938 107.820995 7.89785 107.820995 7.29283 C 107.820995 6.687811 108.312083 6.196723 108.917103 6.196723 C 109.522122 6.196723 110.01321 6.687811 110.01321 7.29283 Z M 110.01321 7.29283 " transform="matrix(0.994286, 0, 0, -0.994286, 42.177937, 73.313657)"/>
<path fill-rule="nonzero" fill="rgb(0%, 0%, 69.999695%)" fill-opacity="1" stroke-width="0.3985" stroke-linecap="butt" stroke-linejoin="miter" stroke="rgb(0%, 0%, 69.999695%)" stroke-opacity="1" stroke-miterlimit="10" d="M 115.199093 7.167112 C 115.199093 7.772132 114.708006 8.263219 114.102986 8.263219 C 113.497966 8.263219 113.006879 7.772132 113.006879 7.167112 C 113.006879 6.562092 113.497966 6.071005 114.102986 6.071005 C 114.708006 6.071005 115.199093 6.562092 115.199093 7.167112 Z M 115.199093 7.167112 " transform="matrix(0.994286, 0, 0, -0.994286, 42.177937, 73.313657)"/>
<path fill-rule="nonzero" fill="rgb(0%, 0%, 69.999695%)" fill-opacity="1" stroke-width="0.3985" stroke-linecap="butt" stroke-linejoin="miter" stroke="rgb(0%, 0%, 69.999695%)" stroke-opacity="1" stroke-miterlimit="10" d="M 120.384977 7.05318 C 120.384977 7.6582 119.89389 8.149287 119.28887 8.149287 C 118.68385 8.149287 118.192763 7.6582 118.192763 7.05318 C 118.192763 6.44816 118.68385 5.957073 119.28887 5.957073 C 119.89389 5.957073 120.384977 6.44816 120.384977 7.05318 Z M 120.384977 7.05318 " transform="matrix(0.994286, 0, 0, -0.994286, 42.177937, 73.313657)"/>
<path fill-rule="nonzero" fill="rgb(0%, 0%, 69.999695%)" fill-opacity="1" stroke-width="0.3985" stroke-linecap="butt" stroke-linejoin="miter" stroke="rgb(0%, 0%, 69.999695%)" stroke-opacity="1" stroke-miterlimit="10" d="M 125.570861 6.951034 C 125.570861 7.556053 125.079773 8.047141 124.474753 8.047141 C 123.869734 8.047141 123.378646 7.556053 123.378646 6.951034 C 123.378646 6.346014 123.869734 5.854926 124.474753 5.854926 C 125.079773 5.854926 125.570861 6.346014 125.570861 6.951034 Z M 125.570861 6.951034 " transform="matrix(0.994286, 0, 0, -0.994286, 42.177937, 73.313657)"/>
<path fill-rule="nonzero" fill="rgb(0%, 0%, 69.999695%)" fill-opacity="1" stroke-width="0.3985" stroke-linecap="butt" stroke-linejoin="miter" stroke="rgb(0%, 0%, 69.999695%)" stroke-opacity="1" stroke-miterlimit="10" d="M 130.756744 6.852816 C 130.756744 7.461765 130.265657 7.948923 129.660637 7.948923 C 129.055617 7.948923 128.56453 7.461765 128.56453 6.852816 C 128.56453 6.247796 129.055617 5.756709 129.660637 5.756709 C 130.265657 5.756709 130.756744 6.247796 130.756744 6.852816 Z M 130.756744 6.852816 " transform="matrix(0.994286, 0, 0, -0.994286, 42.177937, 73.313657)"/>
<path fill-rule="nonzero" fill="rgb(0%, 0%, 69.999695%)" fill-opacity="1" stroke-width="0.3985" stroke-linecap="butt" stroke-linejoin="miter" stroke="rgb(0%, 0%, 69.999695%)" stroke-opacity="1" stroke-miterlimit="10" d="M 135.942628 6.766385 C 135.942628 7.371404 135.45154 7.862492 134.846521 7.862492 C 134.241501 7.862492 133.750413 7.371404 133.750413 6.766385 C 133.750413 6.161365 134.241501 5.670277 134.846521 5.670277 C 135.45154 5.670277 135.942628 6.161365 135.942628 6.766385 Z M 135.942628 6.766385 " transform="matrix(0.994286, 0, 0, -0.994286, 42.177937, 73.313657)"/>
<path fill-rule="nonzero" fill="rgb(0%, 0%, 69.999695%)" fill-opacity="1" stroke-width="0.3985" stroke-linecap="butt" stroke-linejoin="miter" stroke="rgb(0%, 0%, 69.999695%)" stroke-opacity="1" stroke-miterlimit="10" d="M 141.128511 6.683882 C 141.128511 7.288902 140.641353 7.779989 140.036333 7.779989 C 139.427385 7.779989 138.940226 7.288902 138.940226 6.683882 C 138.940226 6.078862 139.427385 5.587775 140.036333 5.587775 C 140.641353 5.587775 141.128511 6.078862 141.128511 6.683882 Z M 141.128511 6.683882 " transform="matrix(0.994286, 0, 0, -0.994286, 42.177937, 73.313657)"/>
<path fill-rule="nonzero" fill="rgb(0%, 0%, 69.999695%)" fill-opacity="1" stroke-width="0.3985" stroke-linecap="butt" stroke-linejoin="miter" stroke="rgb(0%, 0%, 69.999695%)" stroke-opacity="1" stroke-miterlimit="10" d="M 146.318324 6.609237 C 146.318324 7.214256 145.827236 7.705344 145.222217 7.705344 C 144.617197 7.705344 144.126109 7.214256 144.126109 6.609237 C 144.126109 6.004217 144.617197 5.513129 145.222217 5.513129 C 145.827236 5.513129 146.318324 6.004217 146.318324 6.609237 Z M 146.318324 6.609237 " transform="matrix(0.994286, 0, 0, -0.994286, 42.177937, 73.313657)"/>
<path fill-rule="nonzero" fill="rgb(0%, 0%, 69.999695%)" fill-opacity="1" stroke-width="0.3985" stroke-linecap="butt" stroke-linejoin="miter" stroke="rgb(0%, 0%, 69.999695%)" stroke-opacity="1" stroke-miterlimit="10" d="M 151.504207 6.53852 C 151.504207 7.14354 151.01312 7.634627 150.4081 7.634627 C 149.80308 7.634627 149.311993 7.14354 149.311993 6.53852 C 149.311993 5.9335 149.80308 5.442413 150.4081 5.442413 C 151.01312 5.442413 151.504207 5.9335 151.504207 6.53852 Z M 151.504207 6.53852 " transform="matrix(0.994286, 0, 0, -0.994286, 42.177937, 73.313657)"/>
<path fill-rule="nonzero" fill="rgb(0%, 0%, 69.999695%)" fill-opacity="1" stroke-width="0.3985" stroke-linecap="butt" stroke-linejoin="miter" stroke="rgb(0%, 0%, 69.999695%)" stroke-opacity="1" stroke-miterlimit="10" d="M 156.690091 6.471732 C 156.690091 7.076752 156.199004 7.567839 155.593984 7.567839 C 154.988964 7.567839 154.497877 7.076752 154.497877 6.471732 C 154.497877 5.866712 154.988964 5.375625 155.593984 5.375625 C 156.199004 5.375625 156.690091 5.866712 156.690091 6.471732 Z M 156.690091 6.471732 " transform="matrix(0.994286, 0, 0, -0.994286, 42.177937, 73.313657)"/>
<path fill-rule="nonzero" fill="rgb(0%, 0%, 69.999695%)" fill-opacity="1" stroke-width="0.3985" stroke-linecap="butt" stroke-linejoin="miter" stroke="rgb(0%, 0%, 69.999695%)" stroke-opacity="1" stroke-miterlimit="10" d="M 161.875975 6.408873 C 161.875975 7.013893 161.384887 7.50498 160.779867 7.50498 C 160.174848 7.50498 159.68376 7.013893 159.68376 6.408873 C 159.68376 5.803853 160.174848 5.312766 160.779867 5.312766 C 161.384887 5.312766 161.875975 5.803853 161.875975 6.408873 Z M 161.875975 6.408873 " transform="matrix(0.994286, 0, 0, -0.994286, 42.177937, 73.313657)"/>
<path fill-rule="nonzero" fill="rgb(0%, 0%, 69.999695%)" fill-opacity="1" stroke-width="0.3985" stroke-linecap="butt" stroke-linejoin="miter" stroke="rgb(0%, 0%, 69.999695%)" stroke-opacity="1" stroke-miterlimit="10" d="M 167.061858 6.353871 C 167.061858 6.958891 166.570771 7.44605 165.965751 7.44605 C 165.360731 7.44605 164.869644 6.958891 164.869644 6.353871 C 164.869644 5.744923 165.360731 5.257764 165.965751 5.257764 C 166.570771 5.257764 167.061858 5.744923 167.061858 6.353871 Z M 167.061858 6.353871 " transform="matrix(0.994286, 0, 0, -0.994286, 42.177937, 73.313657)"/>
<path fill-rule="nonzero" fill="rgb(0%, 0%, 69.999695%)" fill-opacity="1" stroke-width="0.3985" stroke-linecap="butt" stroke-linejoin="miter" stroke="rgb(0%, 0%, 69.999695%)" stroke-opacity="1" stroke-miterlimit="10" d="M 172.247742 6.298869 C 172.247742 6.903889 171.756654 7.394977 171.151635 7.394977 C 170.546615 7.394977 170.055527 6.903889 170.055527 6.298869 C 170.055527 5.69385 170.546615 5.202762 171.151635 5.202762 C 171.756654 5.202762 172.247742 5.69385 172.247742 6.298869 Z M 172.247742 6.298869 " transform="matrix(0.994286, 0, 0, -0.994286, 42.177937, 73.313657)"/>
<path fill-rule="nonzero" fill="rgb(0%, 0%, 69.999695%)" fill-opacity="1" stroke-width="0.3985" stroke-linecap="butt" stroke-linejoin="miter" stroke="rgb(0%, 0%, 69.999695%)" stroke-opacity="1" stroke-miterlimit="10" d="M 177.433626 6.247796 C 177.433626 6.852816 176.946467 7.343904 176.341447 7.343904 C 175.732499 7.343904 175.24534 6.852816 175.24534 6.247796 C 175.24534 5.642777 175.732499 5.151689 176.341447 5.151689 C 176.946467 5.151689 177.433626 5.642777 177.433626 6.247796 Z M 177.433626 6.247796 " transform="matrix(0.994286, 0, 0, -0.994286, 42.177937, 73.313657)"/>
<path fill-rule="nonzero" fill="rgb(0%, 0%, 69.999695%)" fill-opacity="1" stroke-width="0.3985" stroke-linecap="butt" stroke-linejoin="miter" stroke="rgb(0%, 0%, 69.999695%)" stroke-opacity="1" stroke-miterlimit="10" d="M 182.623438 6.196723 C 182.623438 6.801743 182.13235 7.29283 181.527331 7.29283 C 180.922311 7.29283 180.431223 6.801743 180.431223 6.196723 C 180.431223 5.591703 180.922311 5.100616 181.527331 5.100616 C 182.13235 5.100616 182.623438 5.591703 182.623438 6.196723 Z M 182.623438 6.196723 " transform="matrix(0.994286, 0, 0, -0.994286, 42.177937, 73.313657)"/>
<path fill-rule="nonzero" fill="rgb(0%, 0%, 69.999695%)" fill-opacity="1" stroke-width="0.3985" stroke-linecap="butt" stroke-linejoin="miter" stroke="rgb(0%, 0%, 69.999695%)" stroke-opacity="1" stroke-miterlimit="10" d="M 187.809321 6.153508 C 187.809321 6.758527 187.318234 7.249615 186.713214 7.249615 C 186.108195 7.249615 185.617107 6.758527 185.617107 6.153508 C 185.617107 5.548488 186.108195 5.0574 186.713214 5.0574 C 187.318234 5.0574 187.809321 5.548488 187.809321 6.153508 Z M 187.809321 6.153508 " transform="matrix(0.994286, 0, 0, -0.994286, 42.177937, 73.313657)"/>
<path fill-rule="nonzero" fill="rgb(0%, 0%, 69.999695%)" fill-opacity="1" stroke-width="0.3985" stroke-linecap="butt" stroke-linejoin="miter" stroke="rgb(0%, 0%, 69.999695%)" stroke-opacity="1" stroke-miterlimit="10" d="M 192.995205 6.110292 C 192.995205 6.715312 192.504118 7.206399 191.899098 7.206399 C 191.294078 7.206399 190.802991 6.715312 190.802991 6.110292 C 190.802991 5.505272 191.294078 5.014185 191.899098 5.014185 C 192.504118 5.014185 192.995205 5.505272 192.995205 6.110292 Z M 192.995205 6.110292 " transform="matrix(0.994286, 0, 0, -0.994286, 42.177937, 73.313657)"/>
<path fill-rule="nonzero" fill="rgb(0%, 0%, 69.999695%)" fill-opacity="1" stroke-width="0.3985" stroke-linecap="butt" stroke-linejoin="miter" stroke="rgb(0%, 0%, 69.999695%)" stroke-opacity="1" stroke-miterlimit="10" d="M 198.181089 6.067076 C 198.181089 6.672096 197.690001 7.163183 197.084982 7.163183 C 196.479962 7.163183 195.988874 6.672096 195.988874 6.067076 C 195.988874 5.462056 196.479962 4.970969 197.084982 4.970969 C 197.690001 4.970969 198.181089 5.462056 198.181089 6.067076 Z M 198.181089 6.067076 " transform="matrix(0.994286, 0, 0, -0.994286, 42.177937, 73.313657)"/>
<path fill-rule="nonzero" fill="rgb(0%, 0%, 69.999695%)" fill-opacity="1" stroke-width="0.3985" stroke-linecap="butt" stroke-linejoin="miter" stroke="rgb(0%, 0%, 69.999695%)" stroke-opacity="1" stroke-miterlimit="10" d="M 203.366972 6.031718 C 203.366972 6.636738 202.875885 7.123896 202.270865 7.123896 C 201.665845 7.123896 201.174758 6.636738 201.174758 6.031718 C 201.174758 5.422769 201.665845 4.935611 202.270865 4.935611 C 202.875885 4.935611 203.366972 5.422769 203.366972 6.031718 Z M 203.366972 6.031718 " transform="matrix(0.994286, 0, 0, -0.994286, 42.177937, 73.313657)"/>
<path fill-rule="nonzero" fill="rgb(0%, 0%, 69.999695%)" fill-opacity="1" stroke-width="0.3985" stroke-linecap="butt" stroke-linejoin="miter" stroke="rgb(0%, 0%, 69.999695%)" stroke-opacity="1" stroke-miterlimit="10" d="M 208.552856 5.992431 C 208.552856 6.597451 208.061768 7.088538 207.456749 7.088538 C 206.851729 7.088538 206.360642 6.597451 206.360642 5.992431 C 206.360642 5.387411 206.851729 4.896324 207.456749 4.896324 C 208.061768 4.896324 208.552856 5.387411 208.552856 5.992431 Z M 208.552856 5.992431 " transform="matrix(0.994286, 0, 0, -0.994286, 42.177937, 73.313657)"/>
<path fill-rule="nonzero" fill="rgb(0%, 0%, 69.999695%)" fill-opacity="1" stroke-width="0.3985" stroke-linecap="butt" stroke-linejoin="miter" stroke="rgb(0%, 0%, 69.999695%)" stroke-opacity="1" stroke-miterlimit="10" d="M 213.742668 5.957073 C 213.742668 6.562092 213.251581 7.05318 212.646561 7.05318 C 212.037613 7.05318 211.550454 6.562092 211.550454 5.957073 C 211.550454 5.352053 212.037613 4.860965 212.646561 4.860965 C 213.251581 4.860965 213.742668 5.352053 213.742668 5.957073 Z M 213.742668 5.957073 " transform="matrix(0.994286, 0, 0, -0.994286, 42.177937, 73.313657)"/>
<path fill-rule="nonzero" fill="rgb(0%, 0%, 69.999695%)" fill-opacity="1" stroke-width="0.3985" stroke-linecap="butt" stroke-linejoin="miter" stroke="rgb(0%, 0%, 69.999695%)" stroke-opacity="1" stroke-miterlimit="10" d="M 218.928552 5.925643 C 218.928552 6.530663 218.437464 7.02175 217.832445 7.02175 C 217.227425 7.02175 216.736337 6.530663 216.736337 5.925643 C 216.736337 5.320623 217.227425 4.829536 217.832445 4.829536 C 218.437464 4.829536 218.928552 5.320623 218.928552 5.925643 Z M 218.928552 5.925643 " transform="matrix(0.994286, 0, 0, -0.994286, 42.177937, 73.313657)"/>
<path fill-rule="nonzero" fill="rgb(0%, 0%, 69.999695%)" fill-opacity="1" stroke-width="0.3985" stroke-linecap="butt" stroke-linejoin="miter" stroke="rgb(0%, 0%, 69.999695%)" stroke-opacity="1" stroke-miterlimit="10" d="M 224.114436 5.894213 C 224.114436 6.499233 223.623348 6.990321 223.018328 6.990321 C 222.413309 6.990321 221.922221 6.499233 221.922221 5.894213 C 221.922221 5.289194 222.413309 4.798106 223.018328 4.798106 C 223.623348 4.798106 224.114436 5.289194 224.114436 5.894213 Z M 224.114436 5.894213 " transform="matrix(0.994286, 0, 0, -0.994286, 42.177937, 73.313657)"/>
<path fill-rule="nonzero" fill="rgb(0%, 0%, 69.999695%)" fill-opacity="1" stroke-width="0.3985" stroke-linecap="butt" stroke-linejoin="miter" stroke="rgb(0%, 0%, 69.999695%)" stroke-opacity="1" stroke-miterlimit="10" d="M 229.300319 5.862784 C 229.300319 6.467804 228.809232 6.958891 228.204212 6.958891 C 227.599192 6.958891 227.108105 6.467804 227.108105 5.862784 C 227.108105 5.257764 227.599192 4.766677 228.204212 4.766677 C 228.809232 4.766677 229.300319 5.257764 229.300319 5.862784 Z M 229.300319 5.862784 " transform="matrix(0.994286, 0, 0, -0.994286, 42.177937, 73.313657)"/>
<path fill-rule="nonzero" fill="rgb(0%, 0%, 69.999695%)" fill-opacity="1" stroke-width="0.3985" stroke-linecap="butt" stroke-linejoin="miter" stroke="rgb(0%, 0%, 69.999695%)" stroke-opacity="1" stroke-miterlimit="10" d="M 234.486203 5.835283 C 234.486203 6.440303 233.995115 6.93139 233.390096 6.93139 C 232.785076 6.93139 232.293988 6.440303 232.293988 5.835283 C 232.293988 5.230263 232.785076 4.739176 233.390096 4.739176 C 233.995115 4.739176 234.486203 5.230263 234.486203 5.835283 Z M 234.486203 5.835283 " transform="matrix(0.994286, 0, 0, -0.994286, 42.177937, 73.313657)"/>
<path fill-rule="nonzero" fill="rgb(0%, 0%, 69.999695%)" fill-opacity="1" stroke-width="0.3985" stroke-linecap="butt" stroke-linejoin="miter" stroke="rgb(0%, 0%, 69.999695%)" stroke-opacity="1" stroke-miterlimit="10" d="M 239.672086 5.807782 C 239.672086 6.412802 239.180999 6.89996 238.575979 6.89996 C 237.970959 6.89996 237.479872 6.412802 237.479872 5.807782 C 237.479872 5.198834 237.970959 4.711675 238.575979 4.711675 C 239.180999 4.711675 239.672086 5.198834 239.672086 5.807782 Z M 239.672086 5.807782 " transform="matrix(0.994286, 0, 0, -0.994286, 42.177937, 73.313657)"/>
<path fill-rule="nonzero" fill="rgb(0%, 0%, 69.999695%)" fill-opacity="1" stroke-width="0.3985" stroke-linecap="butt" stroke-linejoin="miter" stroke="rgb(0%, 0%, 69.999695%)" stroke-opacity="1" stroke-miterlimit="10" d="M 244.85797 5.780281 C 244.85797 6.385301 244.366883 6.876388 243.761863 6.876388 C 243.156843 6.876388 242.665756 6.385301 242.665756 5.780281 C 242.665756 5.175261 243.156843 4.684174 243.761863 4.684174 C 244.366883 4.684174 244.85797 5.175261 244.85797 5.780281 Z M 244.85797 5.780281 " transform="matrix(0.994286, 0, 0, -0.994286, 42.177937, 73.313657)"/>
<path fill-rule="nonzero" fill="rgb(0%, 0%, 69.999695%)" fill-opacity="1" stroke-width="0.3985" stroke-linecap="butt" stroke-linejoin="miter" stroke="rgb(0%, 0%, 69.999695%)" stroke-opacity="1" stroke-miterlimit="10" d="M 250.047782 5.75278 C 250.047782 6.3578 249.556695 6.848887 248.951675 6.848887 C 248.346655 6.848887 247.855568 6.3578 247.855568 5.75278 C 247.855568 5.14776 248.346655 4.656673 248.951675 4.656673 C 249.556695 4.656673 250.047782 5.14776 250.047782 5.75278 Z M 250.047782 5.75278 " transform="matrix(0.994286, 0, 0, -0.994286, 42.177937, 73.313657)"/>
<path fill-rule="nonzero" fill="rgb(0%, 0%, 69.999695%)" fill-opacity="1" stroke-width="0.3985" stroke-linecap="butt" stroke-linejoin="miter" stroke="rgb(0%, 0%, 69.999695%)" stroke-opacity="1" stroke-miterlimit="10" d="M 255.233666 5.729208 C 255.233666 6.334228 254.742578 6.825315 254.137559 6.825315 C 253.532539 6.825315 253.041452 6.334228 253.041452 5.729208 C 253.041452 5.124188 253.532539 4.633101 254.137559 4.633101 C 254.742578 4.633101 255.233666 5.124188 255.233666 5.729208 Z M 255.233666 5.729208 " transform="matrix(0.994286, 0, 0, -0.994286, 42.177937, 73.313657)"/>
<path fill-rule="nonzero" fill="rgb(0%, 0%, 69.999695%)" fill-opacity="1" stroke-width="0.3985" stroke-linecap="butt" stroke-linejoin="miter" stroke="rgb(0%, 0%, 69.999695%)" stroke-opacity="1" stroke-miterlimit="10" d="M 260.41955 5.705636 C 260.41955 6.310656 259.928462 6.801743 259.323442 6.801743 C 258.718423 6.801743 258.227335 6.310656 258.227335 5.705636 C 258.227335 5.100616 258.718423 4.609529 259.323442 4.609529 C 259.928462 4.609529 260.41955 5.100616 260.41955 5.705636 Z M 260.41955 5.705636 " transform="matrix(0.994286, 0, 0, -0.994286, 42.177937, 73.313657)"/>
<g fill="rgb(0%, 0%, 0%)" fill-opacity="1">
<use xlink:href="#glyph-1-1" x="170.543206" y="95.371886"/>
</g>
<g fill="rgb(0%, 0%, 0%)" fill-opacity="1">
<use xlink:href="#glyph-2-0" x="16.436874" y="44.645417"/>
</g>
<g fill="rgb(0%, 0%, 0%)" fill-opacity="1">
<use xlink:href="#glyph-3-0" x="18.002874" y="39.211646"/>
</g>
<path fill-rule="nonzero" fill="rgb(100%, 100%, 100%)" fill-opacity="1" stroke-width="0.3985" stroke-linecap="butt" stroke-linejoin="miter" stroke="rgb(0%, 0%, 0%)" stroke-opacity="1" stroke-miterlimit="10" d="M 147.520506 36.019483 L 259.017004 36.019483 L 259.017004 66.981565 L 147.520506 66.981565 Z M 147.520506 36.019483 " transform="matrix(0.994286, 0, 0, -0.994286, 42.177937, 73.313657)"/>
<path fill="none" stroke-width="0.3985" stroke-linecap="butt" stroke-linejoin="miter" stroke="rgb(0%, 0%, 69.999695%)" stroke-opacity="1" stroke-miterlimit="10" d="M -0.00195492 0.000570223 L 17.009315 0.000570223 " transform="matrix(0.994286, 0, 0, -0.994286, 192.2246, 15.262286)"/>
<path fill-rule="nonzero" fill="rgb(0%, 0%, 69.999695%)" fill-opacity="1" stroke-width="0.3985" stroke-linecap="butt" stroke-linejoin="miter" stroke="rgb(0%, 0%, 69.999695%)" stroke-opacity="1" stroke-miterlimit="10" d="M 9.599787 0.000570223 C 9.599787 0.60559 9.1087 1.096677 8.50368 1.096677 C 7.89866 1.096677 7.407573 0.60559 7.407573 0.000570223 C 7.407573 -0.60445 7.89866 -1.095537 8.50368 -1.095537 C 9.1087 -1.095537 9.599787 -0.60445 9.599787 0.000570223 Z M 9.599787 0.000570223 " transform="matrix(0.994286, 0, 0, -0.994286, 192.2246, 15.262286)"/>
<g fill="rgb(0%, 0%, 0%)" fill-opacity="1">
<use xlink:href="#glyph-4-0" x="211.593286" y="18.282926"/>
</g>
<g fill="rgb(0%, 0%, 0%)" fill-opacity="1">
<use xlink:href="#glyph-5-0" x="216.358897" y="19.277211"/>
</g>
<g fill="rgb(0%, 0%, 0%)" fill-opacity="1">
<use xlink:href="#glyph-6-0" x="223.98308" y="18.282926"/>
</g>
<g fill="rgb(0%, 0%, 0%)" fill-opacity="1">
<use xlink:href="#glyph-4-1" x="233.691286" y="18.282926"/>
</g>
<g fill="rgb(0%, 0%, 0%)" fill-opacity="1">
<use xlink:href="#glyph-6-1" x="239.2394" y="18.282926"/>
<use xlink:href="#glyph-6-2" x="241.789743" y="18.282926"/>
</g>
<g fill="rgb(0%, 0%, 0%)" fill-opacity="1">
<use xlink:href="#glyph-7-0" x="246.392291" y="11.054469"/>
</g>
<g fill="rgb(0%, 0%, 0%)" fill-opacity="1">
<use xlink:href="#glyph-6-3" x="250.608063" y="18.282926"/>
</g>
<g fill="rgb(0%, 0%, 0%)" fill-opacity="1">
<use xlink:href="#glyph-4-1" x="254.184509" y="18.282926"/>
</g>
<g fill="rgb(0%, 0%, 0%)" fill-opacity="1">
<use xlink:href="#glyph-6-2" x="259.732623" y="18.282926"/>
</g>
<g fill="rgb(0%, 0%, 0%)" fill-opacity="1">
<use xlink:href="#glyph-4-2" x="264.331194" y="18.282926"/>
</g>
<g fill="rgb(0%, 0%, 0%)" fill-opacity="1">
<use xlink:href="#glyph-6-4" x="268.606623" y="18.282926"/>
</g>
<g fill="rgb(0%, 0%, 0%)" fill-opacity="1">
<use xlink:href="#glyph-5-0" x="272.183069" y="14.481771"/>
</g>
<g fill="rgb(0%, 0%, 0%)" fill-opacity="1">
<use xlink:href="#glyph-8-0" x="277.252931" y="11.834983"/>
</g>
<path fill="none" stroke-width="0.38" stroke-linecap="butt" stroke-linejoin="miter" stroke="rgb(0%, 0%, 0%)" stroke-opacity="1" stroke-miterlimit="10" d="M 141.749089 44.116546 L 147.327843 44.116546 " transform="matrix(0.994286, 0, 0, -0.994286, 143.978874, 55.508983)"/>
<g fill="rgb(0%, 0%, 0%)" fill-opacity="1">
<use xlink:href="#glyph-4-1" x="284.916886" y="18.282926"/>
</g>
<g fill="rgb(0%, 0%, 0%)" fill-opacity="1">
<use xlink:href="#glyph-7-1" x="290.465" y="11.054469"/>
</g>
<path fill="none" stroke-width="0.79701" stroke-linecap="butt" stroke-linejoin="miter" stroke="rgb(75%, 0%, 0%)" stroke-opacity="1" stroke-dasharray="2.98883 2.98883" stroke-miterlimit="10" d="M -0.00195492 -0.00158459 L 17.009315 -0.00158459 " transform="matrix(0.994286, 0, 0, -0.994286, 192.2246, 28.674206)"/>
<g fill="rgb(0%, 0%, 0%)" fill-opacity="1">
<use xlink:href="#glyph-8-0" x="211.512749" y="24.565817"/>
</g>
<path fill="none" stroke-width="0.38" stroke-linecap="butt" stroke-linejoin="miter" stroke="rgb(0%, 0%, 0%)" stroke-opacity="1" stroke-miterlimit="10" d="M 75.710073 31.590914 L 85.952193 31.590914 " transform="matrix(0.994286, 0, 0, -0.994286, 143.898337, 55.785394)"/>
<g fill="rgb(0%, 0%, 0%)" fill-opacity="1">
<use xlink:href="#glyph-6-5" x="219.176703" y="31.971257"/>
</g>
<g fill="rgb(0%, 0%, 0%)" fill-opacity="1">
<use xlink:href="#glyph-4-3" x="223.775274" y="31.971257"/>
</g>
<g fill="rgb(0%, 0%, 0%)" fill-opacity="1">
<use xlink:href="#glyph-6-0" x="231.915491" y="31.971257"/>
</g>
<g fill="rgb(0%, 0%, 0%)" fill-opacity="1">
<use xlink:href="#glyph-6-5" x="241.615743" y="31.971257"/>
</g>
<g fill="rgb(0%, 0%, 0%)" fill-opacity="1">
<use xlink:href="#glyph-4-4" x="246.221274" y="31.971257"/>
</g>
<g fill="rgb(0%, 0%, 0%)" fill-opacity="1">
<use xlink:href="#glyph-6-6" x="248.776589" y="31.971257"/>
<use xlink:href="#glyph-6-7" x="253.367206" y="31.971257"/>
<use xlink:href="#glyph-6-8" x="257.957823" y="31.971257"/>
<use xlink:href="#glyph-6-8" x="262.54844" y="31.971257"/>
<use xlink:href="#glyph-6-5" x="267.139057" y="31.971257"/>
<use xlink:href="#glyph-6-9" x="271.729674" y="31.971257"/>
<use xlink:href="#glyph-6-5" x="276.320291" y="31.971257"/>
<use xlink:href="#glyph-6-10" x="280.910909" y="31.971257"/>
<use xlink:href="#glyph-6-11" x="285.501526" y="31.971257"/>
<use xlink:href="#glyph-6-8" x="290.092143" y="31.971257"/>
</g>
</svg>
