<?xml version="1.0" encoding="UTF-8"?>
<svg xmlns="http://www.w3.org/2000/svg" xmlns:xlink="http://www.w3.org/1999/xlink" width="324.98pt" height="129.91pt" viewBox="0 0 324.98 129.91">
<defs>
<g>
<g id="glyph-0-0">
<path d="M 4.828125 -3.359375 C 4.828125 -4.203125 4.78125 -5.046875 4.40625 -5.8125 C 3.921875 -6.828125 3.0625 -7 2.625 -7 C 2 -7 1.234375 -6.71875 0.796875 -5.75 C 0.46875 -5.015625 0.40625 -4.203125 0.40625 -3.359375 C 0.40625 -2.578125 0.453125 -1.625 0.875 -0.828125 C 1.328125 0.015625 2.09375 0.234375 2.609375 0.234375 C 3.1875 0.234375 3.984375 0.015625 4.4375 -0.984375 C 4.78125 -1.71875 4.828125 -2.53125 4.828125 -3.359375 Z M 2.609375 0 C 2.203125 0 1.578125 -0.265625 1.390625 -1.265625 C 1.28125 -1.90625 1.28125 -2.859375 1.28125 -3.484375 C 1.28125 -4.15625 1.28125 -4.84375 1.359375 -5.421875 C 1.5625 -6.671875 2.359375 -6.765625 2.609375 -6.765625 C 2.96875 -6.765625 3.65625 -6.578125 3.859375 -5.53125 C 3.953125 -4.953125 3.953125 -4.140625 3.953125 -3.484375 C 3.953125 -2.703125 3.953125 -1.984375 3.84375 -1.3125 C 3.6875 -0.3125 3.09375 0 2.609375 0 Z M 2.609375 0 "/>
</g>
<g id="glyph-0-1">
<path d="M 4.71875 -2.109375 C 4.71875 -3.359375 3.859375 -4.40625 2.71875 -4.40625 C 2.21875 -4.40625 1.765625 -4.234375 1.390625 -3.875 L 1.390625 -5.921875 C 1.59375 -5.859375 1.9375 -5.78125 2.28125 -5.78125 C 3.5625 -5.78125 4.3125 -6.734375 4.3125 -6.875 C 4.3125 -6.9375 4.28125 -7 4.203125 -7 C 4.1875 -7 4.171875 -7 4.109375 -6.96875 C 3.90625 -6.859375 3.390625 -6.65625 2.6875 -6.65625 C 2.265625 -6.65625 1.78125 -6.734375 1.296875 -6.953125 C 1.203125 -6.984375 1.1875 -6.984375 1.171875 -6.984375 C 1.0625 -6.984375 1.0625 -6.90625 1.0625 -6.734375 L 1.0625 -3.625 C 1.0625 -3.4375 1.0625 -3.34375 1.203125 -3.34375 C 1.28125 -3.34375 1.296875 -3.375 1.34375 -3.4375 C 1.453125 -3.609375 1.84375 -4.171875 2.703125 -4.171875 C 3.25 -4.171875 3.5 -3.703125 3.59375 -3.5 C 3.765625 -3.125 3.78125 -2.703125 3.78125 -2.1875 C 3.78125 -1.8125 3.78125 -1.1875 3.53125 -0.75 C 3.28125 -0.34375 2.890625 -0.0625 2.40625 -0.0625 C 1.640625 -0.0625 1.046875 -0.625 0.859375 -1.234375 C 0.890625 -1.234375 0.921875 -1.21875 1.046875 -1.21875 C 1.390625 -1.21875 1.5625 -1.484375 1.5625 -1.734375 C 1.5625 -1.984375 1.390625 -2.25 1.046875 -2.25 C 0.890625 -2.25 0.53125 -2.171875 0.53125 -1.6875 C 0.53125 -0.78125 1.25 0.234375 2.421875 0.234375 C 3.640625 0.234375 4.71875 -0.78125 4.71875 -2.109375 Z M 4.71875 -2.109375 "/>
</g>
<g id="glyph-0-2">
<path d="M 3.09375 -6.71875 C 3.09375 -6.96875 3.09375 -7 2.84375 -7 C 2.1875 -6.328125 1.265625 -6.328125 0.9375 -6.328125 L 0.9375 -6 C 1.140625 -6 1.765625 -6 2.3125 -6.265625 L 2.3125 -0.828125 C 2.3125 -0.453125 2.28125 -0.328125 1.328125 -0.328125 L 1 -0.328125 L 1 0 C 1.359375 -0.03125 2.28125 -0.03125 2.703125 -0.03125 C 3.125 -0.03125 4.03125 -0.03125 4.40625 0 L 4.40625 -0.328125 L 4.0625 -0.328125 C 3.125 -0.328125 3.09375 -0.4375 3.09375 -0.828125 Z M 3.09375 -6.71875 "/>
</g>
<g id="glyph-0-3">
<path d="M 1.328125 -0.8125 L 2.453125 -1.890625 C 4.078125 -3.34375 4.71875 -3.90625 4.71875 -4.953125 C 4.71875 -6.15625 3.765625 -7 2.484375 -7 C 1.296875 -7 0.53125 -6.03125 0.53125 -5.09375 C 0.53125 -4.5 1.046875 -4.5 1.078125 -4.5 C 1.265625 -4.5 1.625 -4.625 1.625 -5.0625 C 1.625 -5.328125 1.4375 -5.609375 1.078125 -5.609375 C 0.984375 -5.609375 0.96875 -5.609375 0.9375 -5.59375 C 1.171875 -6.28125 1.75 -6.671875 2.359375 -6.671875 C 3.3125 -6.671875 3.765625 -5.8125 3.765625 -4.953125 C 3.765625 -4.109375 3.234375 -3.28125 2.65625 -2.640625 L 0.640625 -0.390625 C 0.53125 -0.265625 0.53125 -0.25 0.53125 0 L 4.421875 0 L 4.71875 -1.828125 L 4.453125 -1.828125 C 4.40625 -1.515625 4.328125 -1.046875 4.21875 -0.890625 C 4.140625 -0.8125 3.453125 -0.8125 3.21875 -0.8125 Z M 1.328125 -0.8125 "/>
</g>
<g id="glyph-0-4">
<path d="M 3.046875 -3.703125 C 3.90625 -3.984375 4.515625 -4.71875 4.515625 -5.546875 C 4.515625 -6.40625 3.59375 -7 2.578125 -7 C 1.515625 -7 0.71875 -6.359375 0.71875 -5.5625 C 0.71875 -5.21875 0.953125 -5.015625 1.265625 -5.015625 C 1.578125 -5.015625 1.796875 -5.25 1.796875 -5.546875 C 1.796875 -6.078125 1.296875 -6.078125 1.140625 -6.078125 C 1.46875 -6.59375 2.15625 -6.734375 2.546875 -6.734375 C 2.96875 -6.734375 3.546875 -6.5 3.546875 -5.546875 C 3.546875 -5.421875 3.53125 -4.8125 3.25 -4.359375 C 2.9375 -3.859375 2.578125 -3.828125 2.328125 -3.8125 C 2.234375 -3.796875 1.984375 -3.78125 1.90625 -3.78125 C 1.828125 -3.765625 1.75 -3.765625 1.75 -3.65625 C 1.75 -3.53125 1.828125 -3.53125 2 -3.53125 L 2.46875 -3.53125 C 3.328125 -3.53125 3.71875 -2.828125 3.71875 -1.796875 C 3.71875 -0.375 3 -0.0625 2.53125 -0.0625 C 2.078125 -0.0625 1.296875 -0.234375 0.921875 -0.859375 C 1.296875 -0.8125 1.609375 -1.046875 1.609375 -1.4375 C 1.609375 -1.8125 1.328125 -2.03125 1.03125 -2.03125 C 0.78125 -2.03125 0.4375 -1.875 0.4375 -1.421875 C 0.4375 -0.46875 1.421875 0.234375 2.5625 0.234375 C 3.84375 0.234375 4.796875 -0.71875 4.796875 -1.796875 C 4.796875 -2.65625 4.140625 -3.46875 3.046875 -3.703125 Z M 3.046875 -3.703125 "/>
</g>
<g id="glyph-0-5">
<path d="M 3.09375 -1.734375 L 3.09375 -0.8125 C 3.09375 -0.4375 3.0625 -0.328125 2.28125 -0.328125 L 2.0625 -0.328125 L 2.0625 0 C 2.5 -0.03125 3.046875 -0.03125 3.484375 -0.03125 C 3.921875 -0.03125 4.484375 -0.03125 4.90625 0 L 4.90625 -0.328125 L 4.6875 -0.328125 C 3.921875 -0.328125 3.890625 -0.4375 3.890625 -0.8125 L 3.890625 -1.734375 L 4.953125 -1.734375 L 4.953125 -2.0625 L 3.890625 -2.0625 L 3.890625 -6.828125 C 3.890625 -7.046875 3.890625 -7.109375 3.734375 -7.109375 C 3.640625 -7.109375 3.59375 -7.109375 3.515625 -6.984375 L 0.296875 -2.0625 L 0.296875 -1.734375 Z M 3.15625 -2.0625 L 0.59375 -2.0625 L 3.15625 -5.96875 Z M 3.15625 -2.0625 "/>
</g>
<g id="glyph-0-6">
<path d="M 1.390625 -3.4375 L 1.390625 -3.703125 C 1.390625 -6.359375 2.6875 -6.734375 3.21875 -6.734375 C 3.46875 -6.734375 3.921875 -6.671875 4.140625 -6.3125 C 3.984375 -6.3125 3.5625 -6.3125 3.5625 -5.84375 C 3.5625 -5.515625 3.828125 -5.359375 4.046875 -5.359375 C 4.21875 -5.359375 4.53125 -5.453125 4.53125 -5.859375 C 4.53125 -6.484375 4.078125 -7 3.203125 -7 C 1.859375 -7 0.4375 -5.640625 0.4375 -3.3125 C 0.4375 -0.515625 1.65625 0.234375 2.640625 0.234375 C 3.796875 0.234375 4.796875 -0.75 4.796875 -2.140625 C 4.796875 -3.46875 3.859375 -4.484375 2.703125 -4.484375 C 1.984375 -4.484375 1.59375 -3.953125 1.390625 -3.4375 Z M 2.640625 -0.0625 C 1.96875 -0.0625 1.65625 -0.6875 1.59375 -0.84375 C 1.40625 -1.34375 1.40625 -2.1875 1.40625 -2.375 C 1.40625 -3.1875 1.75 -4.234375 2.6875 -4.234375 C 2.859375 -4.234375 3.34375 -4.234375 3.671875 -3.59375 C 3.859375 -3.203125 3.859375 -2.671875 3.859375 -2.15625 C 3.859375 -1.65625 3.859375 -1.125 3.671875 -0.75 C 3.359375 -0.109375 2.875 -0.0625 2.640625 -0.0625 Z M 2.640625 -0.0625 "/>
</g>
<g id="glyph-0-7">
<path d="M 5.8125 -7.140625 L 0.34375 -7.140625 L 0.34375 -6.8125 L 0.59375 -6.8125 C 1.40625 -6.8125 1.421875 -6.703125 1.421875 -6.328125 L 1.421875 -0.8125 C 1.421875 -0.4375 1.40625 -0.328125 0.59375 -0.328125 L 0.34375 -0.328125 L 0.34375 0 C 0.71875 -0.03125 1.53125 -0.03125 1.9375 -0.03125 C 2.375 -0.03125 3.328125 -0.03125 3.703125 0 L 3.703125 -0.328125 L 3.359375 -0.328125 C 2.359375 -0.328125 2.359375 -0.46875 2.359375 -0.828125 L 2.359375 -6.390625 C 2.359375 -6.734375 2.390625 -6.8125 2.875 -6.8125 L 3.953125 -6.8125 C 5.453125 -6.8125 5.6875 -6.1875 5.84375 -4.78125 L 6.109375 -4.78125 Z M 5.8125 -7.140625 "/>
</g>
<g id="glyph-0-8">
<path d="M 3.46875 2.515625 C 3.46875 2.484375 3.46875 2.46875 3.296875 2.28125 C 1.984375 0.96875 1.65625 -1.015625 1.65625 -2.625 C 1.65625 -4.453125 2.046875 -6.28125 3.34375 -7.59375 C 3.46875 -7.71875 3.46875 -7.734375 3.46875 -7.765625 C 3.46875 -7.84375 3.4375 -7.875 3.375 -7.875 C 3.265625 -7.875 2.328125 -7.15625 1.703125 -5.828125 C 1.171875 -4.671875 1.046875 -3.5 1.046875 -2.625 C 1.046875 -1.8125 1.15625 -0.53125 1.734375 0.65625 C 2.359375 1.9375 3.265625 2.625 3.375 2.625 C 3.4375 2.625 3.46875 2.59375 3.46875 2.515625 Z M 3.46875 2.515625 "/>
</g>
<g id="glyph-0-9">
<path d="M 3.03125 -2.625 C 3.03125 -3.4375 2.921875 -4.71875 2.34375 -5.90625 C 1.71875 -7.1875 0.8125 -7.875 0.703125 -7.875 C 0.640625 -7.875 0.59375 -7.828125 0.59375 -7.765625 C 0.59375 -7.734375 0.59375 -7.71875 0.796875 -7.53125 C 1.828125 -6.484375 2.421875 -4.8125 2.421875 -2.625 C 2.421875 -0.828125 2.03125 1.015625 0.734375 2.34375 C 0.59375 2.46875 0.59375 2.484375 0.59375 2.515625 C 0.59375 2.578125 0.640625 2.625 0.703125 2.625 C 0.8125 2.625 1.75 1.90625 2.375 0.578125 C 2.90625 -0.578125 3.03125 -1.75 3.03125 -2.625 Z M 3.03125 -2.625 "/>
</g>
<g id="glyph-0-10">
<path d="M 4.59375 -7.46875 C 4.65625 -7.609375 4.65625 -7.640625 4.65625 -7.671875 C 4.65625 -7.78125 4.5625 -7.875 4.4375 -7.875 C 4.296875 -7.875 4.25 -7.765625 4.21875 -7.671875 L 0.640625 2.21875 C 0.59375 2.359375 0.59375 2.390625 0.59375 2.421875 C 0.59375 2.53125 0.6875 2.625 0.796875 2.625 C 0.9375 2.625 0.984375 2.515625 1.015625 2.421875 Z M 4.59375 -7.46875 "/>
</g>
<g id="glyph-0-11">
<path d="M 4.296875 -2.421875 L 7.21875 -2.421875 C 7.375 -2.421875 7.578125 -2.421875 7.578125 -2.625 C 7.578125 -2.828125 7.375 -2.828125 7.21875 -2.828125 L 4.296875 -2.828125 L 4.296875 -5.78125 C 4.296875 -5.921875 4.296875 -6.125 4.078125 -6.125 C 3.875 -6.125 3.875 -5.921875 3.875 -5.78125 L 3.875 -2.828125 L 0.9375 -2.828125 C 0.78125 -2.828125 0.59375 -2.828125 0.59375 -2.625 C 0.59375 -2.421875 0.78125 -2.421875 0.9375 -2.421875 L 3.875 -2.421875 L 3.875 0.53125 C 3.875 0.671875 3.875 0.875 4.078125 0.875 C 4.296875 0.875 4.296875 0.671875 4.296875 0.53125 Z M 4.296875 -2.421875 "/>
</g>
<g id="glyph-0-12">
<path d="M 7.21875 -3.4375 C 7.375 -3.4375 7.578125 -3.4375 7.578125 -3.640625 C 7.578125 -3.859375 7.375 -3.859375 7.21875 -3.859375 L 0.9375 -3.859375 C 0.78125 -3.859375 0.59375 -3.859375 0.59375 -3.640625 C 0.59375 -3.4375 0.78125 -3.4375 0.9375 -3.4375 Z M 7.21875 -1.390625 C 7.375 -1.390625 7.578125 -1.390625 7.578125 -1.609375 C 7.578125 -1.8125 7.375 -1.8125 7.21875 -1.8125 L 0.9375 -1.8125 C 0.78125 -1.8125 0.59375 -1.8125 0.59375 -1.609375 C 0.59375 -1.390625 0.78125 -1.390625 0.9375 -1.390625 Z M 7.21875 -1.390625 "/>
</g>
<g id="glyph-0-13">
<path d="M 1.609375 -2.1875 L 2.015625 -6.984375 C 2.015625 -7.328125 1.734375 -7.515625 1.453125 -7.515625 C 1.1875 -7.515625 0.90625 -7.328125 0.90625 -6.984375 L 1.3125 -2.203125 C 1.328125 -2.046875 1.328125 -1.96875 1.453125 -1.96875 C 1.5625 -1.96875 1.59375 -2.015625 1.609375 -2.1875 Z M 2.015625 -0.5625 C 2.015625 -0.859375 1.765625 -1.109375 1.453125 -1.109375 C 1.15625 -1.109375 0.90625 -0.859375 0.90625 -0.5625 C 0.90625 -0.25 1.15625 0 1.453125 0 C 1.765625 0 2.015625 -0.25 2.015625 -0.5625 Z M 2.015625 -0.5625 "/>
</g>
<g id="glyph-1-0">
<path d="M 2.015625 -0.5625 C 2.015625 -0.859375 1.765625 -1.109375 1.453125 -1.109375 C 1.15625 -1.109375 0.90625 -0.859375 0.90625 -0.5625 C 0.90625 -0.25 1.15625 0 1.453125 0 C 1.765625 0 2.015625 -0.25 2.015625 -0.5625 Z M 2.015625 -0.5625 "/>
</g>
<g id="glyph-1-1">
<path d="M 2.78125 -3.921875 L 3.96875 -3.921875 C 3.625 -2.359375 3.53125 -1.90625 3.53125 -1.203125 C 3.53125 -1.046875 3.53125 -0.765625 3.609375 -0.40625 C 3.71875 0.046875 3.828125 0.109375 3.984375 0.109375 C 4.203125 0.109375 4.421875 -0.078125 4.421875 -0.28125 C 4.421875 -0.34375 4.421875 -0.375 4.359375 -0.515625 C 4.046875 -1.265625 4.046875 -1.953125 4.046875 -2.25 C 4.046875 -2.796875 4.125 -3.375 4.234375 -3.921875 L 5.4375 -3.921875 C 5.578125 -3.921875 5.953125 -3.921875 5.953125 -4.28125 C 5.953125 -4.53125 5.734375 -4.53125 5.53125 -4.53125 L 2.015625 -4.53125 C 1.78125 -4.53125 1.390625 -4.53125 0.921875 -4.03125 C 0.5625 -3.625 0.28125 -3.140625 0.28125 -3.09375 C 0.28125 -3.078125 0.28125 -2.984375 0.40625 -2.984375 C 0.5 -2.984375 0.515625 -3.03125 0.578125 -3.109375 C 1.09375 -3.921875 1.703125 -3.921875 1.90625 -3.921875 L 2.515625 -3.921875 C 2.171875 -2.640625 1.609375 -1.375 1.171875 -0.421875 C 1.078125 -0.265625 1.078125 -0.234375 1.078125 -0.171875 C 1.078125 0.03125 1.25 0.109375 1.390625 0.109375 C 1.703125 0.109375 1.78125 -0.171875 1.90625 -0.5625 C 2.0625 -1.046875 2.0625 -1.078125 2.1875 -1.59375 Z M 2.78125 -3.921875 "/>
</g>
<g id="glyph-1-2">
<path d="M 4.109375 -3.921875 C 3.8125 -3.921875 3.59375 -3.6875 3.59375 -3.453125 C 3.59375 -3.3125 3.703125 -3.15625 3.921875 -3.15625 C 4.15625 -3.15625 4.40625 -3.328125 4.40625 -3.734375 C 4.40625 -4.203125 3.953125 -4.640625 3.15625 -4.640625 C 1.78125 -4.640625 1.390625 -3.5625 1.390625 -3.109375 C 1.390625 -2.28125 2.15625 -2.125 2.46875 -2.0625 C 3.015625 -1.96875 3.5625 -1.84375 3.5625 -1.265625 C 3.5625 -1 3.3125 -0.109375 2.0625 -0.109375 C 1.90625 -0.109375 1.109375 -0.109375 0.859375 -0.671875 C 1.265625 -0.625 1.515625 -0.9375 1.515625 -1.234375 C 1.515625 -1.46875 1.359375 -1.59375 1.140625 -1.59375 C 0.859375 -1.59375 0.546875 -1.375 0.546875 -0.90625 C 0.546875 -0.296875 1.140625 0.109375 2.046875 0.109375 C 3.75 0.109375 4.15625 -1.15625 4.15625 -1.625 C 4.15625 -2 3.953125 -2.265625 3.828125 -2.390625 C 3.546875 -2.6875 3.25 -2.734375 2.78125 -2.828125 C 2.40625 -2.921875 1.984375 -3 1.984375 -3.46875 C 1.984375 -3.765625 2.234375 -4.40625 3.15625 -4.40625 C 3.421875 -4.40625 3.953125 -4.34375 4.109375 -3.921875 Z M 4.109375 -3.921875 "/>
</g>
<g id="glyph-1-3">
<path d="M 2.125 -0.015625 C 2.125 -0.703125 1.875 -1.109375 1.453125 -1.109375 C 1.109375 -1.109375 0.90625 -0.84375 0.90625 -0.5625 C 0.90625 -0.265625 1.109375 0 1.453125 0 C 1.578125 0 1.71875 -0.046875 1.828125 -0.140625 C 1.859375 -0.15625 1.875 -0.171875 1.875 -0.171875 C 1.890625 -0.171875 1.90625 -0.15625 1.90625 -0.015625 C 1.90625 0.765625 1.53125 1.390625 1.1875 1.75 C 1.078125 1.859375 1.078125 1.875 1.078125 1.90625 C 1.078125 1.984375 1.125 2.03125 1.171875 2.03125 C 1.296875 2.03125 2.125 1.21875 2.125 -0.015625 Z M 2.125 -0.015625 "/>
</g>
<g id="glyph-1-4">
<path d="M 0.921875 -0.625 C 0.890625 -0.46875 0.828125 -0.21875 0.828125 -0.171875 C 0.828125 0.015625 0.96875 0.109375 1.140625 0.109375 C 1.265625 0.109375 1.453125 0.03125 1.515625 -0.171875 C 1.53125 -0.203125 1.65625 -0.6875 1.71875 -0.953125 L 1.953125 -1.90625 C 2.015625 -2.125 2.078125 -2.359375 2.125 -2.609375 C 2.171875 -2.78125 2.25 -3.09375 2.265625 -3.125 C 2.421875 -3.453125 2.984375 -4.40625 3.984375 -4.40625 C 4.453125 -4.40625 4.546875 -4.015625 4.546875 -3.671875 C 4.546875 -3.03125 4.03125 -1.6875 3.859375 -1.234375 C 3.765625 -0.984375 3.765625 -0.859375 3.765625 -0.75 C 3.765625 -0.25 4.125 0.109375 4.625 0.109375 C 5.609375 0.109375 6 -1.421875 6 -1.5 C 6 -1.609375 5.90625 -1.609375 5.875 -1.609375 C 5.765625 -1.609375 5.765625 -1.578125 5.71875 -1.421875 C 5.5 -0.703125 5.15625 -0.109375 4.640625 -0.109375 C 4.46875 -0.109375 4.390625 -0.21875 4.390625 -0.46875 C 4.390625 -0.71875 4.484375 -0.96875 4.578125 -1.203125 C 4.78125 -1.765625 5.21875 -2.921875 5.21875 -3.515625 C 5.21875 -4.21875 4.765625 -4.640625 4.015625 -4.640625 C 3.0625 -4.640625 2.546875 -3.96875 2.375 -3.734375 C 2.328125 -4.3125 1.890625 -4.640625 1.40625 -4.640625 C 0.921875 -4.640625 0.71875 -4.234375 0.625 -4.046875 C 0.453125 -3.6875 0.296875 -3.0625 0.296875 -3.03125 C 0.296875 -2.921875 0.40625 -2.921875 0.4375 -2.921875 C 0.53125 -2.921875 0.546875 -2.921875 0.609375 -3.15625 C 0.78125 -3.90625 1 -4.40625 1.375 -4.40625 C 1.578125 -4.40625 1.703125 -4.28125 1.703125 -3.921875 C 1.703125 -3.703125 1.671875 -3.59375 1.53125 -3.046875 Z M 0.921875 -0.625 "/>
</g>
<g id="glyph-2-0">
<path d="M 4.078125 8.984375 L 2.234375 4.890625 C 2.15625 4.71875 2.109375 4.71875 2.078125 4.71875 C 2.0625 4.71875 2.015625 4.71875 1.90625 4.8125 L 0.90625 5.5625 C 0.765625 5.671875 0.765625 5.703125 0.765625 5.734375 C 0.765625 5.78125 0.796875 5.84375 0.875 5.84375 C 0.9375 5.84375 1.109375 5.703125 1.234375 5.625 C 1.296875 5.5625 1.453125 5.453125 1.5625 5.359375 L 3.640625 9.90625 C 3.703125 10.078125 3.765625 10.078125 3.859375 10.078125 C 4.015625 10.078125 4.046875 10.015625 4.109375 9.875 L 8.890625 0 C 8.953125 -0.140625 8.953125 -0.1875 8.953125 -0.203125 C 8.953125 -0.3125 8.875 -0.421875 8.75 -0.421875 C 8.65625 -0.421875 8.59375 -0.375 8.5 -0.203125 Z M 4.078125 8.984375 "/>
</g>
<g id="glyph-3-0">
<path d="M -7.140625 -5.8125 L -7.140625 -0.34375 L -6.8125 -0.34375 L -6.8125 -0.59375 C -6.8125 -1.40625 -6.703125 -1.421875 -6.328125 -1.421875 L -0.8125 -1.421875 C -0.4375 -1.421875 -0.328125 -1.40625 -0.328125 -0.59375 L -0.328125 -0.34375 L 0 -0.34375 C -0.03125 -0.71875 -0.03125 -1.53125 -0.03125 -1.9375 C -0.03125 -2.375 -0.03125 -3.328125 0 -3.703125 L -0.328125 -3.703125 L -0.328125 -3.359375 C -0.328125 -2.359375 -0.46875 -2.359375 -0.828125 -2.359375 L -6.390625 -2.359375 C -6.734375 -2.359375 -6.8125 -2.390625 -6.8125 -2.875 L -6.8125 -3.953125 C -6.8125 -5.453125 -6.1875 -5.6875 -4.78125 -5.84375 L -4.78125 -6.109375 Z M -7.140625 -5.8125 "/>
</g>
<g id="glyph-3-1">
<path d="M 2.515625 -3.46875 C 2.484375 -3.46875 2.46875 -3.46875 2.28125 -3.296875 C 0.96875 -1.984375 -1.015625 -1.65625 -2.625 -1.65625 C -4.453125 -1.65625 -6.28125 -2.046875 -7.59375 -3.34375 C -7.71875 -3.46875 -7.734375 -3.46875 -7.765625 -3.46875 C -7.84375 -3.46875 -7.875 -3.4375 -7.875 -3.375 C -7.875 -3.265625 -7.15625 -2.328125 -5.828125 -1.703125 C -4.671875 -1.171875 -3.5 -1.046875 -2.625 -1.046875 C -1.8125 -1.046875 -0.53125 -1.15625 0.65625 -1.734375 C 1.9375 -2.359375 2.625 -3.265625 2.625 -3.375 C 2.625 -3.4375 2.59375 -3.46875 2.515625 -3.46875 Z M 2.515625 -3.46875 "/>
</g>
<g id="glyph-3-2">
<path d="M -2.625 -3.03125 C -3.4375 -3.03125 -4.71875 -2.921875 -5.90625 -2.34375 C -7.1875 -1.71875 -7.875 -0.8125 -7.875 -0.703125 C -7.875 -0.640625 -7.828125 -0.59375 -7.765625 -0.59375 C -7.734375 -0.59375 -7.71875 -0.59375 -7.53125 -0.796875 C -6.484375 -1.828125 -4.8125 -2.421875 -2.625 -2.421875 C -0.828125 -2.421875 1.015625 -2.03125 2.34375 -0.734375 C 2.46875 -0.59375 2.484375 -0.59375 2.515625 -0.59375 C 2.578125 -0.59375 2.625 -0.640625 2.625 -0.703125 C 2.625 -0.8125 1.90625 -1.75 0.578125 -2.375 C -0.578125 -2.90625 -1.75 -3.03125 -2.625 -3.03125 Z M -2.625 -3.03125 "/>
</g>
<g id="glyph-4-0">
<path d="M -3.921875 -4.109375 C -3.921875 -3.8125 -3.6875 -3.59375 -3.453125 -3.59375 C -3.3125 -3.59375 -3.15625 -3.703125 -3.15625 -3.921875 C -3.15625 -4.15625 -3.328125 -4.40625 -3.734375 -4.40625 C -4.203125 -4.40625 -4.640625 -3.953125 -4.640625 -3.15625 C -4.640625 -1.78125 -3.5625 -1.390625 -3.109375 -1.390625 C -2.28125 -1.390625 -2.125 -2.15625 -2.0625 -2.46875 C -1.96875 -3.015625 -1.84375 -3.5625 -1.265625 -3.5625 C -1 -3.5625 -0.109375 -3.3125 -0.109375 -2.0625 C -0.109375 -1.90625 -0.109375 -1.109375 -0.671875 -0.859375 C -0.625 -1.265625 -0.9375 -1.515625 -1.234375 -1.515625 C -1.46875 -1.515625 -1.59375 -1.359375 -1.59375 -1.140625 C -1.59375 -0.859375 -1.375 -0.546875 -0.90625 -0.546875 C -0.296875 -0.546875 0.109375 -1.140625 0.109375 -2.046875 C 0.109375 -3.75 -1.15625 -4.15625 -1.625 -4.15625 C -2 -4.15625 -2.265625 -3.953125 -2.390625 -3.828125 C -2.6875 -3.546875 -2.734375 -3.25 -2.828125 -2.78125 C -2.921875 -2.40625 -3 -1.984375 -3.46875 -1.984375 C -3.765625 -1.984375 -4.40625 -2.234375 -4.40625 -3.15625 C -4.40625 -3.421875 -4.34375 -3.953125 -3.921875 -4.109375 Z M -3.921875 -4.109375 "/>
</g>
</g>
<clipPath id="clip-0">
<path clip-rule="nonzero" d="M 45.0625 5.175781 L 319.6875 5.175781 L 319.6875 99.175781 L 45.0625 99.175781 Z M 45.0625 5.175781 "/>
</clipPath>
</defs>
<path fill="none" stroke-width="0.3985" stroke-linecap="butt" stroke-linejoin="miter" stroke="rgb(75%, 75%, 75%)" stroke-opacity="1" stroke-miterlimit="10" d="M 0.00114772 0.000511027 L 0.00114772 94.065633 M 29.236231 0.000511027 L 29.236231 94.065633 M 58.471315 0.000511027 L 58.471315 94.065633 M 87.706398 0.000511027 L 87.706398 94.065633 M 116.941481 0.000511027 L 116.941481 94.065633 M 146.176565 0.000511027 L 146.176565 94.065633 M 175.415557 0.000511027 L 175.415557 94.065633 M 204.650641 0.000511027 L 204.650641 94.065633 M 233.885724 0.000511027 L 233.885724 94.065633 M 263.120807 0.000511027 L 263.120807 94.065633 " transform="matrix(0.999308, 0, 0, -0.999308, 45.061353, 99.176292)"/>
<path fill="none" stroke-width="0.3985" stroke-linecap="butt" stroke-linejoin="miter" stroke="rgb(75%, 75%, 75%)" stroke-opacity="1" stroke-miterlimit="10" d="M 0.00114772 0.000511027 L 274.816404 0.000511027 M 0.00114772 26.127974 L 274.816404 26.127974 M 0.00114772 52.259346 L 274.816404 52.259346 M 0.00114772 78.38681 L 274.816404 78.38681 " transform="matrix(0.999308, 0, 0, -0.999308, 45.061353, 99.176292)"/>
<path fill="none" stroke-width="0.19925" stroke-linecap="butt" stroke-linejoin="miter" stroke="rgb(50%, 50%, 50%)" stroke-opacity="1" stroke-miterlimit="10" d="M 0.00114772 0.000511027 L 0.00114772 4.253455 M 29.236231 0.000511027 L 29.236231 4.253455 M 58.471315 0.000511027 L 58.471315 4.253455 M 87.706398 0.000511027 L 87.706398 4.253455 M 116.941481 0.000511027 L 116.941481 4.253455 M 146.176565 0.000511027 L 146.176565 4.253455 M 175.415557 0.000511027 L 175.415557 4.253455 M 204.650641 0.000511027 L 204.650641 4.253455 M 233.885724 0.000511027 L 233.885724 4.253455 M 263.120807 0.000511027 L 263.120807 4.253455 M 0.00114772 94.065633 L 0.00114772 89.812689 M 29.236231 94.065633 L 29.236231 89.812689 M 58.471315 94.065633 L 58.471315 89.812689 M 87.706398 94.065633 L 87.706398 89.812689 M 116.941481 94.065633 L 116.941481 89.812689 M 146.176565 94.065633 L 146.176565 89.812689 M 175.415557 94.065633 L 175.415557 89.812689 M 204.650641 94.065633 L 204.650641 89.812689 M 233.885724 94.065633 L 233.885724 89.812689 M 263.120807 94.065633 L 263.120807 89.812689 " transform="matrix(0.999308, 0, 0, -0.999308, 45.061353, 99.176292)"/>
<path fill="none" stroke-width="0.19925" stroke-linecap="butt" stroke-linejoin="miter" stroke="rgb(50%, 50%, 50%)" stroke-opacity="1" stroke-miterlimit="10" d="M 0.00114772 0.000511027 L 4.250183 0.000511027 M 0.00114772 26.127974 L 4.250183 26.127974 M 0.00114772 52.259346 L 4.250183 52.259346 M 0.00114772 78.38681 L 4.250183 78.38681 M 274.816404 0.000511027 L 270.56346 0.000511027 M 274.816404 26.127974 L 270.56346 26.127974 M 274.816404 52.259346 L 270.56346 52.259346 M 274.816404 78.38681 L 270.56346 78.38681 " transform="matrix(0.999308, 0, 0, -0.999308, 45.061353, 99.176292)"/>
<path fill="none" stroke-width="0.3985" stroke-linecap="butt" stroke-linejoin="miter" stroke="rgb(0%, 0%, 0%)" stroke-opacity="1" stroke-miterlimit="10" d="M 0.00114772 0.000511027 L 0.00114772 94.065633 L 274.816404 94.065633 L 274.816404 0.000511027 Z M 0.00114772 0.000511027 " transform="matrix(0.999308, 0, 0, -0.999308, 45.061353, 99.176292)"/>
<g fill="rgb(0%, 0%, 0%)" fill-opacity="1">
<use xlink:href="#glyph-0-0" x="42.43817" y="109.635046"/>
</g>
<g fill="rgb(0%, 0%, 0%)" fill-opacity="1">
<use xlink:href="#glyph-0-0" x="67.572757" y="109.635046"/>
</g>
<g fill="rgb(0%, 0%, 0%)" fill-opacity="1">
<use xlink:href="#glyph-1-0" x="72.819123" y="109.635046"/>
</g>
<g fill="rgb(0%, 0%, 0%)" fill-opacity="1">
<use xlink:href="#glyph-0-1" x="75.734103" y="109.635046"/>
</g>
<g fill="rgb(0%, 0%, 0%)" fill-opacity="1">
<use xlink:href="#glyph-0-2" x="100.86869" y="109.635046"/>
</g>
<g fill="rgb(0%, 0%, 0%)" fill-opacity="1">
<use xlink:href="#glyph-0-2" x="126.004277" y="109.635046"/>
</g>
<g fill="rgb(0%, 0%, 0%)" fill-opacity="1">
<use xlink:href="#glyph-1-0" x="131.250642" y="109.635046"/>
</g>
<g fill="rgb(0%, 0%, 0%)" fill-opacity="1">
<use xlink:href="#glyph-0-1" x="134.165623" y="109.635046"/>
</g>
<g fill="rgb(0%, 0%, 0%)" fill-opacity="1">
<use xlink:href="#glyph-0-3" x="159.30021" y="109.635046"/>
</g>
<g fill="rgb(0%, 0%, 0%)" fill-opacity="1">
<use xlink:href="#glyph-0-3" x="184.434797" y="109.635046"/>
</g>
<g fill="rgb(0%, 0%, 0%)" fill-opacity="1">
<use xlink:href="#glyph-1-0" x="189.681162" y="109.635046"/>
</g>
<g fill="rgb(0%, 0%, 0%)" fill-opacity="1">
<use xlink:href="#glyph-0-1" x="192.596143" y="109.635046"/>
</g>
<g fill="rgb(0%, 0%, 0%)" fill-opacity="1">
<use xlink:href="#glyph-0-4" x="217.73073" y="109.635046"/>
</g>
<g fill="rgb(0%, 0%, 0%)" fill-opacity="1">
<use xlink:href="#glyph-0-4" x="242.865317" y="109.635046"/>
</g>
<g fill="rgb(0%, 0%, 0%)" fill-opacity="1">
<use xlink:href="#glyph-1-0" x="248.111682" y="109.635046"/>
</g>
<g fill="rgb(0%, 0%, 0%)" fill-opacity="1">
<use xlink:href="#glyph-0-1" x="251.026663" y="109.635046"/>
</g>
<g fill="rgb(0%, 0%, 0%)" fill-opacity="1">
<use xlink:href="#glyph-0-5" x="276.16125" y="109.635046"/>
</g>
<g fill="rgb(0%, 0%, 0%)" fill-opacity="1">
<use xlink:href="#glyph-0-5" x="301.296836" y="109.635046"/>
</g>
<g fill="rgb(0%, 0%, 0%)" fill-opacity="1">
<use xlink:href="#glyph-1-0" x="306.543202" y="109.635046"/>
</g>
<g fill="rgb(0%, 0%, 0%)" fill-opacity="1">
<use xlink:href="#glyph-0-1" x="309.458182" y="109.635046"/>
</g>
<g fill="rgb(0%, 0%, 0%)" fill-opacity="1">
<use xlink:href="#glyph-0-0" x="36.118549" y="102.55695"/>
</g>
<g fill="rgb(0%, 0%, 0%)" fill-opacity="1">
<use xlink:href="#glyph-0-3" x="36.118549" y="76.446039"/>
</g>
<g fill="rgb(0%, 0%, 0%)" fill-opacity="1">
<use xlink:href="#glyph-0-5" x="36.118549" y="50.334129"/>
</g>
<g fill="rgb(0%, 0%, 0%)" fill-opacity="1">
<use xlink:href="#glyph-0-6" x="36.118549" y="24.223218"/>
</g>
<path fill="none" stroke-width="0.3985" stroke-linecap="butt" stroke-linejoin="miter" stroke="rgb(100%, 59.999084%, 59.999084%)" stroke-opacity="1" stroke-dasharray="2.98883 2.98883" stroke-miterlimit="10" d="M 0.00114772 23.157168 L 274.816404 23.157168 " transform="matrix(0.999308, 0, 0, -0.999308, 45.061353, 99.176292)"/>
<path fill="none" stroke-width="0.19925" stroke-linecap="butt" stroke-linejoin="miter" stroke="rgb(50%, 50%, 50%)" stroke-opacity="1" stroke-miterlimit="10" d="M 0.00114772 23.157168 L 4.250183 23.157168 M 274.816404 23.157168 L 270.56346 23.157168 " transform="matrix(0.999308, 0, 0, -0.999308, 45.061353, 99.176292)"/>
<g fill="rgb(0%, 0%, 0%)" fill-opacity="1">
<use xlink:href="#glyph-2-0" x="26.263376" y="71.418522"/>
</g>
<path fill="none" stroke-width="0.42" stroke-linecap="butt" stroke-linejoin="miter" stroke="rgb(0%, 0%, 0%)" stroke-opacity="1" stroke-miterlimit="10" d="M 21.749494 6.213637 L 28.109366 6.213637 " transform="matrix(0.999308, 0, 0, -0.999308, 13.273375, 77.416367)"/>
<g fill="rgb(0%, 0%, 0%)" fill-opacity="1">
<use xlink:href="#glyph-1-1" x="35.007318" y="78.976286"/>
</g>
<g clip-path="url(#clip-0)">
<path fill="none" stroke-width="1.19553" stroke-linecap="butt" stroke-linejoin="miter" stroke="rgb(0%, 0%, 64.99939%)" stroke-opacity="1" stroke-miterlimit="10" d="M 8.768936 81.26771 L 9.35528 75.924167 L 9.941623 71.217784 L 10.524058 67.046928 L 11.110401 63.321693 L 11.692836 59.979535 L 12.279179 56.961821 L 12.865523 54.225551 L 13.447957 51.735546 L 14.0343 49.456625 L 14.616735 47.369242 L 15.203078 45.446036 L 15.785513 43.67137 L 16.371856 42.025699 L 16.9582 40.501206 L 17.540634 39.082255 L 18.126978 37.761028 L 18.709412 36.525798 L 19.295756 35.368747 L 19.882099 34.282057 L 20.464533 33.265728 L 21.050877 32.304125 L 21.633311 31.401156 L 22.219655 30.549004 L 22.802089 29.743759 L 23.388433 28.981512 L 23.974776 28.258355 L 24.557211 27.570379 L 25.143554 26.921492 L 25.725988 26.299968 L 26.312332 25.713625 L 26.898675 25.150735 L 27.48111 24.619117 L 28.067453 24.107044 L 28.649888 23.622333 L 29.236231 23.157168 L 29.818666 22.711547 L 30.405009 22.28547 L 30.991352 21.878939 L 31.573787 21.488043 L 32.16013 21.112783 L 32.742565 20.757068 L 33.328908 20.409171 L 33.915252 20.080819 L 34.497686 19.760285 L 35.08403 19.455386 L 35.666464 19.162214 L 36.252808 18.880769 L 36.835242 18.607143 L 37.421585 18.345242 L 38.007929 18.09116 L 38.590363 17.848805 L 39.176707 17.614268 L 39.759141 17.387548 L 40.345485 17.168647 L 40.931828 16.957563 L 41.514263 16.754297 L 42.100606 16.558849 L 42.68304 16.37122 L 43.269384 16.187499 L 43.851818 16.011596 L 44.438162 15.839602 L 45.024505 15.675425 L 45.60694 15.515158 L 46.193283 15.3588 L 46.775718 15.21026 L 47.362061 15.065628 L 47.948404 14.924906 L 48.530839 14.792001 L 49.117182 14.659097 L 49.699617 14.53401 L 50.28596 14.412833 L 50.868395 14.295564 L 51.454738 14.178295 L 52.041082 14.068844 L 52.623516 13.959394 L 53.20986 13.857761 L 53.792294 13.756128 L 54.378637 13.658404 L 54.964981 13.564589 L 55.547415 13.474683 L 56.133759 13.388686 L 56.716193 13.302689 L 57.302537 13.220601 L 57.884971 13.142422 L 58.471315 13.064243 L 59.057658 12.989972 L 59.640092 12.919611 L 60.226436 12.84925 L 60.80887 12.782798 L 61.981557 12.657711 L 62.563992 12.595168 L 63.150335 12.540443 L 63.73277 12.481808 L 64.319113 12.430992 L 64.901548 12.376266 L 65.487891 12.329359 L 66.074234 12.278542 L 66.656669 12.235544 L 67.243012 12.188636 L 67.825447 12.149547 L 68.41179 12.106548 L 68.998134 12.067459 L 69.580568 12.032278 L 70.166912 11.997098 L 70.749346 11.961917 L 71.335689 11.930645 L 71.918124 11.899374 L 72.504467 11.868102 L 73.090811 11.840739 L 73.673245 11.817286 L 74.259589 11.789923 L 74.842023 11.766469 L 75.428367 11.746924 L 76.01471 11.723471 L 76.597144 11.707835 L 77.183488 11.68829 L 77.765922 11.672654 L 78.352266 11.657018 L 78.9347 11.641383 L 80.107387 11.617929 L 80.689822 11.610111 L 81.276165 11.598384 L 81.8586 11.590566 L 82.444943 11.586657 L 83.031286 11.578839 L 83.613721 11.57493 L 84.200064 11.571021 L 86.53762 11.571021 L 87.123964 11.57493 L 87.706398 11.578839 L 88.292741 11.582748 L 88.875176 11.590566 L 89.461519 11.594475 L 90.043954 11.602293 L 90.630297 11.61402 L 91.216641 11.621838 L 91.799075 11.633565 L 92.385419 11.645292 L 92.967853 11.660927 L 93.554196 11.672654 L 94.14054 11.68829 L 94.722974 11.703926 L 95.309318 11.723471 L 95.891752 11.739106 L 96.478096 11.758651 L 97.06053 11.778196 L 98.233217 11.825104 L 98.815652 11.848557 L 99.401995 11.872011 L 99.984429 11.895465 L 101.157116 11.95019 L 101.739551 11.977553 L 102.325894 12.008824 L 102.908329 12.036187 L 103.494672 12.067459 L 104.077107 12.102639 L 104.66345 12.133911 L 105.249793 12.169092 L 105.832228 12.204272 L 106.418571 12.239453 L 107.001006 12.278542 L 107.587349 12.313723 L 108.173693 12.352813 L 108.756127 12.395811 L 109.342471 12.434901 L 109.924905 12.477899 L 110.511248 12.520898 L 111.093683 12.563896 L 112.26637 12.657711 L 112.848804 12.704619 L 113.435148 12.751526 L 114.017582 12.802343 L 115.190269 12.903975 L 115.772704 12.954792 L 116.359047 13.009517 L 116.941481 13.064243 L 117.527825 13.118968 L 118.110259 13.177602 L 119.282946 13.294871 L 119.865381 13.353505 L 120.451724 13.416049 L 121.034159 13.478592 L 121.620502 13.541135 L 122.206845 13.607588 L 122.78928 13.670131 L 123.375623 13.740492 L 123.958058 13.806944 L 124.544401 13.877306 L 125.126836 13.947667 L 125.713179 14.018028 L 126.299523 14.092298 L 126.881957 14.166568 L 127.4683 14.240838 L 128.050735 14.315109 L 128.637078 14.393288 L 129.223422 14.475376 L 129.805856 14.553555 L 130.3922 14.635643 L 130.974634 14.717731 L 131.560978 14.803728 L 132.143412 14.885816 L 132.729756 14.975722 L 133.316099 15.061719 L 133.898533 15.151625 L 134.484877 15.241531 L 135.067311 15.335346 L 136.239998 15.522976 L 136.822433 15.6207 L 137.408776 15.718424 L 137.991211 15.816148 L 138.577554 15.917781 L 139.159988 16.019414 L 140.332675 16.230497 L 140.91511 16.336039 L 141.501453 16.44549 L 142.083888 16.554941 L 142.670231 16.664391 L 143.256575 16.777751 L 143.839009 16.891111 L 144.425352 17.008379 L 145.007787 17.125648 L 145.59413 17.246826 L 146.176565 17.368003 L 146.762908 17.489181 L 147.349252 17.614268 L 147.931686 17.743263 L 148.51803 17.86835 L 149.100464 18.001254 L 149.686808 18.13025 L 150.273151 18.267063 L 150.855585 18.399968 L 151.441929 18.536781 L 152.024363 18.677504 L 152.610707 18.818226 L 153.193141 18.962858 L 153.779485 19.107489 L 154.365828 19.256029 L 154.948263 19.40457 L 155.534606 19.55311 L 156.11704 19.709468 L 156.703384 19.861917 L 157.289727 20.022185 L 157.872162 20.182452 L 158.458505 20.342719 L 159.04094 20.506895 L 159.627283 20.67498 L 160.209718 20.843065 L 160.796061 21.011151 L 161.382404 21.187054 L 161.964839 21.362957 L 162.551182 21.53886 L 163.133617 21.718672 L 163.71996 21.902393 L 164.306304 22.090023 L 164.888738 22.277652 L 165.475082 22.465282 L 166.057516 22.66073 L 166.643859 22.856178 L 167.226294 23.051626 L 168.398981 23.458157 L 168.981415 23.665332 L 169.567759 23.872507 L 170.150193 24.087499 L 171.32288 24.517484 L 171.905315 24.740295 L 172.491658 24.963105 L 173.074092 25.189825 L 173.660436 25.420453 L 174.24287 25.654991 L 174.829214 25.889528 L 175.415557 26.127974 L 175.997992 26.37033 L 176.584335 26.616594 L 177.16677 26.866767 L 178.339456 27.374931 L 178.921891 27.636831 L 179.508234 27.898731 L 180.090669 28.168449 L 180.677012 28.438167 L 181.259447 28.711794 L 181.84579 28.98933 L 182.432134 29.270775 L 183.014568 29.556129 L 183.600911 29.845392 L 184.183346 30.138563 L 184.769689 30.435644 L 185.356033 30.740543 L 185.938467 31.045441 L 186.524811 31.354249 L 187.107245 31.666965 L 187.693589 31.9875 L 188.276023 32.308034 L 188.862367 32.636386 L 189.44871 32.968648 L 190.031144 33.304818 L 190.617488 33.644897 L 191.199922 33.992794 L 192.372609 34.696406 L 192.955044 35.059939 L 193.541387 35.423472 L 194.123822 35.794823 L 194.710165 36.170083 L 195.292599 36.549252 L 195.878943 36.936238 L 196.465286 37.327134 L 197.047721 37.725847 L 197.634064 38.12847 L 198.216499 38.535001 L 198.802842 38.949351 L 199.389186 39.367609 L 199.97162 39.793685 L 200.557963 40.22367 L 201.140398 40.661473 L 201.726741 41.107094 L 202.309176 41.556624 L 202.895519 42.010063 L 203.481863 42.475229 L 204.064297 42.944304 L 204.650641 43.417288 L 205.233075 43.901998 L 205.819419 44.390618 L 206.405762 44.887055 L 206.988196 45.39131 L 207.57454 45.899475 L 208.156974 46.415457 L 208.743318 46.943166 L 209.325752 47.474784 L 209.912096 48.01422 L 210.498439 48.561474 L 211.080874 49.116546 L 211.667217 49.679435 L 212.249651 50.254052 L 212.835995 50.832577 L 213.422338 51.418921 L 214.004773 52.016991 L 214.591116 52.61897 L 215.173551 53.232677 L 215.759894 53.85811 L 216.342329 54.487452 L 216.928672 55.12852 L 217.515015 55.777407 L 218.09745 56.438021 L 218.683793 57.106452 L 219.266228 57.786611 L 219.852571 58.474587 L 220.438915 59.170381 L 221.021349 59.881811 L 221.607693 60.59715 L 222.190127 61.328125 L 222.776471 62.066918 L 223.358905 62.817437 L 223.945248 63.579684 L 224.531592 64.353657 L 225.114026 65.135448 L 225.70037 65.932875 L 226.282804 66.742029 L 226.869148 67.559001 L 227.455491 68.391609 L 228.037926 69.235943 L 228.624269 70.092005 L 229.206703 70.959793 L 229.793047 71.839308 L 230.375481 72.734459 L 230.961825 73.641337 L 231.548168 74.563851 L 232.130603 75.498091 L 232.716946 76.447967 L 233.299381 77.409571 L 233.885724 78.38681 L 234.472067 79.379685 L 235.054502 80.388195 L 235.640845 81.408433 L 236.22328 82.444306 L 236.809623 83.499724 L 237.392058 84.566869 L 237.978401 85.653559 L 238.564745 86.751976 L 239.147179 87.869937 L 239.733523 89.003535 L 240.315957 90.156677 L 240.9023 91.325455 L 241.488644 92.513777 L 242.071078 93.717736 L 242.657422 94.941239 L 243.239856 96.180378 L 243.8262 97.442971 L 244.408634 98.7212 L 244.994978 100.018973 L 245.581321 101.340201 L 246.163755 102.677064 L 246.750099 104.03738 L 247.332533 105.417242 L 247.918877 106.820557 L 248.50522 108.243417 L 249.087655 109.685822 L 249.673998 111.15559 L 250.256433 112.644902 L 250.842776 114.157668 L 251.425211 115.693888 L 252.011554 117.253561 L 252.597897 118.836688 L 253.180332 120.443269 L 253.766675 122.077213 L 254.34911 123.73852 L 254.935453 125.419371 L 255.521797 127.131494 L 256.104231 128.870979 L 256.690575 130.633918 L 257.273009 132.42422 L 257.859352 134.245794 L 258.441787 136.09473 L 259.02813 137.971029 L 259.614474 139.8786 L 260.196908 141.813533 L 260.783252 143.783647 L 261.365686 145.781124 L 261.95203 147.809872 L 262.538373 149.869892 L 263.120807 151.965092 L 263.707151 154.091564 L 264.289585 156.253217 L 264.875929 158.450051 L 265.458363 160.678156 L 266.044707 162.94535 L 266.63105 165.243816 L 267.213485 167.581372 L 267.799828 169.958018 L 268.382263 172.369844 L 268.968606 174.824668 " transform="matrix(0.999308, 0, 0, -0.999308, 45.061353, 99.176292)"/>
</g>
<path fill-rule="nonzero" fill="rgb(75%, 0%, 0%)" fill-opacity="1" stroke-width="0.3985" stroke-linecap="butt" stroke-linejoin="miter" stroke="rgb(75%, 0%, 0%)" stroke-opacity="1" stroke-miterlimit="10" d="M 31.229799 23.157168 C 31.229799 24.255584 30.334648 25.150735 29.236231 25.150735 C 28.133905 25.150735 27.242663 24.255584 27.242663 23.157168 C 27.242663 22.054842 28.133905 21.1636 29.236231 21.1636 C 30.334648 21.1636 31.229799 22.054842 31.229799 23.157168 Z M 31.229799 23.157168 " transform="matrix(0.999308, 0, 0, -0.999308, 45.061353, 99.176292)"/>
<path fill-rule="nonzero" fill="rgb(75%, 0%, 0%)" fill-opacity="1" stroke-width="0.3985" stroke-linecap="butt" stroke-linejoin="miter" stroke="rgb(75%, 0%, 0%)" stroke-opacity="1" stroke-miterlimit="10" d="M 60.464882 13.064243 C 60.464882 14.166568 59.57364 15.05781 58.471315 15.05781 C 57.368989 15.05781 56.477747 14.166568 56.477747 13.064243 C 56.477747 11.965826 57.368989 11.070675 58.471315 11.070675 C 59.57364 11.070675 60.464882 11.965826 60.464882 13.064243 Z M 60.464882 13.064243 " transform="matrix(0.999308, 0, 0, -0.999308, 45.061353, 99.176292)"/>
<path fill-rule="nonzero" fill="rgb(75%, 0%, 0%)" fill-opacity="1" stroke-width="0.3985" stroke-linecap="butt" stroke-linejoin="miter" stroke="rgb(75%, 0%, 0%)" stroke-opacity="1" stroke-miterlimit="10" d="M 118.935049 13.064243 C 118.935049 14.166568 118.043807 15.05781 116.941481 15.05781 C 115.843065 15.05781 114.951823 14.166568 114.951823 13.064243 C 114.951823 11.965826 115.843065 11.070675 116.941481 11.070675 C 118.043807 11.070675 118.935049 11.965826 118.935049 13.064243 Z M 118.935049 13.064243 " transform="matrix(0.999308, 0, 0, -0.999308, 45.061353, 99.176292)"/>
<path fill-rule="nonzero" fill="rgb(75%, 0%, 0%)" fill-opacity="1" stroke-width="0.3985" stroke-linecap="butt" stroke-linejoin="miter" stroke="rgb(75%, 0%, 0%)" stroke-opacity="1" stroke-miterlimit="10" d="M 177.405216 26.127974 C 177.405216 27.2303 176.513974 28.121542 175.415557 28.121542 C 174.313232 28.121542 173.42199 27.2303 173.42199 26.127974 C 173.42199 25.029558 174.313232 24.138316 175.415557 24.138316 C 176.513974 24.138316 177.405216 25.029558 177.405216 26.127974 Z M 177.405216 26.127974 " transform="matrix(0.999308, 0, 0, -0.999308, 45.061353, 99.176292)"/>
<path fill-rule="nonzero" fill="rgb(75%, 0%, 0%)" fill-opacity="1" stroke-width="0.3985" stroke-linecap="butt" stroke-linejoin="miter" stroke="rgb(75%, 0%, 0%)" stroke-opacity="1" stroke-miterlimit="10" d="M 235.879292 78.38681 C 235.879292 79.489135 234.984141 80.380377 233.885724 80.380377 C 232.783398 80.380377 231.892156 79.489135 231.892156 78.38681 C 231.892156 77.288393 232.783398 76.397151 233.885724 76.397151 C 234.984141 76.397151 235.879292 77.288393 235.879292 78.38681 Z M 235.879292 78.38681 " transform="matrix(0.999308, 0, 0, -0.999308, 45.061353, 99.176292)"/>
<g fill="rgb(0%, 0%, 0%)" fill-opacity="1">
<use xlink:href="#glyph-1-2" x="179.914928" y="121.345933"/>
</g>
<g fill="rgb(0%, 0%, 0%)" fill-opacity="1">
<use xlink:href="#glyph-3-0" x="16.447177" y="61.995051"/>
<use xlink:href="#glyph-3-1" x="16.447177" y="55.437094"/>
</g>
<g fill="rgb(0%, 0%, 0%)" fill-opacity="1">
<use xlink:href="#glyph-4-0" x="16.447177" y="51.356421"/>
</g>
<g fill="rgb(0%, 0%, 0%)" fill-opacity="1">
<use xlink:href="#glyph-3-2" x="16.447177" y="46.437828"/>
</g>
<path fill-rule="nonzero" fill="rgb(100%, 100%, 100%)" fill-opacity="1" stroke-width="0.3985" stroke-linecap="butt" stroke-linejoin="miter" stroke="rgb(0%, 0%, 0%)" stroke-opacity="1" stroke-miterlimit="10" d="M 82.6443 60.190619 L 211.788395 60.190619 L 211.788395 91.04401 L 82.6443 91.04401 Z M 82.6443 60.190619 " transform="matrix(0.999308, 0, 0, -0.999308, 45.061353, 99.176292)"/>
<path fill="none" stroke-width="1.19553" stroke-linecap="butt" stroke-linejoin="miter" stroke="rgb(0%, 0%, 64.99939%)" stroke-opacity="1" stroke-miterlimit="10" d="M 0.000721499 -0.000144523 L 17.00859 -0.000144523 " transform="matrix(0.999308, 0, 0, -0.999308, 131.233654, 16.898293)"/>
<g fill="rgb(0%, 0%, 0%)" fill-opacity="1">
<use xlink:href="#glyph-0-7" x="150.819085" y="20.046112"/>
<use xlink:href="#glyph-0-8" x="157.377042" y="20.046112"/>
</g>
<g fill="rgb(0%, 0%, 0%)" fill-opacity="1">
<use xlink:href="#glyph-1-2" x="161.456716" y="20.046112"/>
</g>
<g fill="rgb(0%, 0%, 0%)" fill-opacity="1">
<use xlink:href="#glyph-0-9" x="166.375308" y="20.046112"/>
</g>
<path fill-rule="nonzero" fill="rgb(75%, 0%, 0%)" fill-opacity="1" stroke-width="0.3985" stroke-linecap="butt" stroke-linejoin="miter" stroke="rgb(75%, 0%, 0%)" stroke-opacity="1" stroke-miterlimit="10" d="M 10.496269 -0.000226984 C 10.496269 1.102099 9.605027 1.993341 8.502701 1.993341 C 7.404285 1.993341 6.513043 1.102099 6.513043 -0.000226984 C 6.513043 -1.098644 7.404285 -1.993795 8.502701 -1.993795 C 9.605027 -1.993795 10.496269 -1.098644 10.496269 -0.000226984 Z M 10.496269 -0.000226984 " transform="matrix(0.999308, 0, 0, -0.999308, 131.233654, 30.323992)"/>
<g fill="rgb(0%, 0%, 0%)" fill-opacity="1">
<use xlink:href="#glyph-0-7" x="150.819085" y="33.471811"/>
<use xlink:href="#glyph-0-8" x="157.377042" y="33.471811"/>
<use xlink:href="#glyph-0-2" x="161.448222" y="33.471811"/>
<use xlink:href="#glyph-0-10" x="166.694587" y="33.471811"/>
<use xlink:href="#glyph-0-3" x="171.940953" y="33.471811"/>
<use xlink:href="#glyph-0-9" x="177.187318" y="33.471811"/>
</g>
<g fill="rgb(0%, 0%, 0%)" fill-opacity="1">
<use xlink:href="#glyph-1-3" x="181.276985" y="33.471811"/>
</g>
<g fill="rgb(0%, 0%, 0%)" fill-opacity="1">
<use xlink:href="#glyph-0-7" x="189.434333" y="33.471811"/>
<use xlink:href="#glyph-0-8" x="195.99229" y="33.471811"/>
</g>
<g fill="rgb(0%, 0%, 0%)" fill-opacity="1">
<use xlink:href="#glyph-1-4" x="200.072963" y="33.471811"/>
</g>
<g fill="rgb(0%, 0%, 0%)" fill-opacity="1">
<use xlink:href="#glyph-0-11" x="208.702984" y="33.471811"/>
</g>
<g fill="rgb(0%, 0%, 0%)" fill-opacity="1">
<use xlink:href="#glyph-0-2" x="219.185222" y="33.471811"/>
<use xlink:href="#glyph-0-9" x="224.431588" y="33.471811"/>
</g>
<g fill="rgb(0%, 0%, 0%)" fill-opacity="1">
<use xlink:href="#glyph-0-12" x="231.409254" y="33.471811"/>
</g>
<g fill="rgb(0%, 0%, 0%)" fill-opacity="1">
<use xlink:href="#glyph-1-4" x="242.512561" y="33.471811"/>
</g>
<g fill="rgb(0%, 0%, 0%)" fill-opacity="1">
<use xlink:href="#glyph-0-13" x="248.810198" y="33.471811"/>
</g>
</svg>
